<svg width="140" height="49" viewBox="0 0 140 49" fill="none" xmlns="http://www.w3.org/2000/svg">
<path d="M49.8064 44.3189C51.5492 44.3189 52.711 45.3377 52.711 46.6595C52.711 47.9812 51.5492 49 49.8064 49C48.0498 49 46.9019 47.9812 46.9019 46.6595C46.9019 45.324 48.0498 44.3189 49.8064 44.3189ZM49.8064 44.6631C48.3541 44.6631 47.4413 45.5029 47.4413 46.6457C47.4413 47.7884 48.3541 48.6283 49.8064 48.6283C51.2449 48.6283 52.1716 47.7747 52.1716 46.6457C52.1716 45.5029 51.2449 44.6631 49.8064 44.6631Z" fill="black"/>
<path d="M53.9697 44.3878H56.2104C57.3584 44.3878 58.0084 44.9935 58.0084 45.7095C58.0084 46.4254 57.3445 47.0312 56.2104 47.0312H54.4815V48.9036H53.9697V44.3878ZM56.1551 44.7457H54.4815V46.687H56.1551C56.9434 46.687 57.469 46.2877 57.469 45.7232C57.4829 45.145 56.9434 44.7457 56.1551 44.7457Z" fill="black"/>
<path d="M59.0874 44.3878H62.8772V44.7457H59.5992V46.4254H62.8218V46.7834H59.5992V48.5732H62.8772V48.9312H59.0874V44.3878Z" fill="black"/>
<path d="M64.6612 45.0073V48.9036H64.1494V44.3878H64.675L68.4233 48.229V44.3878H68.935V48.9036H68.4371L64.6612 45.0073Z" fill="black"/>
<path d="M72.6278 48.0087C72.9598 48.3667 73.5407 48.642 74.3014 48.642C75.2281 48.642 75.809 48.2703 75.809 47.6783C75.809 47.0312 75.1036 46.7696 74.2046 46.7696C73.9556 46.7696 73.7343 46.7696 73.6514 46.7696V46.3979C73.7343 46.3979 73.9695 46.3979 74.2046 46.3979C74.993 46.3979 75.726 46.1363 75.726 45.5443C75.726 44.9798 75.0621 44.6769 74.2876 44.6769C73.6099 44.6769 73.1258 44.8834 72.6832 45.2551L72.3512 45.0073C72.7662 44.6218 73.4301 44.3189 74.3014 44.3189C75.3388 44.3189 76.224 44.7457 76.224 45.5167C76.224 46.2051 75.4494 46.508 74.9377 46.5768C75.4633 46.6181 76.307 46.9623 76.307 47.7058C76.307 48.4493 75.5601 49 74.2876 49C73.3056 49 72.5863 48.6558 72.2544 48.2428L72.6278 48.0087Z" fill="black"/>
<path d="M77.6074 44.3878H79.5161C81.3695 44.3878 82.5313 45.4066 82.5313 46.6457C82.5313 47.8986 81.3695 48.9036 79.5161 48.9036H77.6074V44.3878ZM79.5161 48.5594C81.0929 48.5594 82.0058 47.7196 82.0058 46.6595C82.0058 45.5993 81.1067 44.7457 79.5161 44.7457H78.1192V48.5594H79.5161Z" fill="black"/>
<path d="M86.1411 44.3878H89.9309V44.7457H86.6529V46.4254H89.8756V46.7834H86.6529V48.9174H86.1411V44.3878Z" fill="black"/>
<path d="M93.679 44.3189C95.4217 44.3189 96.5835 45.3377 96.5835 46.6595C96.5835 47.9812 95.4217 49 93.679 49C91.9224 49 90.7744 47.9812 90.7744 46.6595C90.7744 45.324 91.9224 44.3189 93.679 44.3189ZM93.679 44.6631C92.2267 44.6631 91.3138 45.5029 91.3138 46.6457C91.3138 47.7884 92.2267 48.6283 93.679 48.6283C95.1174 48.6283 96.0441 47.7747 96.0441 46.6457C96.0441 45.5029 95.1036 44.6631 93.679 44.6631Z" fill="black"/>
<path d="M97.8423 44.3878H98.3679V47.1689C98.3679 48.0776 99.0041 48.642 100.18 48.642C101.355 48.642 101.992 48.0913 101.992 47.1689V44.3878H102.517V47.1689C102.517 48.2841 101.729 48.9862 100.18 48.9862C98.6445 48.9862 97.8423 48.2841 97.8423 47.1689V44.3878Z" fill="black"/>
<path d="M104.509 45.0073V48.9036H103.997V44.3878H104.523L108.271 48.229V44.3878H108.783V48.9036H108.285L104.509 45.0073Z" fill="black"/>
<path d="M110.263 44.3878H112.171C114.025 44.3878 115.187 45.4066 115.187 46.6457C115.187 47.8986 114.025 48.9036 112.171 48.9036H110.263V44.3878ZM112.171 48.5594C113.748 48.5594 114.661 47.7196 114.661 46.6595C114.661 45.5993 113.762 44.7457 112.171 44.7457H110.774V48.5594H112.171Z" fill="black"/>
<path d="M119.862 47.7884H116.681L116.086 48.9036H115.505L117.953 44.3878H118.589L121.037 48.9036H120.47L119.862 47.7884ZM116.833 47.4442H119.696L118.257 44.7733L116.833 47.4442Z" fill="black"/>
<path d="M122.822 44.7457H120.872V44.3878H125.298V44.7457H123.347V48.9174H122.822V44.7457Z" fill="black"/>
<path d="M126.349 44.3878H126.86V48.9036H126.349V44.3878Z" fill="black"/>
<path d="M131.024 44.3189C132.766 44.3189 133.928 45.3377 133.928 46.6595C133.928 47.9812 132.766 49 131.024 49C129.267 49 128.119 47.9812 128.119 46.6595C128.119 45.324 129.267 44.3189 131.024 44.3189ZM131.024 44.6631C129.571 44.6631 128.659 45.5029 128.659 46.6457C128.659 47.7884 129.571 48.6283 131.024 48.6283C132.462 48.6283 133.389 47.7747 133.389 46.6457C133.389 45.5029 132.462 44.6631 131.024 44.6631Z" fill="black"/>
<path d="M135.712 45.0073V48.9036H135.201V44.3878H135.726L139.475 48.229V44.3878H139.986V48.9036H139.488L135.712 45.0073Z" fill="black"/>
<path d="M38.271 31.7625L39.3775 35.1632L40.4978 38.5914C42.6555 36.2096 44.3153 33.3872 45.3388 30.2618L41.798 31.0053L38.271 31.7625Z" fill="#1BA266"/>
<path d="M26.8463 40.0233L25.0482 43.1211L23.2363 46.2464C26.5973 46.2464 29.8062 45.5305 32.6831 44.2501L29.7509 42.1298L26.8463 40.0233Z" fill="#1BA266"/>
<path d="M33.4437 37.1045L33.0702 40.6704L32.6968 44.25C35.6843 42.9283 38.3399 40.987 40.5114 38.5914L36.9706 37.848L33.4437 37.1045Z" fill="#1BA266"/>
<path d="M8.20205 31.7626L4.67508 31.0191L1.13428 30.2756C2.15779 33.3872 3.81754 36.2234 5.97522 38.6052L7.09555 35.177L8.20205 31.7626Z" fill="#49B585"/>
<path d="M40.498 24.9337L42.9047 27.5909L45.3252 30.2756C46.0582 28.0314 46.4593 25.6221 46.4593 23.1301C46.4593 22.3178 46.4178 21.5054 46.3348 20.7069L43.4026 22.8272L40.498 24.9337Z" fill="#49B585"/>
<path d="M39.751 17.7882L43.0428 19.2476L46.3485 20.707C46.0027 17.4027 44.9654 14.3049 43.3609 11.5651L41.549 14.6904L39.751 17.7882Z" fill="#49B585"/>
<path d="M13.0292 37.1045L9.50223 37.848L5.96143 38.5914C8.1191 40.987 10.7885 42.9146 13.7761 44.25L13.4026 40.6704L13.0292 37.1045Z" fill="#49B585"/>
<path d="M19.6265 40.0233L16.7081 42.1298L13.7759 44.2501C16.6666 45.5305 19.8616 46.2464 23.2226 46.2464L21.4107 43.1211L19.6265 40.0233Z" fill="#49B585"/>
<path d="M26.8467 40.0233L29.7512 42.1298L32.6835 44.25L33.0569 40.6704L33.4304 37.1045C31.494 38.5088 29.2672 39.5139 26.8467 40.0233Z" fill="#49B585"/>
<path d="M38.2714 31.7626C37.0543 33.8553 35.3945 35.6727 33.4443 37.0908V37.1045L36.9713 37.848L40.5121 38.5915L39.3918 35.1632L38.2714 31.7626Z" fill="#49B585"/>
<path d="M30.2903 7.33826L29.1838 3.92382L28.0634 0.495605L25.643 3.16658L23.2363 5.82379C25.7536 5.85132 28.1326 6.38827 30.2903 7.33826Z" fill="#D1ECE0"/>
<path d="M23.2227 5.85135L20.8161 3.18037L18.4095 0.509399L17.2891 3.93761L16.1826 7.33828C18.3265 6.3883 20.7193 5.85135 23.2227 5.85135Z" fill="#D1ECE0"/>
<path d="M10.332 11.565C11.9503 9.77515 13.942 8.32952 16.1688 7.33823L12.877 5.87883L9.57129 4.41943L9.94473 7.99909L10.332 11.565Z" fill="#D1ECE0"/>
<path d="M10.3322 11.565L6.7361 11.5513H3.1123L4.9242 14.6766L6.72226 17.7744C7.48298 15.4614 8.7278 13.3411 10.3322 11.565Z" fill="#D1ECE0"/>
<path d="M0.124512 20.7069L3.05674 22.8271L5.97513 24.9336C5.91981 24.3416 5.87831 23.7358 5.87831 23.13C5.87831 21.2714 6.1826 19.4678 6.72202 17.7881L3.43018 19.2475L0.124512 20.7069Z" fill="#D1ECE0"/>
<path d="M10.3321 11.5651L9.95862 7.99921L9.58517 4.41956C6.95723 6.31953 4.75807 8.75645 3.12598 11.5651H6.74977H10.3321Z" fill="#A4DAC2"/>
<path d="M3.43018 19.2476L6.72202 17.7882L4.92396 14.6904L3.11206 11.5789C1.52147 14.3187 0.470293 17.4165 0.124512 20.7208L3.43018 19.2476Z" fill="#A4DAC2"/>
<path d="M16.1688 7.33828L17.2753 3.93761L18.3956 0.509399C15.1591 1.19779 12.1577 2.54705 9.57129 4.41949L12.877 5.87888L16.1688 7.33828Z" fill="#A4DAC2"/>
<path d="M23.2368 5.83759L25.6434 3.18039L28.0639 0.495645C26.501 0.165215 24.8965 0 23.2368 0C21.577 0 19.9588 0.178983 18.4097 0.495645L20.8301 3.18039L23.2368 5.83759Z" fill="#A4DAC2"/>
<path d="M39.7374 17.7882L41.5355 14.6904L43.3474 11.5651H39.7236H36.1274V11.5788C37.7457 13.3411 38.9767 15.4614 39.7374 17.7882Z" fill="#A4DAC2"/>
<path d="M30.2905 7.33835C32.5174 8.32964 34.5091 9.77527 36.1273 11.5651H36.1412L36.5146 7.99921L36.888 4.41956L33.5824 5.87896L30.2905 7.33835Z" fill="#A4DAC2"/>
<path d="M5.97522 24.9337L3.56858 27.5909L1.13428 30.2757L4.67508 31.0191L8.20205 31.7626C7.01256 29.7112 6.23801 27.3982 5.97522 24.9337Z" fill="#A4DAC2"/>
<path d="M13.029 37.1045C11.065 35.6727 9.41908 33.8553 8.20193 31.7626L7.09543 35.1632L5.9751 38.5915L9.5159 37.848L13.029 37.1045Z" fill="#A4DAC2"/>
<path d="M5.9751 24.9337L3.05671 22.8272L0.124482 20.7069C0.041494 21.5054 0 22.304 0 23.1301C0 25.6221 0.401106 28.0314 1.13416 30.2756L3.55463 27.5909L5.9751 24.9337Z" fill="#76C7A3"/>
<path d="M36.1411 11.565H39.7372H43.361C41.7289 8.75633 39.5159 6.31941 36.9018 4.41943L36.5284 7.99909L36.1411 11.565Z" fill="#76C7A3"/>
<path d="M30.2903 7.33828L33.5822 5.87888L36.8878 4.41949C34.3014 2.54705 31.3 1.18403 28.0635 0.509399L29.1838 3.93761L30.2903 7.33828Z" fill="#76C7A3"/>
<path d="M26.8464 40.0233C25.6846 40.2711 24.4674 40.3951 23.2364 40.3951C22.0054 40.3951 20.7883 40.2711 19.6265 40.0233L21.4245 43.1211L23.2364 46.2464L25.0483 43.1211L26.8464 40.0233Z" fill="#76C7A3"/>
<path d="M38.271 31.7625L41.798 31.019L45.3388 30.2756L42.9183 27.6046L40.5117 24.9474C40.235 27.3981 39.4605 29.7111 38.271 31.7625Z" fill="#76C7A3"/>
<path d="M40.5948 23.13C40.5948 23.7358 40.5672 24.3416 40.498 24.9336L43.4164 22.8271L46.3486 20.7069L43.0291 19.2475L39.7373 17.7881C40.2906 19.4678 40.5948 21.2576 40.5948 23.13Z" fill="#76C7A3"/>
<path d="M13.043 37.1045L13.4164 40.6704L13.7899 44.25L16.7221 42.1298L19.6405 40.0233C17.2062 39.5139 14.9655 38.5088 13.043 37.1045Z" fill="#76C7A3"/>
<path d="M112.42 5.92029H140V12.1985H119.765V19.6607H140V25.9388H119.765V40.2437H112.42V5.92029Z" fill="black"/>
<path d="M75.7124 5.92029H89.3085C100.111 5.92029 107.621 12.7629 107.621 23.1164C107.621 33.4699 100.125 40.2575 89.3085 40.2575H75.7124V5.92029ZM89.2532 34.0619C96.238 34.0619 100.304 29.0641 100.304 23.1164C100.304 16.9071 96.5008 12.1158 89.2532 12.1158H82.8632V34.0619H89.2532Z" fill="black"/>
<path d="M68.5203 24.5896C67.2063 23.4331 65.3253 22.6483 62.9186 22.2491C64.9103 21.657 66.5009 20.7208 67.6766 19.4542C69.0735 17.9672 69.7651 16.1223 69.7651 14.0021C69.7651 11.4412 68.6448 9.41736 66.4318 7.98549C64.2603 6.58117 61.2727 5.86523 57.5521 5.86523C53.7623 5.86523 50.3737 6.65001 47.4553 8.17824C48.6033 10.0094 49.53 11.9782 50.2354 14.0571C51.4248 13.3825 52.5313 12.8869 53.541 12.5977C54.7167 12.2398 55.8923 12.0746 57.0265 12.0746C60.2354 12.0746 61.7983 13.2035 61.7983 15.5303C61.7983 17.0585 61.2174 18.0911 60.0417 18.7245C58.8107 19.3716 56.8329 19.702 54.1358 19.702H51.5217C51.66 20.8172 51.7291 21.9599 51.7291 23.1164C51.7291 23.9563 51.6876 24.7961 51.6185 25.6084H54.0804C57.0127 25.6084 59.1565 25.9251 60.4705 26.5446C61.743 27.1504 62.3515 28.1417 62.3515 29.5873C62.3515 31.2257 61.8121 32.3822 60.7056 33.1119C59.5714 33.8554 57.7734 34.2409 55.3667 34.2409C53.7762 34.2409 52.1441 34.0344 50.5258 33.6351C50.2768 33.5663 50.0279 33.5112 49.7789 33.4424C49.0182 35.3836 48.0362 37.2285 46.8882 38.9358C49.6406 39.872 52.7526 40.3401 56.1828 40.3401C60.8301 40.3401 64.4677 39.4314 66.985 37.6416C69.53 35.8242 70.8301 33.2496 70.8301 30.0004C70.8439 27.7562 70.0555 25.9251 68.5203 24.5896Z" fill="black"/>
<path d="M23.2366 5.83765C13.6516 5.83765 5.87842 13.5752 5.87842 23.1164C5.87842 32.6575 13.6516 40.3951 23.2366 40.3951C32.8217 40.3951 40.5949 32.6575 40.5949 23.1164C40.5949 13.5752 32.8217 5.83765 23.2366 5.83765ZM23.2366 34.3235C17.0264 34.3235 11.978 29.3119 11.978 23.1164C11.978 16.9208 17.0126 11.9093 23.2366 11.9093C29.4607 11.9093 34.4953 16.9208 34.4953 23.1164C34.4953 29.3119 29.4469 34.3235 23.2366 34.3235Z" fill="black"/>
</svg>
