<svg width="198" height="61" viewBox="0 0 198 61" fill="none" xmlns="http://www.w3.org/2000/svg">
<path d="M78.7869 17.6123V26.6926C78.7869 28.8944 76.999 30.6824 74.8309 30.6824C72.6627 30.6824 70.8411 28.8944 70.8411 26.6926V17.6123C70.8411 15.4461 72.6291 13.6562 74.8309 13.6562C77.0326 13.6562 78.7869 15.4441 78.7869 17.6123ZM76.5852 17.6123C76.5852 16.65 75.7932 15.858 74.8309 15.858C73.8686 15.858 73.0429 16.648 73.0429 17.6123V26.6926C73.0429 27.6906 73.8349 28.4806 74.8309 28.4806C75.8268 28.4806 76.5852 27.6886 76.5852 26.6926V17.6123Z" fill="white"/>
<path d="M89.5503 14.2403V24.9363C89.5503 25.7283 89.3088 26.4847 88.8969 27.1381L87.0397 30.4051C86.9367 30.5774 86.7645 30.6804 86.5585 30.6804H84.632C84.4261 30.6804 84.2538 30.5774 84.1508 30.4051L82.2936 27.1381C81.8817 26.4847 81.6402 25.7283 81.6402 24.9363V14.2403C81.6402 13.9314 81.8817 13.6898 82.1906 13.6898H83.2915C83.6004 13.6898 83.8419 13.9314 83.8419 14.2403V24.9363C83.8419 25.1423 83.8756 25.3145 83.9449 25.4868L85.5962 28.4449L87.2812 25.4868C87.3149 25.3145 87.3505 25.1423 87.3505 24.9363V14.2403C87.3505 13.9314 87.6258 13.6898 87.901 13.6898H89.0019C89.3108 13.6898 89.5523 13.9314 89.5523 14.2403H89.5503Z" fill="white"/>
<path d="M94.641 15.858V21.0516H97.6328C97.9417 21.0516 98.1832 21.2931 98.1832 21.602V22.7029C98.1832 23.0118 97.9417 23.2533 97.6328 23.2533H94.641V28.4806H97.6328C97.9417 28.4806 98.1832 28.7222 98.1832 29.031V30.1319C98.1832 30.4408 97.9417 30.6824 97.6328 30.6824H93.5401C92.9203 30.6824 92.4392 30.1656 92.4392 29.5815V14.7571C92.4392 14.1373 92.9203 13.6562 93.5401 13.6562H97.6328C97.9417 13.6562 98.1832 13.8978 98.1832 14.2066V15.3075C98.1832 15.6164 97.9417 15.858 97.6328 15.858H94.641Z" fill="white"/>
<path d="M108.776 19.2636C108.776 20.3982 108.329 21.4297 107.572 22.1525C108.329 22.8752 108.776 23.8731 108.776 25.0076V30.1319C108.776 30.4072 108.535 30.6824 108.226 30.6824H107.125C106.816 30.6824 106.575 30.4072 106.575 30.1319V25.0076C106.575 24.0454 105.783 23.2533 104.82 23.2533H103.066V30.1319C103.066 30.4072 102.791 30.6824 102.516 30.6824H101.415C101.106 30.6824 100.864 30.4072 100.864 30.1319V14.7571C100.864 14.1373 101.345 13.6562 101.965 13.6562H104.82C107.022 13.6562 108.776 15.4441 108.776 17.6123V19.2636ZM106.575 17.6123C106.575 16.65 105.783 15.858 104.82 15.858H103.066V21.0516H104.82C105.783 21.0516 106.575 20.2615 106.575 19.2636V17.6123Z" fill="white"/>
<path d="M116.653 14.2066V15.3075C116.653 15.6164 116.411 15.858 116.102 15.858H114.554V30.1319C114.554 30.4072 114.312 30.6824 114.004 30.6824H112.903C112.594 30.6824 112.352 30.4072 112.352 30.1319V15.858H110.804C110.495 15.858 110.253 15.6164 110.253 15.3075V14.2066C110.253 13.8978 110.495 13.6562 110.804 13.6562H116.1C116.409 13.6562 116.651 13.8978 116.651 14.2066H116.653Z" fill="white"/>
<path d="M127.107 14.2066V26.6907C127.107 28.8924 125.319 30.6804 123.151 30.6804C120.983 30.6804 119.162 28.8924 119.162 26.6907V14.2066C119.162 13.8978 119.437 13.6562 119.712 13.6562H120.813C121.122 13.6562 121.363 13.8978 121.363 14.2066V26.6907C121.363 27.6886 122.155 28.4786 123.151 28.4786C124.147 28.4786 124.906 27.6866 124.906 26.6907V14.2066C124.906 13.8978 125.147 13.6562 125.456 13.6562H126.557C126.866 13.6562 127.107 13.8978 127.107 14.2066Z" fill="white"/>
<path d="M137.698 19.2636C137.698 20.3982 137.251 21.4297 136.495 22.1525C137.251 22.8752 137.698 23.8731 137.698 25.0076V30.1319C137.698 30.4072 137.457 30.6824 137.148 30.6824H136.047C135.738 30.6824 135.497 30.4072 135.497 30.1319V25.0076C135.497 24.0454 134.705 23.2533 133.742 23.2533H131.988V30.1319C131.988 30.4072 131.713 30.6824 131.438 30.6824H130.337C130.028 30.6824 129.786 30.4072 129.786 30.1319V14.7571C129.786 14.1373 130.267 13.6562 130.887 13.6562H133.742C135.944 13.6562 137.698 15.4441 137.698 17.6123V19.2636ZM135.497 17.6123C135.497 16.65 134.705 15.858 133.742 15.858H131.988V21.0516H133.742C134.705 21.0516 135.497 20.2615 135.497 19.2636V17.6123Z" fill="white"/>
<path d="M142.755 15.858V21.0516H145.747C146.056 21.0516 146.298 21.2931 146.298 21.602V22.7029C146.298 23.0118 146.056 23.2533 145.747 23.2533H142.755V28.4806H145.747C146.056 28.4806 146.298 28.7222 146.298 29.031V30.1319C146.298 30.4408 146.056 30.6824 145.747 30.6824H141.655C141.035 30.6824 140.554 30.1656 140.554 29.5815V14.7571C140.554 14.1373 141.035 13.6562 141.655 13.6562H145.747C146.056 13.6562 146.298 13.8978 146.298 14.2066V15.3075C146.298 15.6164 146.056 15.858 145.747 15.858H142.755Z" fill="white"/>
<path d="M166.706 17.3984V29.9181C166.706 30.1933 166.464 30.4685 166.155 30.4685H165.054C164.746 30.4685 164.504 30.1933 164.504 29.9181V17.3984C164.504 16.4361 163.712 15.6441 162.716 15.6441C161.72 15.6441 160.962 16.4341 160.962 17.3984V29.9181C160.962 30.1933 160.72 30.4685 160.411 30.4685H159.31C159.002 30.4685 158.76 30.1933 158.76 29.9181V17.3984C158.76 16.4361 157.968 15.6441 157.006 15.6441C156.043 15.6441 155.218 16.4341 155.218 17.3984V29.9181C155.218 30.1933 154.976 30.4685 154.667 30.4685H153.566C153.291 30.4685 153.016 30.1933 153.016 29.9181V17.3984C153.016 15.2323 154.804 13.4423 157.006 13.4423C158.107 13.4423 159.138 13.9235 159.861 14.6798C160.584 13.9235 161.615 13.4423 162.716 13.4423C164.918 13.4423 166.706 15.2303 166.706 17.3984Z" fill="white"/>
<path d="M177.505 17.4321V29.9161C177.505 30.225 177.263 30.4666 176.954 30.4666H175.853C175.545 30.4666 175.303 30.225 175.303 29.9161V23.0712H171.761V29.9161C171.761 30.225 171.519 30.4666 171.21 30.4666H170.109C169.801 30.4666 169.559 30.225 169.559 29.9161V17.4321C169.559 15.266 171.347 13.476 173.549 13.476C175.75 13.476 177.505 15.264 177.505 17.4321ZM175.303 17.4321C175.303 16.4698 174.511 15.6778 173.549 15.6778C172.586 15.6778 171.761 16.4678 171.761 17.4321V20.8714H175.303V17.4321Z" fill="white"/>
<path d="M188.304 17.3984V19.0498C188.304 21.2516 186.516 23.0395 184.348 23.0395H182.56V29.9181C182.56 30.1933 182.318 30.4685 182.009 30.4685H180.908C180.633 30.4685 180.358 30.1933 180.358 29.9181V13.9948C180.358 13.6859 180.633 13.4443 180.908 13.4443H184.348C186.514 13.4443 188.304 15.2323 188.304 17.4004V17.3984ZM186.102 17.3984C186.102 16.4361 185.31 15.6441 184.348 15.6441H182.56V20.8377H184.348C185.31 20.8377 186.102 20.0477 186.102 19.0498V17.3984Z" fill="white"/>
<path d="M195.8 18.5686V17.4004C195.8 16.4381 195.01 15.6461 194.046 15.6461C193.082 15.6461 192.292 16.4361 192.292 17.4004C192.292 17.6987 192.326 17.8934 192.395 17.9845L197.174 24.3127C197.725 25.0466 198 25.7805 198 26.5144C198 28.6806 196.212 30.4705 194.044 30.4705C191.876 30.4705 190.088 28.6826 190.088 26.5144V25.3443C190.088 25.0354 190.329 24.7938 190.638 24.7938H191.739C192.048 24.7938 192.29 25.0354 192.29 25.3443V26.5144C192.29 27.4767 193.082 28.2687 194.044 28.2687C195.006 28.2687 195.798 27.4767 195.798 26.5144C195.798 26.2161 195.764 26.0214 195.695 25.9303L190.913 19.6022C190.363 18.8683 190.088 18.1343 190.088 17.4004C190.088 15.2343 191.876 13.4443 194.044 13.4443C196.212 13.4443 198 15.2323 198 17.4004V18.5686C198 18.8775 197.758 19.1191 197.45 19.1191H196.349C196.04 19.1191 195.798 18.8775 195.798 18.5686H195.8Z" fill="white"/>
<path d="M71.8728 46.2434V37.6243H77.5198V38.5807H72.946V41.3586H77.4287V42.315H72.946V46.2434H71.8728Z" fill="white"/>
<path d="M80.2978 41.9407C80.2978 39.3944 82.0283 37.4837 84.5746 37.4837C87.1209 37.4837 88.8653 39.3964 88.8653 41.9407C88.8653 44.4851 87.1209 46.3978 84.5746 46.3978C82.0283 46.3978 80.2978 44.4851 80.2978 41.9407ZM87.7526 41.9407C87.7526 39.9251 86.4992 38.4381 84.5746 38.4381C82.6501 38.4381 81.4086 39.9231 81.4086 41.9407C81.4086 43.9584 82.6362 45.4434 84.5746 45.4434C86.5131 45.4434 87.7526 43.9445 87.7526 41.9407Z" fill="white"/>
<path d="M92.1878 42.8971V37.6243H93.2729V42.8694C93.2729 44.4455 94.1124 45.4414 95.7023 45.4414C97.2923 45.4414 98.1437 44.4475 98.1437 42.8694V37.6243H99.2288V42.8833C99.2288 45.0276 98.0407 46.3978 95.7004 46.3978C93.36 46.3978 92.1858 45.0157 92.1858 42.8951L92.1878 42.8971Z" fill="white"/>
<path d="M109 46.2434L103.973 39.3687V46.2434H102.9V37.6243H103.999L108.961 44.3564V37.6243H110.034V46.2434H109Z" fill="white"/>
<path d="M113.705 46.2434V37.6243H116.651C119.338 37.6243 121.07 39.4974 121.07 41.9408C121.07 44.3841 119.34 46.2434 116.651 46.2434H113.705ZM119.96 41.9408C119.96 40.0796 118.783 38.5807 116.651 38.5807H114.778V45.287H116.651C118.744 45.287 119.96 43.7881 119.96 41.9408Z" fill="white"/>
<path d="M130.077 46.2434L129.315 44.3188H125.024L124.262 46.2434H123.035L126.509 37.6243H127.84L131.303 46.2434H130.075H130.077ZM127.171 38.7232L125.349 43.3743H129.006L127.171 38.7232Z" fill="white"/>
<path d="M135.35 46.2434V38.5807H132.624V37.6243H139.162V38.5807H136.423V46.2434H135.35Z" fill="white"/>
<path d="M142.239 46.2434V37.6243H143.312V46.2434H142.239Z" fill="white"/>
<path d="M146.632 41.9407C146.632 39.3944 148.363 37.4837 150.909 37.4837C153.456 37.4837 155.2 39.3964 155.2 41.9407C155.2 44.4851 153.456 46.3978 150.909 46.3978C148.363 46.3978 146.632 44.4851 146.632 41.9407ZM154.087 41.9407C154.087 39.9251 152.834 38.4381 150.909 38.4381C148.985 38.4381 147.743 39.9231 147.743 41.9407C147.743 43.9584 148.971 45.4434 150.909 45.4434C152.848 45.4434 154.087 43.9445 154.087 41.9407Z" fill="white"/>
<path d="M164.621 46.2434L159.594 39.3687V46.2434H158.52V37.6243H159.619L164.581 44.3564V37.6243H165.654V46.2434H164.621Z" fill="white"/>
<path d="M54.112 44.2495L56.0544 45.2415C56.0009 45.3464 55.9811 45.4632 55.9811 45.59C55.9811 45.9068 56.1613 46.18 56.4127 46.3186L53.7536 47.5324C53.8169 47.4155 53.8486 47.2888 53.8486 47.1522C53.8486 46.6988 53.4803 46.3285 53.0249 46.3285C52.5695 46.3285 52.2012 46.6968 52.2012 47.1522C52.2012 47.5423 52.4765 47.869 52.8348 47.9541L50.0173 49.2411C49.9321 49.1144 49.7856 49.0194 49.6153 49.0194C49.352 49.0194 49.1302 49.2411 49.1302 49.5045C49.1302 49.546 49.1401 49.5896 49.152 49.6312L36.4145 55.4346C36.373 55.0228 36.0126 54.6961 35.5909 54.6961C35.1374 54.6961 34.7672 55.0644 34.7672 55.5198C34.7672 55.7316 34.8523 55.9316 34.9889 56.0781L31.5912 57.6285L25.6393 54.4525C25.7878 54.304 25.8709 54.104 25.8709 53.8823C25.8709 53.4289 25.5027 53.0586 25.0472 53.0586C24.6453 53.0586 24.3186 53.3338 24.2453 53.712L18.4835 50.6212C18.927 50.5994 19.2755 50.241 19.2755 49.7975C19.2755 49.354 18.9072 48.9738 18.4518 48.9738C17.9964 48.9738 17.6281 49.3421 17.6281 49.7975C17.6281 49.9559 17.6697 50.1024 17.7548 50.2291L13.9037 48.16C13.9888 48.0749 14.0403 47.9482 14.0403 47.8214C14.0403 47.5581 13.8186 47.3363 13.5552 47.3363C13.3236 47.3363 13.1236 47.5046 13.08 47.7264L8.95365 45.5108C9.20709 45.3741 9.37539 45.0989 9.37539 44.794C9.37539 44.3406 9.00711 43.9703 8.5517 43.9703C8.0963 43.9703 7.72801 44.3386 7.72801 44.794V44.8574L5.75591 43.802L7.76167 42.9367C7.83494 43.1169 8.00522 43.2318 8.2151 43.2318C8.47844 43.2318 8.7002 43.01 8.7002 42.7467C8.7002 42.6734 8.67842 42.61 8.65862 42.5467L8.84871 42.4615L6.15786 41.0161L0.231659 43.5327L31.4764 60.3015L62.8062 46.0256L56.8761 42.9862L54.112 44.2515V44.2495Z" fill="white"/>
<path d="M40.3726 51.7082C40.3726 52.1636 40.0043 52.5319 39.5489 52.5319C39.0935 52.5319 38.7252 52.1636 38.7252 51.7082C38.7252 51.2528 39.0935 50.8845 39.5489 50.8845C40.0043 50.8845 40.3726 51.2528 40.3726 51.7082Z" fill="white"/>
<path d="M46.0493 50.338C46.0493 50.7934 45.681 51.1617 45.2256 51.1617C44.7702 51.1617 44.4019 50.7934 44.4019 50.338C44.4019 49.8826 44.7702 49.5143 45.2256 49.5143C45.681 49.5143 46.0493 49.8826 46.0493 50.338Z" fill="white"/>
<path d="M49.6054 47.3304C49.6054 47.7858 49.2372 48.1541 48.7818 48.1541C48.3264 48.1541 47.9581 47.7858 47.9581 47.3304C47.9581 46.875 48.3264 46.5067 48.7818 46.5067C49.2372 46.5067 49.6054 46.875 49.6054 47.3304Z" fill="white"/>
<path d="M30.5062 54.706C30.5062 55.1614 30.1379 55.5296 29.6825 55.5296C29.2271 55.5296 28.8588 55.1614 28.8588 54.706C28.8588 54.2505 29.2271 53.8823 29.6825 53.8823C30.1379 53.8823 30.5062 54.2505 30.5062 54.706Z" fill="white"/>
<path d="M12.9573 45.1979C13.179 45.1979 13.3889 45.1127 13.5374 44.9662L12.1455 44.2178C12.1356 44.2712 12.1356 44.3227 12.1356 44.3762C12.1356 44.8296 12.5038 45.1979 12.9592 45.1979H12.9573Z" fill="white"/>
<path d="M23.0138 50.9498C23.3523 50.9498 23.6474 50.7498 23.7741 50.4548L22.3188 49.6747C22.2336 49.8014 22.192 49.9598 22.192 50.1182C22.192 50.5835 22.5603 50.9518 23.0157 50.9518L23.0138 50.9498Z" fill="white"/>
<path d="M15.2263 46.972C15.2263 47.4254 15.5946 47.7957 16.05 47.7957C16.5054 47.7957 16.8737 47.4274 16.8737 46.972C16.8737 46.8869 16.8638 46.8136 16.842 46.7285L15.8085 46.18C15.4719 46.275 15.2283 46.5918 15.2283 46.972H15.2263Z" fill="white"/>
<path d="M57.0859 36.0185L54.9436 37.0006L54.31 37.2857L53.8447 37.4976L54.7099 40.03L52.621 40.9804L51.7557 38.448L50.6588 38.943L51.5241 41.4754L49.6985 42.309L48.8332 39.7766L47.7363 40.2716L48.6016 42.804L46.5126 43.7544L45.6474 41.222L44.5504 41.717L45.4157 44.2494L43.2515 45.2315L42.3863 42.6991L41.2893 43.1941L42.1546 45.7265L40.329 46.5601L39.4638 44.0277L38.3668 44.5227L39.2321 47.0551L37.1432 48.0055L36.2779 45.4731L35.181 45.9681L36.0463 48.5006L34.1791 49.344L33.3138 46.8116L32.2169 47.3066L33.0822 49.839L31.5615 50.536L31.0348 50.2509L29.9696 47.1185L28.4192 46.2849L29.4845 49.4193L27.0154 48.1204L25.9501 44.986L24.3998 44.1524L25.465 47.2868L22.8791 45.8948L21.8238 42.7704L20.2734 41.9368L21.3387 45.0712L18.9013 43.7624L17.836 40.628L16.2857 39.7944L17.3509 42.9288L14.765 41.5368L13.6998 38.4025L12.1494 37.5689L13.2146 40.7032L10.7139 39.3628L9.63675 36.2284L8.37152 35.5532L8.0864 35.3948L5.68067 34.1078L0.231659 36.462L31.4764 53.2308L62.8062 38.9549L57.0879 36.0205L57.0859 36.0185ZM8.1656 35.6502L9.14769 38.5411L5.72819 36.7056L8.1656 35.6502ZM55.2069 37.7391L57.3394 38.8361L55.8187 39.533L55.2069 37.7391Z" fill="white"/>
<path d="M37.4184 53.2388C37.4184 53.8862 36.4482 53.8862 36.4482 53.2388C36.4482 52.5913 37.4184 52.5913 37.4184 53.2388Z" fill="white"/>
<path d="M33.2188 55.6762C33.2188 56.3236 32.2486 56.3236 32.2486 55.6762C32.2486 55.0287 33.2188 55.0287 33.2188 55.6762Z" fill="white"/>
<path d="M21.2001 50.6113C21.2001 51.2587 20.2299 51.2587 20.2299 50.6113C20.2299 49.9638 21.2001 49.9638 21.2001 50.6113Z" fill="white"/>
<path d="M24.8928 51.7082C24.8928 52.3557 23.9226 52.3557 23.9226 51.7082C23.9226 51.0607 24.8928 51.0607 24.8928 51.7082Z" fill="white"/>
<path d="M11.4584 45.4929C11.4584 46.1404 10.4882 46.1404 10.4882 45.4929C10.4882 44.8455 11.4584 44.8455 11.4584 45.4929Z" fill="white"/>
<path d="M43.0634 51.5834C43.0634 52.2309 42.0932 52.2309 42.0932 51.5834C42.0932 50.936 43.0634 50.936 43.0634 51.5834Z" fill="white"/>
<path d="M47.0314 48.3422C47.0314 48.9896 46.0612 48.9896 46.0612 48.3422C46.0612 47.6947 47.0314 47.6947 47.0314 48.3422Z" fill="white"/>
<path d="M27.8371 53.0486C27.8371 53.6961 26.8669 53.6961 26.8669 53.0486C26.8669 52.4012 27.8371 52.4012 27.8371 53.0486Z" fill="white"/>
<path fill-rule="evenodd" clip-rule="evenodd" d="M38.3688 3.20169C44.2198 5.67474 48.3184 11.4623 48.3184 18.2221C48.3184 22.3802 46.7661 26.1679 44.2099 29.0449C43.8792 28.4172 43.4693 27.1995 44.0356 25.5343C44.6989 23.588 43.5584 21.0991 42.1982 20.0695C41.426 19.4834 40.2082 20.212 39.4836 20.3348C37.9966 20.5942 37.0858 19.8794 36.3155 17.7964C35.0384 14.3492 37.5412 12.4563 38.9826 11.8247C40.4201 11.1911 41.7705 10.209 42.6872 10.6664C43.301 10.9693 43.4218 11.69 43.6297 11.8603C44.2158 12.3415 44.8732 12.6028 45.5602 12.0187C46.4908 11.2247 43.9208 8.73783 42.3863 8.86455C40.6498 9.00513 40.529 9.78328 39.6043 10.3496C38.6737 10.9178 37.1174 10.9475 37.3055 9.4645C37.5372 7.63892 39.7429 9.29025 39.145 7.18945C38.545 5.50842 39.9588 6.92413 40.5567 6.0846C41.1547 5.24507 40.03 4.67087 39.3984 5.31239C38.7707 5.9559 37.9688 5.31635 38.252 3.76798C38.3173 3.41355 38.3411 3.31851 38.3668 3.19971L38.3688 3.20169ZM25.9462 3.09477C26.0749 3.6373 26.4035 4.76987 26.9203 5.15003C27.6094 5.65494 27.9539 6.66475 27.0926 7.06075C26.2293 7.4528 25.8986 7.66268 26.459 7.90028C27.0173 8.13986 26.6035 9.23481 25.7838 8.95365C24.9641 8.67249 23.9721 8.25272 23.9008 9.13581C23.8295 10.0209 23.2335 11.0426 22.786 11.5475C22.3386 12.0544 21.901 12.2405 22.0574 12.9256C22.2158 13.6146 21.7782 14.1492 21.5129 13.5592C21.2476 12.9691 20.1784 12.9137 19.4992 13.5711C19.4992 13.5711 17.6301 15.6758 18.6082 15.8758C19.822 16.1273 21.2238 16.2124 21.5961 17.5331C21.8416 18.3904 22.3999 19.1032 23.5226 18.626C24.6433 18.1489 26.0254 18.0518 27.1243 19.1626C28.2232 20.2734 28.9875 18.9825 30.1517 21.5664C31.3714 23.194 34.4721 20.4853 32.7772 25.5165C31.7219 28.6509 30.4962 27.1025 30.219 28.4469C29.7636 30.6428 26.4352 33.498 26.4352 33.498L23.9543 32.3496C23.9543 32.3496 25.0908 27.3441 23.9543 26.4313C22.8138 25.5165 21.5723 22.796 21.8792 21.5268C22.1821 20.2556 22.8969 19.8398 21.2278 18.927C19.5606 18.0142 19.8655 17.141 18.6042 16.844C17.5806 16.5985 16.2579 16.8401 15.7768 16.941C15.8184 16.4045 15.8857 15.8778 15.9807 15.3551L16.6262 12.8681C18.1706 8.41508 21.5901 4.84511 25.9442 3.09675L25.9462 3.09477ZM32.0228 0C21.9683 0 13.7987 8.17154 13.7987 18.2221C13.7987 28.2727 21.9703 36.4462 32.0228 36.4462C42.0754 36.4462 50.245 28.2747 50.245 18.2221C50.245 8.16956 42.0734 0 32.0228 0Z" fill="white"/>
<path d="M49.0926 25.6274C49.0273 25.7897 48.956 25.9481 48.8867 26.1085C48.8629 26.16 48.8392 26.2135 48.8154 26.2649C48.5818 26.7778 48.3263 27.2767 48.0491 27.7638L57.078 32.1258L31.3398 43.8059L5.50842 29.9399L14.862 25.8194C14.8561 25.8056 14.8501 25.7917 14.8442 25.7759C14.7531 25.5581 14.666 25.3383 14.5828 25.1146C14.5413 25.0057 14.5036 24.8968 14.464 24.7859C14.4264 24.6809 14.3928 24.576 14.3571 24.4711C14.2522 24.1542 14.1532 23.8355 14.0641 23.5107L0 29.7082L7.08055 33.5079L9.7714 34.9533L11.5653 35.9235L13.1157 36.7571L15.7016 38.149L17.2519 38.9826L19.6893 40.2914L21.2397 41.125L23.8256 42.517L25.3759 43.3505L27.8569 44.6811L29.4073 45.5147L31.2427 46.4968L31.8328 46.2216L32.9297 45.7266L34.787 44.8831L35.8839 44.3881L37.9728 43.4377L39.0698 42.9427L40.8953 42.1091L41.9923 41.6141L44.1564 40.632L45.2534 40.137L47.3423 39.1866L48.4392 38.6916L50.2648 37.858L51.3617 37.363L52.9438 36.6462L53.4506 36.4145L54.5476 35.9195L55.7197 35.381L62.5686 32.2565L49.0867 25.6313L49.0926 25.6274Z" fill="white"/>
</svg>
