<svg id="svg2" xmlns="http://www.w3.org/2000/svg" viewBox="0 0 1056 326.0789"><defs><style>.cls-1{fill:none;}.cls-2{fill:#fff;}</style></defs><path class="cls-1" d="M802.428,263.07563a7.6741,7.6741,0,0,0-3.06531-6.484q-3.064-2.322-8.804-2.32135H783.204V271.913h7.48267q5.708,0,8.72534-2.3067A7.73793,7.73793,0,0,0,802.428,263.07563Z"/><path class="cls-1" d="M761.21423,256.721q-2.874-2.45-8.22534-2.45069h-8.80536V272.461h8.38538q5.64395,0,8.58-2.38666a9.12885,9.12885,0,0,0,.06537-13.35333Z"/><path class="cls-1" d="M715.11572,163.16163q-3.35-2.018-10.9-2.02h-4.67865v17.75867h4.78534q8.136,0,11.13867-1.78137,3.00393-1.78,3.004-6.832Q718.465,165.18293,715.11572,163.16163Z"/><polygon class="cls-1" points="784.131 192.938 805.824 192.938 795.031 166.034 784.131 192.938"/><path class="cls-1" d="M402.52759,51.48963a13.59493,13.59493,0,0,0-4.73206-10.9q-4.732-4.03995-13.55731-4.04132h-14.516v29.988h13.824q9.304,0,14.144-3.9347Q402.52826,58.66761,402.52759,51.48963Z"/><polygon class="cls-1" points="404.761 192.938 426.454 192.938 415.661 166.034 404.761 192.938"/><path class="cls-1" d="M310.81,101.682a31.93618,31.93618,0,0,0,23.42132-9.49066,31.54884,31.54884,0,0,0,9.544-23.26264,31.60846,31.60846,0,0,0-9.544-23.3147A31.93118,31.93118,0,0,0,310.81,36.12336,32.35086,32.35086,0,0,0,287.22864,45.614a31.4283,31.4283,0,0,0-9.65064,23.3147,31.36946,31.36946,0,0,0,9.65064,23.26264A32.35571,32.35571,0,0,0,310.81,101.682Z"/><path class="cls-1" d="M843.93317,254.012a19.62,19.62,0,0,0-14.304,5.75867,19.972,19.972,0,0,0,0,28.252,19.62027,19.62027,0,0,0,14.304,5.75866,19.36769,19.36769,0,0,0,14.20794-5.75866,20.12834,20.12834,0,0,0,0-28.252A19.36743,19.36743,0,0,0,843.93317,254.012Z"/><path class="cls-2" d="M208.542,61.48353,133.65,18.24488a18.32,18.32,0,0,0-18.31866,0l-74.892,43.23865a18.31905,18.31905,0,0,0-9.16,15.8653v86.47735a18.32079,18.32079,0,0,0,9.16,15.86536l74.892,43.23865a18.32,18.32,0,0,0,18.31866,0l74.892-43.23865a18.32086,18.32086,0,0,0,9.16-15.86536V77.34883A18.31913,18.31913,0,0,0,208.542,61.48353Zm-17.22241,97.28479-33.516,19.35065V110.74031l-32.368,39.924h-2.83338l-32.45465-39.924v66.784L57.661,158.76832v-77.168L89.77557,63.059l34.62934,42.272,34.79467-42.27465,32.12,18.544Z"/><path class="cls-2" d="M764.03552,254.561q-3.79193-3.194-10.91729-3.19335H740.69952v45.05731h3.484v-21.06h8.61066q7.386,0,11.20935-3.25867a11.01177,11.01177,0,0,0,3.82135-8.83734A10.78329,10.78329,0,0,0,764.03552,254.561Zm-2.88666,15.51331q-2.936,2.388-8.58,2.38666h-8.38538V254.27027h8.80536q5.352,0,8.22534,2.45069a9.12885,9.12885,0,0,1-.06537,13.35333Z"/><path class="cls-2" d="M797.6214,273.97694q8.58-3.15994,8.57867-10.96668a10.41021,10.41021,0,0,0-3.83734-8.49865q-3.84-3.144-11.09466-3.144H779.72v45.05731h3.484V274.81562h6.09467a11.17915,11.17915,0,0,1,6.416,1.53333q2.19205,1.534,6.12531,7.728l7.84936,12.348h4.12268l-10.192-15.57733Q799.84809,275.04161,797.6214,273.97694Zm-6.93469-2.064H783.204v-17.6427h7.35468q5.74,0,8.804,2.32135a8.48349,8.48349,0,0,1,.04932,13.01465Q796.396,271.91432,790.68671,271.913Z"/><path class="cls-2" d="M843.80383,250.78669h-.00006a23.31118,23.31118,0,0,0-16.884,6.72534,22.86034,22.86034,0,0,0,0,32.76935,24.63836,24.63836,0,0,0,33.83331,0,22.78386,22.78386,0,0,0,0-32.76935A23.46,23.46,0,0,0,843.80383,250.78669Zm14.33728,37.236a19.36769,19.36769,0,0,1-14.20794,5.75866,19.62027,19.62027,0,0,1-14.304-5.75866,19.972,19.972,0,0,1,0-28.252,19.62,19.62,0,0,1,14.304-5.75867,19.36743,19.36743,0,0,1,14.20794,5.75867,20.12834,20.12834,0,0,1,0,28.252Z"/><path class="cls-2" d="M881.729,297.361q0,9.02994-6.32135,9.032a9.12419,9.12419,0,0,1-2.0653-.25867l.324,3.2893a19.95563,19.95563,0,0,0,2.09467.12934,9.03662,9.03662,0,0,0,6.64532-2.83728q2.806-2.84006,2.8067-10.28937V251.36763h-3.484Z"/><polygon class="cls-2" points="904.107 275.236 924.653 275.236 924.653 272.3 904.107 272.3 904.107 254.27 925.201 254.27 925.201 251.368 900.625 251.368 900.625 296.426 925.718 296.426 925.718 293.522 904.107 293.522 904.107 275.236"/><path class="cls-2" d="M945.67627,288.20069a19.09616,19.09616,0,0,1-5.676-14.224,19.45808,19.45808,0,0,1,5.644-14.25464,18.935,18.935,0,0,1,14.0307-5.7107,34.086,34.086,0,0,1,16.06262,4.35468v-3.80536a37.91093,37.91093,0,0,0-15.836-3.77332,23.38483,23.38483,0,0,0-16.676,6.644,23.09107,23.09107,0,0,0-.144,32.97869,23.73022,23.73022,0,0,0,17.1427,6.596,33.925,33.925,0,0,0,15.96534-4.22534v-3.612q-8.678,4.612-16.032,4.612A19.79981,19.79981,0,0,1,945.67627,288.20069Z"/><polygon class="cls-2" points="983.248 251.368 983.248 254.27 1000.149 254.27 1000.149 296.426 1003.664 296.426 1003.664 254.27 1020.565 254.27 1020.565 251.368 983.248 251.368"/><path class="cls-2" d="M310.59662,106.9994A38.68048,38.68048,0,0,0,338.538,95.91273a36.12863,36.12863,0,0,0,11.45734-26.984A36.19248,36.19248,0,0,0,338.538,41.89137a40.62229,40.62229,0,0,0-55.776,0,36.27744,36.27744,0,0,0-11.40533,27.03735,36.21325,36.21325,0,0,0,11.40533,26.984A38.43386,38.43386,0,0,0,310.59662,106.9994ZM287.22864,45.614A32.35086,32.35086,0,0,1,310.81,36.12336,31.93118,31.93118,0,0,1,334.23132,45.614a31.60846,31.60846,0,0,1,9.544,23.3147,31.54884,31.54884,0,0,1-9.544,23.26264A31.93618,31.93618,0,0,1,310.81,101.682a32.35571,32.35571,0,0,1-23.58136-9.49066A31.36946,31.36946,0,0,1,277.578,68.92872,31.4283,31.4283,0,0,1,287.22864,45.614Z"/><path class="cls-2" d="M402.39557,65.95094q6.3-5.36792,6.3-14.568,0-9.092-6.248-14.356-6.246-5.264-17.99737-5.264H363.97955v74.27869h5.74268v-34.72h14.19733Q396.09359,71.3216,402.39557,65.95094Zm-32.67334.58539v-29.988h14.516q8.824,0,13.55731,4.04132a13.59493,13.59493,0,0,1,4.73206,10.9q0,7.178-4.83734,11.112-4.84,3.936-14.144,3.9347Z"/><polygon class="cls-2" points="425.444 71.109 459.314 71.109 459.314 66.271 425.444 66.271 425.444 36.548 460.218 36.548 460.218 31.763 419.702 31.763 419.702 106.041 461.068 106.041 461.068 101.256 425.444 101.256 425.444 71.109"/><polygon class="cls-2" points="478.615 41.121 535.088 106.041 539.813 106.041 539.813 31.763 534.072 31.763 534.072 96.684 477.737 31.763 472.872 31.763 472.872 106.041 478.615 106.041 478.615 41.121"/><polygon class="cls-2" points="317.882 174.647 295.231 146.999 275.079 146.999 275.079 220.692 296.667 220.692 296.667 177.996 316.764 202.72 318.519 202.72 338.564 177.996 338.564 220.692 360.79 220.692 360.79 146.999 340.638 146.999 317.882 174.647"/><path class="cls-2" d="M403.27155,146.99818l-32.59333,73.69464h22.75733l6.11468-14.93994h32.008l6.00934,14.93994h22.756l-32.48664-73.69464Zm1.48938,45.94,10.9-26.904,10.79333,26.904Z"/><rect class="cls-2" x="470.21466" y="146.99873" width="22.224" height="73.6933"/><polygon class="cls-2" points="568.899 187.832 530.775 146.999 511.049 146.999 511.049 220.692 533.061 220.692 533.061 179.644 571.289 220.692 591.069 220.692 591.069 146.999 568.899 146.999 568.899 187.832"/><polygon class="cls-2" points="609.573 220.693 631.798 220.693 631.798 190.864 662.37 190.864 662.37 176.03 631.798 176.03 631.798 161.78 662.37 161.78 662.37 146.998 609.573 146.998 609.573 220.693"/><path class="cls-2" d="M741.22235,204.6883q-3.98593-8.666-6.30133-11.51068a21.18472,21.18472,0,0,0-5.87463-4.91864,45.50314,45.50314,0,0,0,5.37066-3.3493,17.33806,17.33806,0,0,0,4.54663-5.60938,19.12031,19.12031,0,0,0,2.152-9.43866,23.19783,23.19783,0,0,0-2.57867-10.10266,22.34811,22.34811,0,0,0-8.428-9.03863q-5.848-3.72006-14.99335-3.72138h-37.804v73.69336h22.22534v-28.764h2.49866a17.674,17.674,0,0,1,6.248.92939,12.40235,12.40235,0,0,1,4.9707,4.25329,54.31249,54.31249,0,0,1,5.74268,10.50269l5.796,13.07867h23.87335ZM715.46106,177.119q-3.004,1.782-11.13867,1.78137h-4.78534V161.14167h4.67865q7.54806,0,10.9,2.02,3.35,2.022,3.34931,7.12537Q718.465,175.339,715.46106,177.119Z"/><path class="cls-2" d="M807.20673,146.99818H782.64142l-32.592,73.69464h22.756l6.11468-14.93994h32.008l6.008,14.93994h22.75732Zm-23.076,45.94,10.9-26.904,10.79334,26.904Z"/><polygon class="cls-2" points="892.279 174.647 869.628 146.999 849.477 146.999 849.477 220.692 871.063 220.692 871.063 177.996 891.162 202.72 892.917 202.72 912.962 177.996 912.962 220.692 935.186 220.692 935.186 146.999 915.035 146.999 892.279 174.647"/><polygon class="cls-2" points="1009.359 205.858 976.021 205.858 976.021 190.12 1006.965 190.12 1006.965 175.284 976.021 175.284 976.021 161.78 1008.456 161.78 1008.456 146.999 953.796 146.999 953.796 220.692 1009.359 220.692 1009.359 205.858"/></svg>