<svg id="Layer_1" data-name="Layer 1" xmlns="http://www.w3.org/2000/svg" xmlns:xlink="http://www.w3.org/1999/xlink" viewBox="0 0 627.47991 207.34021"><defs><style>.cls-1{fill:none;}.cls-2{clip-path:url(#clip-path);}.cls-3{clip-path:url(#clip-path-2);}.cls-4{clip-path:url(#clip-path-3);}.cls-5{fill:#d2e4f4;}.cls-6{fill:#44af59;}.cls-7{fill:#ffcd05;}.cls-8{fill:#676767;}.cls-9{fill:#163963;}</style><clipPath id="clip-path"><path class="cls-1" d="M98.0339,3.65707c11.31515,3.81156,20.811,11.02964,31.10115,16.74192,15.16747,8.4198,30.07142,17.31335,45.1154,25.95675a17.39479,17.39479,0,0,1,9.30461,16.06641q.06449,39.79595.09066,79.592c.01373,7.43417-3.07228,12.94415-9.58012,16.68128q-34.63861,19.89123-69.19644,39.9231a17.07252,17.07252,0,0,1-18.14793-.00513q-34.87679-20.074-69.71186-40.22045A17.15212,17.15212,0,0,1,8.1751,146.14635c-.03844-.209-.10525-.37917-.3294-.441V59.14938c.22379-.06194.29065-.23194.32914-.44067a17.12052,17.12052,0,0,1,8.81594-12.23912C29.76234,39.13525,42.40019,31.56123,55.2862,24.435c12.61228-6.97484,24.382-15.49766,37.92158-20.77794Zm28.98452,152.947a5.04212,5.04212,0,0,0,.64636-.22382q15.12348-8.71821,30.25447-17.42327a1.64314,1.64314,0,0,0,.81293-1.737q-.01335-35.2068.0148-70.41359a1.86668,1.86668,0,0,0-1.07456-1.88519q-14.041-8.03877-28.02653-16.17366c-1.01423-.592-1.49208-.45344-2.19245.403Q112.04582,67.99158,96.59836,86.8c-.73935.90429-1.0768,1.0655-1.9117.03969Q79.2765,67.90561,63.791,49.0328c-.56415-.69118-.92043-.92872-1.80906-.411q-14.17471,8.25806-28.41307,16.4067a1.7938,1.7938,0,0,0-1.03006,1.78311q.033,35.28217.00618,70.56437a1.51046,1.51046,0,0,0,.86929,1.53863q14.36548,8.22459,28.691,16.519c.36441.20984.68365.6208,1.31557.40253V93.42277c.52428.61721.87832,1.01853,1.21567,1.43342q14.11812,17.36295,28.23513,34.7268a2.84185,2.84185,0,0,0,4.74547.04262q12.57206-15.5122,25.14373-31.02468c1.33807-1.65063,2.68667-3.29274,4.25759-5.2171Z"/></clipPath><clipPath id="clip-path-2"><polygon class="cls-1" points="147.325 -7.849 26.255 4.561 -23.534 115.615 47.748 212.21 166.769 200.484 218.607 90.796 147.325 -7.849 147.325 -7.849"/></clipPath><clipPath id="clip-path-3"><rect class="cls-1" x="-29.13858" y="-21.7126" width="243.08233" height="243.08233"/></clipPath></defs><title>OpenMainframe-landscape-logo</title><g class="cls-2"><g class="cls-3"><g class="cls-4"><path class="cls-5" d="M-26.35379,65.82476v85.85537c20.02361-16.17351,40.02266-32.34185,59.92086-48.69895,5.3136-4.32974,8.85471-4.32974,13.774.78606,19.47933,20.07015,39.746,39.55076,59.42311,59.42311,4.13194,4.32846,7.47653,4.32846,12.00279.78733,10.82112-8.6582,22.03657-16.72555,32.66247-25.579,5.70532-4.72277,10.03507-4.525,15.74041-.19781,18.71525,14.03773,37.61408,27.71734,56.68615,41.38015V-23.47217H-26.45334V30.11891H-78.6391V65.82735h52.28531ZM147.101,6.17281a39.31289,39.31289,0,0,1,39.74728,38.872q.00648.53523-.0013,1.07047a39.84554,39.84554,0,1,1-79.69079.2125q-.00054-.20451.001-.409A39.43182,39.43182,0,0,1,146.26968,6.17023Q146.6834,6.16635,147.101,6.17281Z"/><ellipse class="cls-5" cx="145.36728" cy="47.64087" rx="54.8542" ry="58.98096"/><path class="cls-6" d="M181.17784,206.25765h53.83931V159.24586c-19.07207-13.6641-37.9709-27.34113-56.68615-41.37757-5.70663-4.32974-10.03507-4.525-15.74169.19652-10.62462,8.8547-21.84007,16.92077-32.66249,25.579-4.525,3.54241-7.87085,3.54241-12.00279-.78733-19.67713-19.87235-39.9425-39.353-59.42311-59.42183-4.918-5.11709-8.46039-5.11709-13.7727-.78864C24.82744,99.00436,4.831,115.17142-15.19264,131.34621v96.82647l160.72671-21.91374v49.0855h35.64377Z"/><path class="cls-7" d="M125.26611,87.28343a35.34836,35.34836,0,1,0-.35079.00173Q125.0907,87.28516,125.26611,87.28343Z"/></g><path class="cls-7" d="M368.46738,9.16963a35.349,35.349,0,0,0,34.99737-35.69679A35.349,35.349,0,0,0,367.768-61.52452a35.349,35.349,0,0,0-34.99864,35.34643A35.63473,35.63473,0,0,0,368.46742,9.16963Z"/></g></g><path class="cls-8" d="M222.02652,91.22709H214.0134v60.452h36.661V145.161H222.02569V91.22709Zm70.7477,29.27162q-.16636-6.80913-4.56758-10.69112-4.40037-3.882-12.16433-3.882a21.79186,21.79186,0,0,0-8.98885,1.82686,16.29973,16.29973,0,0,0-6.47722,4.96054,10.59916,10.59916,0,0,0-2.387,6.49812h7.72215a6.11851,6.11851,0,0,1,2.78252-5.02492,11.20031,11.20031,0,0,1,6.89108-2.07435q4.69215,0,7.10011,2.38788a8.62931,8.62931,0,0,1,2.408,6.41368v3.52914h-7.47383q-9.67362,0-15.00789,3.882a12.70007,12.70007,0,0,0-5.33593,10.89848,12.15507,12.15507,0,0,0,4.25571,9.529,15.85435,15.85435,0,0,0,10.89848,3.75656,17.13487,17.13487,0,0,0,12.78721-5.56337,16.10955,16.10955,0,0,0,1.08023,4.734h8.05408v-.66637a25.28125,25.28125,0,0,1-1.57686-9.83915ZM285.093,139.09844a11.304,11.304,0,0,1-4.69047,4.85687,13.50115,13.50115,0,0,1-6.85179,1.86951,9.25049,9.25049,0,0,1-6.18543-2.035,6.99064,6.99064,0,0,1-2.4088-5.64614q0-8.26143,14.1166-8.26228H285.093Zm40.68848-33.17283a16.36823,16.36823,0,0,0-13.45274,6.47638l-.24916-5.64613H304.8148v44.92329h7.68036V119.66763a13.53144,13.53144,0,0,1,4.4012-5.23144,11.08655,11.08655,0,0,1,6.56-1.99324q4.60852,0,6.78907,2.326,2.17966,2.326,2.22067,7.182v29.7273h7.6812V121.9928q-.12543-16.068-14.36492-16.068Zm54.30592,5.397q-4.60936-5.397-12.49792-5.397a15.49112,15.49112,0,0,0-12.829,6.28993q-4.8995,6.2891-4.8995,16.62823v.58025q0,10.29816,4.92123,16.69093a15.34148,15.34148,0,0,0,12.7245,6.39361q8.22131,0,12.82985-5.647l.37291,4.81757h7.05829v-63.773h-7.68036Zm0,28.10778a11.20083,11.20083,0,0,1-10.66937,6.56,10.19786,10.19786,0,0,1-8.72045-4.31675q-3.15456-4.31841-3.15458-11.9578,0-8.55322,3.15458-12.91263A10.24639,10.24639,0,0,1,369.5,112.44379a11.29228,11.29228,0,0,1,10.5866,6.35264ZM426.50566,128.802a41.45851,41.45851,0,0,0-9.32159-3.07264q-5.75145-1.2859-7.95125-2.69808a4.65707,4.65707,0,0,1-2.19893-4.19384,5.75063,5.75063,0,0,1,2.36531-4.77409,10.50846,10.50846,0,0,1,6.56084-1.82686,10.03645,10.03645,0,0,1,6.74644,2.2842,6.93374,6.93374,0,0,1,2.67716,5.438h7.723a12.52887,12.52887,0,0,0-4.75319-10.08914q-4.75569-3.94385-12.39425-3.94385-7.26566,0-11.93607,3.82095a11.65344,11.65344,0,0,0-4.67126,9.34083,9.92782,9.92782,0,0,0,1.64042,5.72975,13.16852,13.16852,0,0,0,5.06507,4.1512,38.68217,38.68217,0,0,0,9.2589,2.989q5.83262,1.24578,8.17867,2.96813a5.657,5.657,0,0,1,2.34524,4.83763,5.42212,5.42212,0,0,1-2.63538,4.71223,12.3826,12.3826,0,0,1-6.99643,1.765,12.0004,12.0004,0,0,1-7.61848-2.26247,7.94952,7.94952,0,0,1-3.09272-6.12438h-7.682a12.85565,12.85565,0,0,0,2.34607,7.4103,15.52206,15.52206,0,0,0,6.49728,5.33511,22.62727,22.62727,0,0,0,9.54986,1.91048q7.68034,0,12.49707-3.63283a11.49628,11.49628,0,0,0,4.81591-9.65354,10.56993,10.56993,0,0,0-1.72235-6.12355,13.59831,13.59831,0,0,0-5.29414-4.29752Zm25.92726-12.3516a10.74829,10.74829,0,0,1,9.07159-4.21391,10.26889,10.26889,0,0,1,7.32837,2.80258,10.58841,10.58841,0,0,1,3.30008,7.162h7.26565a16.17836,16.17836,0,0,0-5.33509-11.74962,18.0161,18.0161,0,0,0-12.55814-4.52577,19.6364,19.6364,0,0,0-10.64932,2.82349,18.33725,18.33725,0,0,0-6.91366,7.9295,27.04339,27.04339,0,0,0-2.408,11.66685V129.633q0,10.62758,5.4179,16.7528,5.4179,6.12438,14.594,6.12271a18.87548,18.87548,0,0,0,8.65691-2.07518,17.50623,17.50623,0,0,0,6.53826-5.56337,13.93525,13.93525,0,0,0,2.65795-7.34925h-7.26565a8.76635,8.76635,0,0,1-3.40459,6.22806,11.065,11.065,0,0,1-7.18288,2.49156,10.80073,10.80073,0,0,1-9.13431-4.19385q-3.198-4.193-3.19722-11.957v-1.454q0-7.97132,3.21814-12.18522Zm69.81379,4.04836q-.16641-6.80913-4.56759-10.69112t-12.16515-3.882a21.79189,21.79189,0,0,0-8.988,1.82686,16.29366,16.29366,0,0,0-6.47722,4.96054,10.6,10.6,0,0,0-2.3879,6.49812h7.723a6.11852,6.11852,0,0,1,2.78171-5.02492,11.201,11.201,0,0,1,6.8919-2.07435q4.69215,0,7.10011,2.38788a8.62847,8.62847,0,0,1,2.408,6.41283v3.53h-7.47218q-9.67442,0-15.01038,3.882a12.70152,12.70152,0,0,0-5.33428,10.89848,12.155,12.155,0,0,0,4.25574,9.529,15.8493,15.8493,0,0,0,10.89763,3.75656,17.13649,17.13649,0,0,0,12.7889-5.56337,16.05761,16.05761,0,0,0,1.07855,4.734h8.05576v-.66637a25.24885,25.24885,0,0,1-1.57936-9.83915Zm-7.68033,18.59973a11.3089,11.3089,0,0,1-4.69216,4.85687,13.50107,13.50107,0,0,1-6.851,1.86951,9.25049,9.25049,0,0,1-6.18624-2.035,6.99059,6.99059,0,0,1-2.40714-5.64614q0-8.26143,14.11576-8.26228h6.0207Zm40.14834-33.17283q-8.345,0-13.03721,5.81253l-.37376-4.98228h-7.01651v62.19446h7.68119V147.3206q4.69047,5.18962,12.87,5.188a15.03877,15.03877,0,0,0,12.70526-6.269q4.69047-6.269,4.69134-16.52371v-.70566q0-10.87758-4.71221-16.98189a15.32073,15.32073,0,0,0-12.809-6.10264Zm6.58,35.93529a10.38183,10.38183,0,0,1-8.78148,4.37946,11.31235,11.31235,0,0,1-10.5448-6.14529V118.63a11.29228,11.29228,0,0,1,10.462-6.18709,10.43191,10.43191,0,0,1,8.88517,4.4012q3.23823,4.40119,3.23818,11.99877,0,8.63685-3.25991,13.01629Zm38.3842-35.93529a17.9534,17.9534,0,0,0-9.94366,2.96814,19.91039,19.91039,0,0,0-7.14108,8.2213A26.95907,26.95907,0,0,0,580.04,129.05111v1.41216q0,10.04733,5.72977,16.0463,5.72975,6.00064,14.86408,5.999,11.29306,0,16.93925-8.677l-4.69047-3.65289a17.3077,17.3077,0,0,1-4.94129,4.40036,13.379,13.379,0,0,1-6.8919,1.66132,12.202,12.202,0,0,1-9.447-4.09017,15.96631,15.96631,0,0,1-3.8803-10.73209h30.43213v-3.19723q0-10.75215-4.8577-16.52454-4.85773-5.77072-13.61744-5.77072Zm10.79394,19.18165H587.9703q.74748-6.10347,3.90372-9.48715a10.24632,10.24632,0,0,1,7.805-3.38366,9.64767,9.64767,0,0,1,7.63854,3.21728q2.82349,3.219,3.1554,9.07161Z"/><g id="g48"><path class="cls-9" d="M505.76286,53.40723h4.9772a6.6447,6.6447,0,0,1,4.38876,1.275,4.35536,4.35536,0,0,1,1.52011,3.5061,4.43275,4.43275,0,0,1-1.54465,3.55514,6.73877,6.73877,0,0,1-4.51135,1.29946h-3.45706v8.45877h-1.39753V53.40723Zm1.39752,1.17688v7.30642h3.359a5.42658,5.42658,0,0,0,3.45706-.95621,3.64871,3.64871,0,0,0,.02454-5.345,4.89647,4.89647,0,0,0-3.31-.98073h-3.53062Z"/><path class="cls-9" d="M521.45449,53.40723h4.634a6.81727,6.81727,0,0,1,4.46229,1.275,4.17187,4.17187,0,0,1,1.54466,3.408q0,3.12606-3.45706,4.41327a8.17441,8.17441,0,0,1,2.4028,2.77056l4.09452,6.25213H533.4684l-3.16285-4.95267a12.18928,12.18928,0,0,0-2.45182-3.11381,4.43874,4.43874,0,0,0-2.57441-.613h-2.45181v8.67943H521.43V53.40723Zm1.39753,1.17688v7.08575h3.01575a5.74144,5.74144,0,0,0,3.50611-.93169,3.41579,3.41579,0,0,0-.02451-5.22237,5.82174,5.82174,0,0,0-3.53063-.93169Z"/><path class="cls-9" d="M547.17407,53.18657a9.49614,9.49614,0,0,1,6.81607,2.697,9.15,9.15,0,0,1,0,13.16626,9.93054,9.93054,0,0,1-13.60759,0A8.763,8.763,0,0,1,537.612,62.479a8.90736,8.90736,0,0,1,2.77057-6.59539A9.33918,9.33918,0,0,1,547.17407,53.18657Zm.049,17.2608a7.80411,7.80411,0,0,0,5.71275-2.30471A7.98132,7.98132,0,0,0,547.2231,54.486a7.85988,7.85988,0,0,0-5.73726,2.30471,8.02053,8.02053,0,0,0,0,11.35192A7.95843,7.95843,0,0,0,547.2231,70.44737Z"/><path class="cls-9" d="M563.79738,53.40723V71.50165c0,1.986-.36777,3.38351-1.12783,4.14358a3.63405,3.63405,0,0,1-2.67248,1.12784c-.24519,0-.51488-.02452-.83363-.049l-.12259-1.324a3.35609,3.35609,0,0,0,.83362.09807c1.69177,0,2.5499-1.20139,2.5499-3.62869V53.40723Z"/><path class="cls-9" d="M579.85679,53.40723v1.17688H571.398V61.817h8.2381v1.17687H571.398V70.3493h8.67944v1.17687h-10.077V53.40723Z"/><path class="cls-9" d="M600.15786,54.68218v1.52013a13.49843,13.49843,0,0,0-6.44829-1.74079,7.56163,7.56163,0,0,0-5.63918,2.30471,7.781,7.781,0,0,0-2.25567,5.71273,7.685,7.685,0,0,0,2.28021,5.71274,7.93084,7.93084,0,0,0,5.8108,2.23116,13.78745,13.78745,0,0,0,6.44829-1.86339v1.44658a13.658,13.658,0,0,1-6.39924,1.69175,9.56881,9.56881,0,0,1-6.8896-2.648A9.26578,9.26578,0,0,1,587.13874,55.81a9.31112,9.31112,0,0,1,6.69348-2.67248A16.14617,16.14617,0,0,1,600.15786,54.68218Z"/><path class="cls-9" d="M618.15422,53.40723v1.17688h-6.79153V71.50165h-1.42207V54.58411H603.1491V53.40723Z"/><path class="cls-9" d="M317.68387,72.7766h-6.056V61.155l-5.443,6.718h-.49036l-5.46756-6.718V72.7766h-5.88436V52.72073h5.49208l6.15406,7.52708,6.2031-7.52708h5.49207Z"/><path class="cls-9" d="M344.75194,72.7766h-6.2031l-1.64272-4.07h-8.70395l-1.66724,4.07h-6.2031l8.9001-20.05587h6.69346Zm-9.19432-7.5516-2.94218-7.33094-2.9667,7.33094Z"/><path class="cls-9" d="M353.50493,72.7766h-6.056V52.72073h6.056Z"/><path class="cls-9" d="M380.32783,72.7766h-5.36948L364.53812,61.59631V72.75208h-5.98245V52.72073h5.36949l10.37119,11.10673V52.72073h6.03147V72.7766Z"/><path class="cls-9" d="M399.72171,64.66108H391.41V72.7766h-6.056V52.72073h14.36766v4.021H391.41v3.87387h8.31167Z"/><path class="cls-9" d="M423.21014,72.7766h-6.49732l-1.56917-3.55514a15.7332,15.7332,0,0,0-1.56917-2.86862,3.28891,3.28891,0,0,0-1.3485-1.15236,4.74686,4.74686,0,0,0-1.69176-.24518h-.68652v7.8213h-6.056V52.72073h10.27313a7.52362,7.52362,0,0,1,4.07,1.00524,6.43777,6.43777,0,0,1,2.30472,2.45182,6.35091,6.35091,0,0,1,.711,2.746,5.257,5.257,0,0,1-.58844,2.5744,4.78249,4.78249,0,0,1-1.22591,1.52013,13.76482,13.76482,0,0,1-1.47109.90717,5.74481,5.74481,0,0,1,1.59368,1.3485,17.9386,17.9386,0,0,1,1.71627,3.13833Zm-8.21359-13.70567a2.0561,2.0561,0,0,0-.90716-1.93693,6.0117,6.0117,0,0,0-2.96669-.5394h-1.27494v4.83008h1.29948a6.6876,6.6876,0,0,0,3.04026-.49036A2.0266,2.0266,0,0,0,414.99655,59.07093Z"/><path class="cls-9" d="M447.97351,72.7766H441.7704l-1.64271-4.07h-8.704l-1.66724,4.07h-6.20312l8.87557-20.05588h6.69348Zm-9.21886-7.5516-2.94218-7.33094-2.9667,7.33094Z"/><path class="cls-9" d="M473.96278,72.7766h-6.056V61.155l-5.443,6.718h-.46585l-5.46757-6.718V72.7766H450.646V52.72073h5.49208l6.154,7.52708,6.20312-7.52708h5.49208V72.7766Z"/><path class="cls-9" d="M494.14123,72.7766H479.01352V52.72073h14.88253v4.021H485.0695v3.67772h8.40975v4.0455H485.0695v4.29069h9.07173Z"/><g id="g46"><path class="cls-9" d="M219.2924,53.38272a10.528,10.528,0,0,1,7.60064,3.01573,10.21551,10.21551,0,0,1,0,14.6864,11.055,11.055,0,0,1-15.17676,0,10.21549,10.21549,0,0,1,0-14.68639A10.4712,10.4712,0,0,1,219.2924,53.38272Zm.049,19.29581a8.71,8.71,0,0,0,6.37473-2.57441,9.02756,9.02756,0,0,0,0-12.67591,8.71,8.71,0,0,0-6.37473-2.5744,8.86171,8.86171,0,0,0-6.42377,2.5744,8.96759,8.96759,0,0,0,0,12.67591A8.86171,8.86171,0,0,0,219.34143,72.67853Z"/><path class="cls-9" d="M233.80716,53.65242h5.56563a7.44848,7.44848,0,0,1,4.90364,1.422,4.84367,4.84367,0,0,1,1.69175,3.89839,4.93738,4.93738,0,0,1-1.71627,3.972,7.54334,7.54334,0,0,1-5.02623,1.47109h-3.87387v9.4395h-1.56916v-20.203Zm1.56917,1.29946v8.16455h3.75128a6.00119,6.00119,0,0,0,3.84936-1.0788,3.65147,3.65147,0,0,0,1.324-3.01573,3.706,3.706,0,0,0-1.29946-2.9667,5.49072,5.49072,0,0,0-3.67773-1.10332Z"/><path class="cls-9" d="M259.99258,53.65242v1.29946h-9.464v8.091h9.21884v1.324h-9.21884v8.21359h9.68469v1.29947H248.9594V53.65242Z"/><path class="cls-9" d="M281.66666,53.65242v20.203h-1.27495L264.99429,56.20231V73.8554h-1.56916v-20.203h1.324L280.073,71.30551V53.65242Z"/></g></g></svg>
