<svg id="Layer_1" data-name="Layer 1" xmlns="http://www.w3.org/2000/svg" xmlns:xlink="http://www.w3.org/1999/xlink" viewBox="0 0 493.95249 192.55775"><defs><style>.cls-1{fill:#4197cb;}.cls-2{fill:#231f20;}.cls-3{fill:none;}.cls-4{fill:#00416b;}.cls-5{opacity:0.8;isolation:isolate;fill:url(#linear-gradient);}.cls-6{fill:#fff;}</style><linearGradient id="linear-gradient" x1="26.22238" y1="-54.42778" x2="75.9452" y2="-117.99746" gradientTransform="matrix(1, 0, 0, -1, 0, -38.66458)" gradientUnits="userSpaceOnUse"><stop offset="0" stop-color="#fff" stop-opacity="0"/><stop offset="0.34941" stop-color="#cdcccc" stop-opacity="0.22668"/><stop offset="0.889" stop-color="#454142" stop-opacity="0.84698"/><stop offset="1" stop-color="#231f20"/></linearGradient></defs><rect class="cls-1" x="159.04232" y="129.89454" width="324.02647" height="47.79153"/><g id="Layer_1-2" data-name="Layer 1"><path class="cls-2" d="M177.546,87.35474V87.829c0,2.847,3.89044,6.73707,12.52567,6.73707,7.11678,0,9.39385-2.372,9.39385-4.55415,0-3.13141-3.70048-5.02917-12.62019-8.066-11.76662-3.89041-27.23342-9.58368-27.23342-24.86105,0-14.13861,12.051-22.96331,28.94134-22.96331,17.27,0,30.26995,9.204,30.26995,23.9122v1.04379h-18.5037v-.66409c0-3.606-3.70048-7.87619-11.38653-7.87619-6.45268,0-9.01454,2.56223-9.01454,5.02918,0,2.94155,3.41581,4.46,12.24088,7.49648,10.24782,3.60566,27.70772,9.67862,27.70772,25.90531,0,14.42341-12.52528,22.01435-29.416,22.01435-17.74428,0-31.40866-8.2559-31.40866-22.77385v-.85395Z"/><path class="cls-2" d="M242.5474,35.54461h32.64227c19.64244,0,29.03669,13.47449,29.03669,28.37219,0,15.65708-9.39425,28.84682-29.03669,28.84682h-13.664V109.559H242.54737Zm18.97831,17.27005V75.49357H274.146c7.97074,0,10.91228-4.93425,10.91228-11.48185,0-5.88306-2.94154-11.19706-10.91228-11.19706Z"/><path class="cls-2" d="M325.76809,35.54461h34.35026c23.15355,0,35.01434,16.89034,35.01434,37.00741,0,20.2116-11.86079,37.007-35.01434,37.007H325.76809ZM344.74642,53.9534V91.24557h13.94839c11.2919,0,17.27044-7.59143,17.27044-18.69355s-5.97842-18.59863-17.27044-18.59863Z"/><path class="cls-2" d="M479.684,35.54461,454.82232,72.36216l25.4311,37.19686H457.19518L443.43588,89.2525l-13.664,20.30652H406.71362l25.43027-37.19686L407.28242,35.54461h22.39416l13.7593,20.21161,13.85385-20.2116Z"/><polygon class="cls-3" points="38.79 100.523 99.162 40.277 38.79 40.277 38.79 100.523"/><polygon class="cls-4" points="38.79 40.277 99.162 40.277 123.987 15.293 13.806 15.293 13.806 15.705 13.806 39.99 13.806 125.35 38.79 100.523 38.79 40.277"/><polygon class="cls-5" points="38.79 40.277 99.162 40.277 123.987 15.293 13.806 15.293 13.806 15.705 13.806 39.99 13.806 125.35 38.79 100.523 38.79 40.277"/><polygon class="cls-1" points="99.162 40.277 38.79 100.523 13.806 125.379 38.79 125.379 50.201 125.379 72.363 102.863 72.363 80.25 72.363 73.85 78.889 73.85 101.496 73.85 123.894 51.55 123.894 40.277 123.894 15.165 99.162 40.277"/><polygon class="cls-1" points="78.609 80.094 78.609 96.655 78.609 125.379 123.894 125.379 123.894 80.094 95.291 80.094 78.609 80.094"/></g><path class="cls-6" d="M182.70813,157.40282a1.45171,1.45171,0,0,0,.19136.64906,1.96577,1.96577,0,0,0,.51977.58829,2.61969,2.61969,0,0,0,.84817.42409,3.97544,3.97544,0,0,0,1.17659.15774,3.82651,3.82651,0,0,0,1.38863-.20558,1.54285,1.54285,0,0,0,.73828-.54045,1.257,1.257,0,0,0,.22627-.71759,1.08625,1.08625,0,0,0-.67751-1.04729,7.85464,7.85464,0,0,0-1.93555-.54046l-2.2575-.39564a9.26227,9.26227,0,0,1-2.73589-.9167,4.80328,4.80328,0,0,1-1.88771-1.77911,6.17156,6.17156,0,0,1,.28833-6.14929,6.025,6.025,0,0,1,2.7152-2.07131,10.71474,10.71474,0,0,1,4.06893-.71241,9.44986,9.44986,0,0,1,4.3301.86886,6.03707,6.03707,0,0,1,2.50315,2.22388,5.38607,5.38607,0,0,1,.81327,2.81735h-5.19767a1.57717,1.57717,0,0,0-.27411-.80034,2.0474,2.0474,0,0,0-.79258-.684,2.9403,2.9403,0,0,0-1.36794-.28058,2.38011,2.38011,0,0,0-1.58646.43056,1.33,1.33,0,0,0-.49261,1.03307,1.0292,1.0292,0,0,0,.64906.93739,6.00338,6.00338,0,0,0,1.78557.5133l2.39326.36849a8.774,8.774,0,0,1,2.50445.76672,4.94611,4.94611,0,0,1,1.98339,1.72351,5.399,5.399,0,0,1,.77965,3.07852,6.02335,6.02335,0,0,1-.88309,3.24144,5.9036,5.9036,0,0,1-2.67383,2.23681,10.98783,10.98783,0,0,1-4.52792.81327,12.01336,12.01336,0,0,1-3.83748-.52624,6.53122,6.53122,0,0,1-2.45532-1.40932,5.23319,5.23319,0,0,1-1.31364-1.94848,6.14246,6.14246,0,0,1-.39565-2.14759Z"/><path class="cls-6" d="M199.21656,144.44742H208.231a7.356,7.356,0,0,1,4.37148,1.19728,3.9163,3.9163,0,0,1,1.67567,3.38624,4.03181,4.03181,0,0,1-.51977,2.11915,3.748,3.748,0,0,1-1.32657,1.33433,4.41273,4.41273,0,0,1-1.68343.58183v.25989a4.90106,4.90106,0,0,1,1.92909.49261,4.32259,4.32259,0,0,1,1.69636,1.43518,4.2409,4.2409,0,0,1,.69819,2.5316,4.67555,4.67555,0,0,1-.90377,2.913,5.64108,5.64108,0,0,1-2.38033,1.80625,8.20682,8.20682,0,0,1-3.18713.61545h-9.38426Zm5.67736,7.33234h1.77781a2.38749,2.38749,0,0,0,1.17659-.25342,1.60462,1.60462,0,0,0,.66329-.65552,1.80487,1.80487,0,0,0,.212-.85594,1.60533,1.60533,0,0,0-.54045-1.25158,2.225,2.225,0,0,0-1.53862-.48486h-1.75066Zm0,7.51077h1.95624a2.385,2.385,0,0,0,1.83987-.6232,2.20815,2.20815,0,0,0,.30773-2.51738,1.76424,1.76424,0,0,0-.80034-.71759,3.17416,3.17416,0,0,0-1.37441-.25989h-1.92909Z"/><path class="cls-6" d="M236.54542,159.30992a7.16166,7.16166,0,0,1-2.97638,3.04491,11.29125,11.29125,0,0,1-9.63638,0,7.17717,7.17717,0,0,1-2.98931-3.04491,9.7845,9.7845,0,0,1-1.01884-4.57576v-1.83211a9.91872,9.91872,0,0,1,1.01884-4.62361,7.17075,7.17075,0,0,1,2.98931-3.05137,9.89044,9.89044,0,0,1,4.815-1.0809,9.78118,9.78118,0,0,1,4.82142,1.09513,7.23928,7.23928,0,0,1,2.97638,3.05654,9.93432,9.93432,0,0,1,1.01109,4.60421v1.83211A9.86257,9.86257,0,0,1,236.54542,159.30992Zm-5.22612-8.74683a3.00068,3.00068,0,0,0-1.00591-1.38863,2.58722,2.58722,0,0,0-1.56577-.47193,2.619,2.619,0,0,0-1.57352.47193,2.98406,2.98406,0,0,0-1.01239,1.38863,6.27265,6.27265,0,0,0-.35556,2.25621v1.94331a6.342,6.342,0,0,0,.35556,2.264,2.93453,2.93453,0,0,0,1.01239,1.38734,2.6506,2.6506,0,0,0,1.57352.46546,2.61828,2.61828,0,0,0,1.56577-.46546,2.9505,2.9505,0,0,0,1.00591-1.38734,6.3418,6.3418,0,0,0,.35557-2.264V152.8193A6.27241,6.27241,0,0,0,231.3193,150.56309Z"/><path class="cls-6" d="M243.42264,163.12026V144.44742h6.00577l3.99393,8.3305h.19136l4.00816-8.3305h5.95146v18.67284h-5.15759V152.71069h-.25988l-3.1742,6.86688h-3.00871l-3.20135-6.86688h-.27411v10.40957Z"/><path class="cls-6" d="M291.6511,163.12026H279.05256V144.44742h5.74589v13.96649h6.85265Z"/><path class="cls-6" d="M296.20488,163.12026l5.66314-18.67284h7.278l5.60754,18.67284h-6.1273l-.8081-3.52977h-5.102l-.834,3.52977Zm8.96017-13.9264-1.505,6.36133h3.24273l-1.4507-6.36133Z"/><path class="cls-6" d="M319.7987,163.12026V144.44742h4.30941l6.36133,9.0287h.21851v-9.0287h5.2662v18.67284h-4.268l-6.40141-9.1929h-.21851v9.1929Z"/><path class="cls-6" d="M350.6977,144.44742a9.36568,9.36568,0,0,1,4.92486,1.14944,6.77639,6.77639,0,0,1,2.7695,3.222,12.2983,12.2983,0,0,1,.88309,4.84857,12.638,12.638,0,0,1-.90248,4.952,7.04376,7.04376,0,0,1-2.798,3.31772,9.079,9.079,0,0,1-4.877,1.18305h-8.112V144.44742Zm-2.36611,14.25482h1.31364a4.50651,4.50651,0,0,0,1.74291-.30126,2.64464,2.64464,0,0,0,1.1559-.91024,4.12309,4.12309,0,0,0,.64389-1.52439,9.844,9.844,0,0,0,.20428-2.13467,8.76091,8.76091,0,0,0-.36849-2.73589,3.15144,3.15144,0,0,0-1.19081-1.6692,3.8152,3.8152,0,0,0-2.18768-.55985h-1.31364Z"/><path class="cls-6" d="M369.62783,157.40282a1.45171,1.45171,0,0,0,.19136.64906,1.96577,1.96577,0,0,0,.51977.58829,2.61959,2.61959,0,0,0,.84817.42409,3.97539,3.97539,0,0,0,1.17659.15774,3.82651,3.82651,0,0,0,1.38863-.20558,1.5429,1.5429,0,0,0,.73828-.54045,1.2571,1.2571,0,0,0,.22627-.71759,1.08625,1.08625,0,0,0-.67751-1.04729,7.85477,7.85477,0,0,0-1.93555-.54046l-2.2575-.39564a9.26217,9.26217,0,0,1-2.73589-.9167,4.80328,4.80328,0,0,1-1.88771-1.77911,6.17156,6.17156,0,0,1,.28833-6.14929,6.02493,6.02493,0,0,1,2.7152-2.07131,10.71469,10.71469,0,0,1,4.06892-.71241,9.44983,9.44983,0,0,1,4.3301.86886,6.037,6.037,0,0,1,2.50316,2.22388,5.38617,5.38617,0,0,1,.81327,2.81735h-5.19767a1.57717,1.57717,0,0,0-.27411-.80034,2.04747,2.04747,0,0,0-.79258-.684,2.9403,2.9403,0,0,0-1.36794-.28058,2.38011,2.38011,0,0,0-1.58646.43056,1.33,1.33,0,0,0-.49261,1.03307,1.0292,1.0292,0,0,0,.64906.93739,6.00338,6.00338,0,0,0,1.78557.5133l2.39326.36849a8.77409,8.77409,0,0,1,2.50445.76672,4.94611,4.94611,0,0,1,1.98339,1.72351,5.3991,5.3991,0,0,1,.77965,3.07852,6.02344,6.02344,0,0,1-.88309,3.24144,5.9036,5.9036,0,0,1-2.67383,2.23681,10.98786,10.98786,0,0,1-4.52792.81327,12.01347,12.01347,0,0,1-3.83749-.52624,6.53125,6.53125,0,0,1-2.45531-1.40932,5.23334,5.23334,0,0,1-1.31365-1.94848,6.14267,6.14267,0,0,1-.39564-2.14759Z"/><path class="cls-6" d="M391.25248,154.66693a6.85906,6.85906,0,0,0,.32194,2.2562,2.90971,2.90971,0,0,0,.92964,1.38863,2.578,2.578,0,0,0,2.89363.05431,2.52918,2.52918,0,0,0,.8611-1.12746,4.22337,4.22337,0,0,0,.28833-1.60067h5.43041v.834a6.51667,6.51667,0,0,1-1.03307,3.67328,6.8405,6.8405,0,0,1-2.85226,2.42817,9.64465,9.64465,0,0,1-4.17236.86111,9.25922,9.25922,0,0,1-4.67144-1.09384,7.12987,7.12987,0,0,1-2.89363-3.07077,10.31124,10.31124,0,0,1-.98394-4.64429v-1.68342a10.30123,10.30123,0,0,1,.98394-4.65076,7.0957,7.0957,0,0,1,2.89363-3.05654,9.29922,9.29922,0,0,1,4.67144-1.08866,10.352,10.352,0,0,1,3.24273.48615,7.47743,7.47743,0,0,1,2.551,1.40156,6.39659,6.39659,0,0,1,1.6692,2.20319,6.7882,6.7882,0,0,1,.59476,2.88587v.8081h-5.43041a4.214,4.214,0,0,0-.28833-1.60068,2.4861,2.4861,0,0,0-.8611-1.12228,2.37988,2.37988,0,0,0-1.42225-.40987,2.32406,2.32406,0,0,0-1.47138.47193,2.90981,2.90981,0,0,0-.92964,1.38863,6.91233,6.91233,0,0,0-.32194,2.27043Z"/><path class="cls-6" d="M406.20161,163.12026l5.66313-18.67284h7.278l5.60754,18.67284H418.623l-.8081-3.52977h-5.102l-.834,3.52977Zm8.96016-13.9264-1.505,6.36133h3.24272l-1.45069-6.36133Z"/><path class="cls-6" d="M442.2026,145.41843a6.01891,6.01891,0,0,1,2.2575,2.53807,7.771,7.771,0,0,1,.73828,3.3578,7.54312,7.54312,0,0,1-.7525,3.35909,5.84489,5.84489,0,0,1-2.29758,2.46954,7.49383,7.49383,0,0,1-3.91248.92964h-2.70874v5.04769h-5.73166V144.44742h8.52315A7.09852,7.09852,0,0,1,442.2026,145.41843Zm-3.52847,3.93317a2.72881,2.72881,0,0,0-1.91615-.66329h-1.258v5.25327h1.258a2.99125,2.99125,0,0,0,1.38863-.30772,2.18778,2.18778,0,0,0,.92317-.896,2.86827,2.86827,0,0,0,.32841-1.42354A2.53158,2.53158,0,0,0,438.67413,149.3516Z"/><path class="cls-6" d="M464.00568,163.12026h-13.311V144.44742h13.311v4.41932h-7.6336v2.94017h7.12676v3.99523h-7.12676v2.9001h7.6336Z"/></svg>