<svg xmlns="http://www.w3.org/2000/svg" viewBox="0 0 424.6 183.51"><title>FINOS_Icon_Wordmark_Name_horz_White</title><path d="M267.63,311.28H286.5V314h-15.9v9.38h14.21v2.7H270.59v11.44h-3Z" transform="translate(-77.67 -242.47)" fill="#fff"/><path d="M291.63,310.71h3.3v3.19h-3.3Zm.19,7.43h2.89v19.39h-2.89Z" transform="translate(-77.67 -242.47)" fill="#fff"/><path d="M301.23,318.14h2.89v3.38a7.34,7.34,0,0,1,6.64-3.79c4.69,0,7.43,3.15,7.43,7.76v12h-2.89V326.2c0-3.6-2-5.85-5.36-5.85a5.71,5.71,0,0,0-5.81,6.08v11.1h-2.89Z" transform="translate(-77.67 -242.47)" fill="#fff"/><path d="M325.16,332.39v-11.7h-2.7v-2.55h2.7v-5.85H328v5.85h6.15v2.55H328V332c0,2.36,1.31,3.23,3.26,3.23a6.08,6.08,0,0,0,2.81-.67V337a7.26,7.26,0,0,1-3.49.83C327.52,337.87,325.16,336.33,325.16,332.39Z" transform="translate(-77.67 -242.47)" fill="#fff"/><path d="M337.34,327.89v-.07c0-5.59,3.94-10.09,9.3-10.09,5.74,0,9,4.58,9,10.24a7.23,7.23,0,0,1,0,.94H340.27c.41,4.2,3.38,6.56,6.83,6.56a8,8,0,0,0,6.11-2.74l1.8,1.61a10,10,0,0,1-8,3.64C341.69,338,337.34,333.89,337.34,327.89Zm15.42-1.12c-.3-3.53-2.33-6.6-6.19-6.6-3.38,0-5.93,2.81-6.3,6.6Z" transform="translate(-77.67 -242.47)" fill="#fff"/><path d="M359.35,327.93v-.08a10.1,10.1,0,0,1,17.7-6.68l-1.91,2c-1.54-1.61-3.26-2.93-5.89-2.93-3.94,0-6.94,3.34-6.94,7.5v.08a7.24,7.24,0,0,0,7.13,7.54,8,8,0,0,0,5.93-2.89l1.84,1.73a10,10,0,0,1-17.85-6.3Z" transform="translate(-77.67 -242.47)" fill="#fff"/><path d="M381.78,310.15h2.89v11.36a7.34,7.34,0,0,1,6.64-3.79c4.69,0,7.43,3.15,7.43,7.76v12h-2.89V326.2c0-3.6-1.95-5.85-5.36-5.85a5.7,5.7,0,0,0-5.81,6.08v11.1h-2.89Z" transform="translate(-77.67 -242.47)" fill="#fff"/><path d="M266.47,368.48v-.07a13.39,13.39,0,1,1,26.78-.08v.08a13.39,13.39,0,1,1-26.78.07Zm23.7,0v-.07c0-6-4.35-10.84-10.35-10.84s-10.28,4.8-10.28,10.76v.08c0,6,4.35,10.84,10.35,10.84S290.17,374.44,290.17,368.48Z" transform="translate(-77.67 -242.47)" fill="#fff"/><path d="M298.83,362.14h2.89V366c1.58-2.33,3.86-4.31,7.43-4.31,4.65,0,9.26,3.68,9.26,10.05v.08c0,6.34-4.58,10.09-9.26,10.09a8.75,8.75,0,0,1-7.43-4.12v9.71h-2.89Zm16.62,9.75v-.07c0-4.58-3.15-7.5-6.83-7.5a7.23,7.23,0,0,0-7,7.46v.08a7.22,7.22,0,0,0,7,7.5C312.37,379.36,315.45,376.58,315.45,371.89Z" transform="translate(-77.67 -242.47)" fill="#fff"/><path d="M322.34,371.89v-.07c0-5.59,3.94-10.09,9.3-10.09,5.74,0,9,4.58,9,10.24a7.41,7.41,0,0,1,0,.94H325.27c.41,4.2,3.38,6.56,6.83,6.56a8,8,0,0,0,6.11-2.74l1.8,1.61a10,10,0,0,1-8,3.64C326.69,382,322.34,377.89,322.34,371.89Zm15.42-1.12c-.3-3.53-2.33-6.6-6.19-6.6-3.38,0-5.93,2.81-6.3,6.6Z" transform="translate(-77.67 -242.47)" fill="#fff"/><path d="M345.55,362.14h2.89v3.38a7.35,7.35,0,0,1,6.64-3.79c4.69,0,7.43,3.15,7.43,7.76v12h-2.89V370.2c0-3.6-1.95-5.85-5.36-5.85a5.71,5.71,0,0,0-5.81,6.08v11.1h-2.89Z" transform="translate(-77.67 -242.47)" fill="#fff"/><path d="M378.29,377.7l1.84-2.17a12.51,12.51,0,0,0,9,3.71c3.53,0,5.85-1.87,5.85-4.46v-.08c0-2.44-1.31-3.83-6.83-5-6-1.31-8.81-3.26-8.81-7.58v-.08c0-4.13,3.64-7.16,8.63-7.16a13.7,13.7,0,0,1,9.23,3.23l-1.72,2.29a11.54,11.54,0,0,0-7.58-2.85c-3.41,0-5.59,1.88-5.59,4.24v.08c0,2.48,1.35,3.86,7.13,5.1s8.55,3.41,8.55,7.43v.07c0,4.5-3.75,7.43-9,7.43A15.36,15.36,0,0,1,378.29,377.7Z" transform="translate(-77.67 -242.47)" fill="#fff"/><path d="M402.14,371.93v-.08a10.11,10.11,0,0,1,20.21-.08v.08A10.07,10.07,0,0,1,412.19,382,9.93,9.93,0,0,1,402.14,371.93Zm17.25,0v-.08a7.34,7.34,0,0,0-7.2-7.58c-4.2,0-7.09,3.41-7.09,7.5v.08a7.27,7.27,0,0,0,7.16,7.54A7.16,7.16,0,0,0,419.39,371.93Z" transform="translate(-77.67 -242.47)" fill="#fff"/><path d="M427.08,374.18v-12H430v11.33c0,3.6,2,5.85,5.36,5.85a5.73,5.73,0,0,0,5.81-6.08v-11.1H444v19.39h-2.85v-3.38a7.39,7.39,0,0,1-6.64,3.79C429.82,381.94,427.08,378.79,427.08,374.18Z" transform="translate(-77.67 -242.47)" fill="#fff"/><path d="M450.29,362.14h2.89v5.06c1.43-3.23,4.24-5.55,7.91-5.4v3.11h-.22c-4.24,0-7.69,3-7.69,8.89v7.73h-2.89Z" transform="translate(-77.67 -242.47)" fill="#fff"/><path d="M463.27,371.93v-.08a10.1,10.1,0,0,1,17.7-6.68l-1.91,2c-1.54-1.61-3.26-2.93-5.89-2.93-3.94,0-6.94,3.34-6.94,7.5v.08a7.24,7.24,0,0,0,7.13,7.54,8,8,0,0,0,5.93-2.89l1.84,1.73a10,10,0,0,1-17.85-6.3Z" transform="translate(-77.67 -242.47)" fill="#fff"/><path d="M483.93,371.89v-.07c0-5.59,3.94-10.09,9.3-10.09,5.74,0,9,4.58,9,10.24a7.23,7.23,0,0,1,0,.94H486.85c.41,4.2,3.38,6.56,6.83,6.56a8,8,0,0,0,6.11-2.74l1.8,1.61a10,10,0,0,1-8,3.64C488.28,382,483.93,377.89,483.93,371.89Zm15.42-1.12c-.3-3.53-2.33-6.6-6.19-6.6-3.37,0-5.93,2.81-6.3,6.6Z" transform="translate(-77.67 -242.47)" fill="#fff"/><path d="M267.63,399.28H286.5V402h-15.9v9.38h14.21v2.7H270.59v11.44h-3Z" transform="translate(-77.67 -242.47)" fill="#fff"/><path d="M289.79,415.93v-.08a10.11,10.11,0,0,1,20.22-.08v.08A10.07,10.07,0,0,1,299.84,426,9.93,9.93,0,0,1,289.79,415.93Zm17.25,0v-.08a7.34,7.34,0,0,0-7.2-7.58c-4.2,0-7.09,3.41-7.09,7.5v.08a7.27,7.27,0,0,0,7.16,7.54A7.16,7.16,0,0,0,307,415.93Z" transform="translate(-77.67 -242.47)" fill="#fff"/><path d="M314.73,418.18v-12h2.89v11.33c0,3.6,2,5.85,5.36,5.85a5.73,5.73,0,0,0,5.81-6.08v-11.1h2.85v19.39h-2.85v-3.38a7.39,7.39,0,0,1-6.64,3.79C317.47,425.94,314.73,422.79,314.73,418.18Z" transform="translate(-77.67 -242.47)" fill="#fff"/><path d="M337.94,406.14h2.89v3.38a7.34,7.34,0,0,1,6.64-3.79c4.69,0,7.43,3.15,7.43,7.76v12H352V414.2c0-3.6-1.95-5.85-5.36-5.85a5.71,5.71,0,0,0-5.81,6.08v11.1h-2.89Z" transform="translate(-77.67 -242.47)" fill="#fff"/><path d="M359.73,415.89v-.07c0-6.34,4.61-10.09,9.26-10.09a8.75,8.75,0,0,1,7.43,4.13v-11.7h2.89v27.38h-2.89v-3.9c-1.58,2.33-3.86,4.31-7.43,4.31C364.34,425.94,359.73,422.27,359.73,415.89Zm16.8,0v-.08a7.21,7.21,0,0,0-7-7.46c-3.75,0-6.83,2.78-6.83,7.46v.08c0,4.58,3.19,7.5,6.83,7.5A7.24,7.24,0,0,0,376.53,415.85Z" transform="translate(-77.67 -242.47)" fill="#fff"/><path d="M384.29,419.91v-.08c0-4.09,3.38-6.26,8.29-6.26a20.59,20.59,0,0,1,6,.83v-.67c0-3.49-2.14-5.29-5.78-5.29a13.5,13.5,0,0,0-5.89,1.42l-.86-2.36a16,16,0,0,1,7.05-1.61c2.74,0,4.84.71,6.26,2.14a7.65,7.65,0,0,1,2,5.66v11.85h-2.78v-2.93a8.5,8.5,0,0,1-7,3.34C387.93,425.94,384.29,423.88,384.29,419.91Zm14.29-1.5v-1.88a20.25,20.25,0,0,0-5.7-.83c-3.64,0-5.66,1.58-5.66,4v.08c0,2.44,2.25,3.86,4.88,3.86C395.66,423.66,398.58,421.48,398.58,418.41Z" transform="translate(-77.67 -242.47)" fill="#fff"/><path d="M408.29,420.39v-11.7h-2.7v-2.55h2.7v-5.85h2.89v5.85h6.15v2.55h-6.15V420c0,2.36,1.31,3.23,3.26,3.23a6.07,6.07,0,0,0,2.81-.67V425a7.26,7.26,0,0,1-3.49.83C410.66,425.87,408.29,424.33,408.29,420.39Z" transform="translate(-77.67 -242.47)" fill="#fff"/><path d="M422.54,398.71h3.3v3.19h-3.3Zm.19,7.43h2.89v19.39h-2.89Z" transform="translate(-77.67 -242.47)" fill="#fff"/><path d="M430.94,415.93v-.08a10.11,10.11,0,0,1,20.22-.08v.08A10.07,10.07,0,0,1,441,426,9.93,9.93,0,0,1,430.94,415.93Zm17.25,0v-.08a7.34,7.34,0,0,0-7.2-7.58c-4.2,0-7.09,3.41-7.09,7.5v.08a7.28,7.28,0,0,0,7.16,7.54A7.16,7.16,0,0,0,448.19,415.93Z" transform="translate(-77.67 -242.47)" fill="#fff"/><path d="M456.18,406.14h2.89v3.38a7.34,7.34,0,0,1,6.64-3.79c4.69,0,7.43,3.15,7.43,7.76v12h-2.89V414.2c0-3.6-2-5.85-5.36-5.85a5.71,5.71,0,0,0-5.81,6.08v11.1h-2.89Z" transform="translate(-77.67 -242.47)" fill="#fff"/><polygon points="102.38 0 102.38 29.65 27.81 53.52 27.81 23.95 102.3 0.02 102.38 0" fill="#fff"/><polygon points="27.81 72.2 27.81 124.67 56.8 124.67 56.8 92.48 102.38 77.9 102.38 48.34 27.81 72.2" fill="#fff"/><path d="M77.67,396.32H99.81v5.82H84.07v6.19H97.94v5.81H84.07v11.26h-6.4Z" transform="translate(-77.67 -242.47)" fill="#fff"/><path d="M105.52,396.32h6.4v29.07h-6.4Z" transform="translate(-77.67 -242.47)" fill="#fff"/><path d="M119.18,396.32h5.9l13.62,17.9v-17.9H145v29.07h-5.44l-14.08-18.48v18.48h-6.31Z" transform="translate(-77.67 -242.47)" fill="#fff"/><path d="M150.49,410.94v-.08c0-8.26,6.52-15,15.49-15s15.41,6.69,15.41,15v.08c0,8.27-6.52,15-15.49,15S150.49,419.2,150.49,410.94Zm24.21,0v-.08a8.83,8.83,0,0,0-8.81-9.14c-5.15,0-8.72,4.07-8.72,9.05v.08A8.83,8.83,0,0,0,166,420C171.13,420,174.7,415.92,174.7,410.94Z" transform="translate(-77.67 -242.47)" fill="#fff"/><path d="M184.67,421.15l3.78-4.53a13.34,13.34,0,0,0,8.68,3.53c2.62,0,4.2-1,4.2-2.74v-.08c0-1.62-1-2.45-5.86-3.7-5.86-1.5-9.64-3.12-9.64-8.89v-.08c0-5.27,4.24-8.76,10.18-8.76a16.83,16.83,0,0,1,10.8,3.7l-3.32,4.82c-2.58-1.79-5.11-2.87-7.56-2.87s-3.74,1.12-3.74,2.53v.08c0,1.91,1.25,2.53,6.27,3.82,5.9,1.54,9.22,3.65,9.22,8.72v.08c0,5.77-4.4,9-10.67,9A18.5,18.5,0,0,1,184.67,421.15Z" transform="translate(-77.67 -242.47)" fill="#fff"/><path d="M180.05,290.64a.14.14,0,0,0,0-.1l-.05,0-28.69-9.18L105.48,296v.15a.14.14,0,0,0,0,.1l.05,0,28.71,9.19,45.77-14.65Z" transform="translate(-77.67 -242.47)" fill="#fff" opacity="0.6"/></svg>