<svg id="Layer_1" data-name="Layer 1" xmlns="http://www.w3.org/2000/svg" viewBox="0 0 316.27 91.61"><defs><style>.cls-1{fill:#f7b749;}.cls-2{fill:#ed362f;}.cls-3{fill:#43b85c;}.cls-4{fill:#2cb4e2;}</style></defs><path d="M220.32,224a5.71,5.71,0,0,1-6.54-6.54V210.7q0-3.36,1.61-4.95c1.07-1.06,2.71-1.57,4.93-1.55h3.5q3.36,0,5,1.59c1.06,1.06,1.59,2.7,1.59,4.94v6.71a6.74,6.74,0,0,1-1.59,4.94q-1.59,1.6-5,1.6Zm0-2.45h3.5a6.45,6.45,0,0,0,2.45-.38,2.17,2.17,0,0,0,1.26-1.26,6.45,6.45,0,0,0,.38-2.45v-6.71a6.37,6.37,0,0,0-.38-2.43,2.22,2.22,0,0,0-1.26-1.27,6.26,6.26,0,0,0-2.45-.38h-3.5a6.33,6.33,0,0,0-2.44.35,2.24,2.24,0,0,0-1.26,1.25,6.26,6.26,0,0,0-.38,2.45v6.74a6.47,6.47,0,0,0,.37,2.45,2.23,2.23,0,0,0,1.26,1.26A6.45,6.45,0,0,0,220.32,221.53Z" transform="translate(-99.27 -204.2)"/><path d="M236.66,229.81a1.08,1.08,0,0,1-1.23-1.22V210.41a1.23,1.23,0,0,1,2.46,0v.37a4.85,4.85,0,0,1,1.94-1.19,7.9,7.9,0,0,1,2.61-.41h1.11a5,5,0,0,1,5.71,5.72v3.36a5,5,0,0,1-5.71,5.72h-5.66v4.61A1.08,1.08,0,0,1,236.66,229.81Zm1.23-8.28h5.66a3.67,3.67,0,0,0,2.59-.69,3.72,3.72,0,0,0,.67-2.58V214.9a2.64,2.64,0,0,0-3.26-3.26h-1.11a10.12,10.12,0,0,0-3.15.43c-.89.3-1.36.76-1.4,1.39Z" transform="translate(-99.27 -204.2)"/><path d="M256.09,217.59v.7a3.6,3.6,0,0,0,.69,2.56,3.68,3.68,0,0,0,2.58.68h2.39a6.57,6.57,0,0,0,2.2-.28,1.5,1.5,0,0,0,.95-1,2,2,0,0,1,.45-.84,1.15,1.15,0,0,1,.87-.3,1.26,1.26,0,0,1,.93.33,1,1,0,0,1,.2.93,3.8,3.8,0,0,1-1.72,2.7,7.23,7.23,0,0,1-3.88.89h-2.39a5.9,5.9,0,0,1-4.31-1.4,5.84,5.84,0,0,1-1.41-4.29V214.9a5,5,0,0,1,5.72-5.72h2.39a5,5,0,0,1,5.72,5.72v1.46a1.08,1.08,0,0,1-1.22,1.23Zm3.27-6a3.6,3.6,0,0,0-2.58.65,3.71,3.71,0,0,0-.69,2.61v.24H265v-.24a2.65,2.65,0,0,0-3.27-3.26Z" transform="translate(-99.27 -204.2)"/><path d="M273.77,224a1.08,1.08,0,0,1-1.22-1.23V210.41a1.23,1.23,0,1,1,2.45,0v.48a5.81,5.81,0,0,1,4.55-1.71h.82a5,5,0,0,1,5.71,5.72v7.85a1.23,1.23,0,1,1-2.45,0V214.9a2.65,2.65,0,0,0-3.26-3.26h-.82a10.3,10.3,0,0,0-3.05.4c-.87.26-1.37.69-1.5,1.26v9.45A1.09,1.09,0,0,1,273.77,224Z" transform="translate(-99.27 -204.2)"/><path d="M215,262.54a1.27,1.27,0,0,1-.93-.3,1.24,1.24,0,0,1-.3-.92V244a1.28,1.28,0,0,1,.3-.94,1.31,1.31,0,0,1,.93-.29,1.06,1.06,0,0,1,1.23,1.23v17.3a1.07,1.07,0,0,1-1.23,1.22Z" transform="translate(-99.27 -204.2)"/><path d="M223.24,262.54a1.08,1.08,0,0,1-1.23-1.22V249a1.23,1.23,0,1,1,2.45,0v.48a5.82,5.82,0,0,1,4.55-1.71h.82a5,5,0,0,1,5.72,5.72v7.85a1.23,1.23,0,0,1-2.45,0v-7.85a3.64,3.64,0,0,0-.69-2.59,3.73,3.73,0,0,0-2.58-.68H229a10.23,10.23,0,0,0-3,.4c-.87.27-1.37.69-1.51,1.26v9.46A1.08,1.08,0,0,1,223.24,262.54Z" transform="translate(-99.27 -204.2)"/><path d="M242.82,262.54a1.08,1.08,0,0,1-1.23-1.22V250.2h-1.08a1.23,1.23,0,0,1,0-2.45h1.08v-.12a4.93,4.93,0,0,1,5.63-5.63q1,0,1.05,1.23c0,.81-.35,1.22-1.05,1.22a3.62,3.62,0,0,0-2.51.66,3.54,3.54,0,0,0-.67,2.52v.12h3a1.23,1.23,0,0,1,0,2.45h-3v11.12A1.08,1.08,0,0,1,242.82,262.54Z" transform="translate(-99.27 -204.2)"/><path d="M253.23,262.54a1.08,1.08,0,0,1-1.22-1.22V249a1.23,1.23,0,1,1,2.45,0v1.13a5.47,5.47,0,0,1,2.19-1.76,7.39,7.39,0,0,1,3.06-.6,1.23,1.23,0,0,1,0,2.45,6.67,6.67,0,0,0-3.85.93,3.06,3.06,0,0,0-1.4,2.47v7.72A1.08,1.08,0,0,1,253.23,262.54Z" transform="translate(-99.27 -204.2)"/><path d="M267.85,262.54a4.86,4.86,0,1,1,0-9.68H274a2.79,2.79,0,0,0-.8-2.1,4.11,4.11,0,0,0-2.45-.56h-1.7a8.87,8.87,0,0,0-2.17.2,1.58,1.58,0,0,0-1,.71,2.17,2.17,0,0,1-.54.84,1.23,1.23,0,0,1-.83.23,1.3,1.3,0,0,1-1-.34.88.88,0,0,1-.2-.91,3.68,3.68,0,0,1,1.83-2.41,8,8,0,0,1,3.88-.77h1.7a5,5,0,0,1,5.71,5.72v7.85a1.23,1.23,0,0,1-2.45,0v-.66a5.55,5.55,0,0,1-4.55,1.88Zm0-2.45h1.63a10.07,10.07,0,0,0,2-.19,4.12,4.12,0,0,0,1.63-.73,2.49,2.49,0,0,0,.89-1.5v-2.36h-6.18a2.76,2.76,0,0,0-1.92,4.31A2.84,2.84,0,0,0,267.85,260.09Z" transform="translate(-99.27 -204.2)"/><path d="M285.44,262.54a5,5,0,0,1-2.93-.76,3.56,3.56,0,0,1-1.39-2.3,1.09,1.09,0,0,1,.24-1,1.26,1.26,0,0,1,1-.35,1.15,1.15,0,0,1,.87.29,2.29,2.29,0,0,1,.44.9,1,1,0,0,0,.59.59,4.2,4.2,0,0,0,1.22.14h4.79a2.27,2.27,0,0,0,1.53-.37,3.28,3.28,0,0,0,0-3.1,2.26,2.26,0,0,0-1.53-.38h-4.7A3.74,3.74,0,0,1,281.3,252a4.4,4.4,0,0,1,1-3.2,4.29,4.29,0,0,1,3.19-1.06h4.55q3.44,0,4.06,2.89a1,1,0,0,1-.24,1,1.33,1.33,0,0,1-1,.33,1.11,1.11,0,0,1-.85-.3,2.07,2.07,0,0,1-.43-.84.91.91,0,0,0-.54-.46,3.39,3.39,0,0,0-1-.12h-4.55a2.08,2.08,0,0,0-1.44.34,2.14,2.14,0,0,0-.34,1.47,2,2,0,0,0,.36,1.41,2,2,0,0,0,1.42.37h4.7a4.39,4.39,0,1,1,0,8.75Z" transform="translate(-99.27 -204.2)"/><path d="M305.75,262.54a4.89,4.89,0,0,1-5.63-5.6V250.2h-1.43a1.23,1.23,0,1,1,0-2.45h1.43v-2.13a1.23,1.23,0,1,1,2.45,0v2.13h3.35a1.23,1.23,0,1,1,0,2.45h-3.35v6.74a3.47,3.47,0,0,0,.67,2.5,3.6,3.6,0,0,0,2.51.65,1.33,1.33,0,0,1,.9.29,1.21,1.21,0,0,1,.33.94A1.08,1.08,0,0,1,305.75,262.54Z" transform="translate(-99.27 -204.2)"/><path d="M312.66,262.54a1.08,1.08,0,0,1-1.22-1.22V249a1.23,1.23,0,1,1,2.45,0v1.13a5.5,5.5,0,0,1,2.2-1.76,7.35,7.35,0,0,1,3.05-.6,1.23,1.23,0,1,1,0,2.45,6.67,6.67,0,0,0-3.85.93,3.08,3.08,0,0,0-1.4,2.47v7.72A1.08,1.08,0,0,1,312.66,262.54Z" transform="translate(-99.27 -204.2)"/><path d="M335.63,247.75a1.08,1.08,0,0,1,1.22,1.23v12.34a1.23,1.23,0,0,1-2.45,0v-.48a5.86,5.86,0,0,1-4.55,1.7H329a5,5,0,0,1-5.72-5.72V249a1.23,1.23,0,1,1,2.45,0v7.84a2.67,2.67,0,0,0,3.27,3.27h.82a10.3,10.3,0,0,0,3-.4q1.29-.4,1.5-1.26V249A1.09,1.09,0,0,1,335.63,247.75Z" transform="translate(-99.27 -204.2)"/><path d="M347.65,262.54a5,5,0,0,1-5.72-5.72v-3.38a5.9,5.9,0,0,1,1.39-4.32,5.81,5.81,0,0,1,4.33-1.37H350a6.74,6.74,0,0,1,3.42.73,3.37,3.37,0,0,1,1.6,2.25,1,1,0,0,1-.21.94,1.34,1.34,0,0,1-1,.34,1.09,1.09,0,0,1-.83-.29,3.22,3.22,0,0,1-.48-.82,1.25,1.25,0,0,0-.8-.55,7.34,7.34,0,0,0-1.71-.15h-2.39a2.63,2.63,0,0,0-3.27,3.24v3.38a3.67,3.67,0,0,0,.69,2.59,3.71,3.71,0,0,0,2.58.68H350a7.34,7.34,0,0,0,1.71-.15,1.22,1.22,0,0,0,.8-.55,2.52,2.52,0,0,1,.49-.83,1.16,1.16,0,0,1,.85-.28,1.34,1.34,0,0,1,1,.34,1,1,0,0,1,.21.95,3.42,3.42,0,0,1-1.6,2.24,6.74,6.74,0,0,1-3.42.73Z" transform="translate(-99.27 -204.2)"/><path d="M366.12,262.54a4.89,4.89,0,0,1-5.63-5.6V250.2h-1.44a1.23,1.23,0,0,1,0-2.45h1.44v-2.13a1.23,1.23,0,1,1,2.45,0v2.13h3.35a1.23,1.23,0,1,1,0,2.45h-3.35v6.74a3.47,3.47,0,0,0,.67,2.5,3.59,3.59,0,0,0,2.51.65,1.31,1.31,0,0,1,.89.29,1.21,1.21,0,0,1,.33.94A1.08,1.08,0,0,1,366.12,262.54Z" transform="translate(-99.27 -204.2)"/><path d="M383.83,247.75a1.08,1.08,0,0,1,1.22,1.23v12.34a1.23,1.23,0,0,1-2.45,0v-.48a5.86,5.86,0,0,1-4.55,1.7h-.82a5,5,0,0,1-5.72-5.72V249a1.23,1.23,0,1,1,2.45,0v7.84a2.67,2.67,0,0,0,3.27,3.27h.82a10.3,10.3,0,0,0,3.05-.4q1.29-.4,1.5-1.26V249A1.09,1.09,0,0,1,383.83,247.75Z" transform="translate(-99.27 -204.2)"/><path d="M392.05,262.54a1.08,1.08,0,0,1-1.22-1.22V249a1.23,1.23,0,1,1,2.45,0v1.13a5.5,5.5,0,0,1,2.2-1.76,7.31,7.31,0,0,1,3-.6,1.23,1.23,0,1,1,0,2.45,6.67,6.67,0,0,0-3.85.93,3.08,3.08,0,0,0-1.4,2.47v7.72A1.08,1.08,0,0,1,392.05,262.54Z" transform="translate(-99.27 -204.2)"/><path d="M404.16,256.15v.7a3.58,3.58,0,0,0,.69,2.56,3.66,3.66,0,0,0,2.58.68h2.39a6.43,6.43,0,0,0,2.21-.28,1.51,1.51,0,0,0,.94-1,2.06,2.06,0,0,1,.45-.85,1.18,1.18,0,0,1,.87-.29,1.26,1.26,0,0,1,.93.32,1,1,0,0,1,.21.93,3.82,3.82,0,0,1-1.73,2.7,7.12,7.12,0,0,1-3.88.89h-2.39a5,5,0,0,1-5.72-5.69v-3.38a5.91,5.91,0,0,1,1.41-4.36,5.85,5.85,0,0,1,4.31-1.36h2.39a5,5,0,0,1,5.72,5.72v1.46a1.08,1.08,0,0,1-1.22,1.22Zm3.27-5.95a3.58,3.58,0,0,0-2.58.66,3.68,3.68,0,0,0-.69,2.61v.23h8.93v-.23a2.65,2.65,0,0,0-3.27-3.27Z" transform="translate(-99.27 -204.2)"/><path d="M214.4,295.79a.54.54,0,0,1-.62-.61V283.54a.55.55,0,0,1,.62-.62h7.13a.66.66,0,0,1,.46.16.61.61,0,0,1,.16.46.55.55,0,0,1-.62.62H215v4.51h4.3a.62.62,0,1,1,0,1.23H215v5.28A.54.54,0,0,1,214.4,295.79Z" transform="translate(-99.27 -204.2)"/><path d="M229.68,295.79a3.63,3.63,0,0,1-4.19-4.19v-4.49a4.39,4.39,0,0,1,1-3.2,4.32,4.32,0,0,1,3.17-1H232a3.63,3.63,0,0,1,4.19,4.2v4.48a3.63,3.63,0,0,1-4.19,4.19Zm0-1.23H232a4.6,4.6,0,0,0,1.75-.28,1.71,1.71,0,0,0,.92-.93,4.44,4.44,0,0,0,.28-1.75v-4.48a4.41,4.41,0,0,0-.28-1.75,1.71,1.71,0,0,0-.92-.93,4.41,4.41,0,0,0-1.75-.28h-2.37a4.43,4.43,0,0,0-1.74.26,1.71,1.71,0,0,0-.92.93,4.46,4.46,0,0,0-.28,1.76v4.49a4.44,4.44,0,0,0,.28,1.75,1.71,1.71,0,0,0,.92.93A4.67,4.67,0,0,0,229.68,294.56Z" transform="translate(-99.27 -204.2)"/><path d="M245.76,295.79a3.63,3.63,0,0,1-4.19-4.19v-8.06a.62.62,0,1,1,1.24,0v8.06a4.44,4.44,0,0,0,.28,1.75,1.7,1.7,0,0,0,.93.93,4.58,4.58,0,0,0,1.74.28h2.36a4.56,4.56,0,0,0,1.75-.28,1.76,1.76,0,0,0,.93-.93,4.63,4.63,0,0,0,.28-1.75v-8.06a.61.61,0,0,1,.16-.46.66.66,0,0,1,.46-.16.65.65,0,0,1,.45.16.61.61,0,0,1,.16.46v8.06a3.62,3.62,0,0,1-4.19,4.19Z" transform="translate(-99.27 -204.2)"/><path d="M258.61,295.79a.54.54,0,0,1-.62-.61V283.54a.55.55,0,0,1,.62-.62.85.85,0,0,1,.63.37l8.17,10.51h-.29V283.54a.62.62,0,1,1,1.24,0v11.64a.54.54,0,0,1-.62.61.84.84,0,0,1-.63-.36l-8.18-10.51h.3v10.26A.54.54,0,0,1,258.61,295.79Z" transform="translate(-99.27 -204.2)"/><path d="M274.75,295.79a.54.54,0,0,1-.62-.61V283.54a.55.55,0,0,1,.62-.62h4.73a4.13,4.13,0,0,1,4.78,4.78V291a4.12,4.12,0,0,1-4.78,4.78Zm.62-1.23h4.11a5.38,5.38,0,0,0,2.09-.34,2.12,2.12,0,0,0,1.12-1.12A5.45,5.45,0,0,0,283,291V287.7a5.4,5.4,0,0,0-.34-2.08,2.08,2.08,0,0,0-1.12-1.12,5.2,5.2,0,0,0-2.09-.34h-4.11Z" transform="translate(-99.27 -204.2)"/><path d="M288.63,295.74a.57.57,0,0,1-.34-.82l4.8-11.52a.72.72,0,0,1,.7-.48h0a.68.68,0,0,1,.66.48l4.84,11.52a.56.56,0,0,1-.34.82.54.54,0,0,1-.8-.34L297,292.49h-6.33l-1.21,2.91A.55.55,0,0,1,288.63,295.74Zm2.52-4.49h5.31l-2.67-6.37Z" transform="translate(-99.27 -204.2)"/><path d="M306.12,295.8a.61.61,0,0,1-.46-.16.65.65,0,0,1-.16-.45v-11h-4.05a.65.65,0,0,1-.46-1.08.66.66,0,0,1,.46-.16h9.34a.66.66,0,0,1,.46.16.62.62,0,0,1-.46,1.08h-4.05v11a.65.65,0,0,1-.16.45A.61.61,0,0,1,306.12,295.8Z" transform="translate(-99.27 -204.2)"/><path d="M316.33,295.79a.59.59,0,0,1-.45-.16.61.61,0,0,1-.17-.45V283.54a.6.6,0,0,1,.17-.46.59.59,0,0,1,.45-.16.56.56,0,0,1,.62.62v11.64a.56.56,0,0,1-.62.61Z" transform="translate(-99.27 -204.2)"/><path d="M326.58,295.79a3.63,3.63,0,0,1-4.19-4.19v-4.49a4.34,4.34,0,0,1,1-3.2,4.28,4.28,0,0,1,3.16-1h2.37a3.62,3.62,0,0,1,4.19,4.2v4.48a3.62,3.62,0,0,1-4.19,4.19Zm0-1.23h2.36a4.6,4.6,0,0,0,1.75-.28,1.76,1.76,0,0,0,.93-.93,4.63,4.63,0,0,0,.28-1.75v-4.48a4.6,4.6,0,0,0-.28-1.75,1.76,1.76,0,0,0-.93-.93,4.41,4.41,0,0,0-1.75-.28h-2.37a4.43,4.43,0,0,0-1.74.26,1.71,1.71,0,0,0-.92.93,4.46,4.46,0,0,0-.28,1.76v4.49a4.44,4.44,0,0,0,.28,1.75,1.7,1.7,0,0,0,.93.93A4.58,4.58,0,0,0,326.58,294.56Z" transform="translate(-99.27 -204.2)"/><path d="M339.19,295.79a.54.54,0,0,1-.62-.61V283.54a.55.55,0,0,1,.62-.62.82.82,0,0,1,.63.37L348,293.8h-.3V283.54a.62.62,0,0,1,1.24,0v11.64a.54.54,0,0,1-.62.61.84.84,0,0,1-.63-.36l-8.18-10.51h.3v10.26A.54.54,0,0,1,339.19,295.79Z" transform="translate(-99.27 -204.2)"/><polygon class="cls-1" points="0 15.27 0 22.9 52.51 22.9 0 75.42 5.4 80.81 70.94 15.27 0 15.27"/><polygon class="cls-2" points="78.58 7.63 86.21 0 0 0 0 7.63 78.58 7.63"/><polygon class="cls-3" points="83.98 13.03 83.98 91.61 91.61 91.61 91.61 5.4 83.98 13.03"/><polygon class="cls-4" points="76.34 91.61 76.34 20.67 10.8 86.21 16.19 91.61 68.71 39.1 68.71 91.61 76.34 91.61"/></svg>