<svg id="Layer_1" data-name="Layer 1" xmlns="http://www.w3.org/2000/svg" viewBox="0 0 300 70.67"><defs><style>.cls-1{fill:#f7b749;}.cls-2{fill:#ed362f;}.cls-3{fill:#43b85c;}.cls-4{fill:#2cb4e2;}</style></defs><path d="M198.19,245.61q-5,0-7.44-2.41t-2.41-7.44V225.61c0-3.39.81-5.87,2.42-7.46s4.09-2.37,7.43-2.34h5.27c3.37,0,5.86.8,7.45,2.39s2.4,4.08,2.4,7.45v10.11q0,5-2.4,7.44c-1.59,1.61-4.08,2.41-7.45,2.41Zm0-3.69h5.27a10,10,0,0,0,3.7-.56,3.47,3.47,0,0,0,1.9-1.9,10,10,0,0,0,.56-3.7V225.65a9.86,9.86,0,0,0-.56-3.67,3.49,3.49,0,0,0-1.9-1.91,9.73,9.73,0,0,0-3.7-.57h-5.27a9.5,9.5,0,0,0-3.67.53,3.35,3.35,0,0,0-1.91,1.89,9.62,9.62,0,0,0-.58,3.69v10.15a10,10,0,0,0,.56,3.7,3.46,3.46,0,0,0,1.91,1.9A9.86,9.86,0,0,0,198.19,241.92Z" transform="translate(-100 -214.66)"/><path d="M222.81,254.4a1.63,1.63,0,0,1-1.85-1.84V225.17a1.85,1.85,0,1,1,3.69,0v.55a7.54,7.54,0,0,1,2.94-1.79,11.73,11.73,0,0,1,3.92-.61h1.67c2.93,0,5.1.71,6.5,2.11s2.12,3.58,2.12,6.51V237q0,4.38-2.12,6.5t-6.5,2.12h-8.53v6.95A1.62,1.62,0,0,1,222.81,254.4Zm1.84-12.48h8.53c1.92,0,3.22-.35,3.9-1s1-2,1-3.9v-5.05q0-2.88-1-3.9t-3.9-1h-1.67a15.26,15.26,0,0,0-4.75.66c-1.33.43-2,1.13-2.11,2.08Z" transform="translate(-100 -214.66)"/><path d="M252.08,236V237c0,1.89.35,3.17,1,3.86s2,1,3.89,1h3.61a9.78,9.78,0,0,0,3.32-.42,2.32,2.32,0,0,0,1.43-1.47,3,3,0,0,1,.67-1.28,1.76,1.76,0,0,1,1.31-.44,1.87,1.87,0,0,1,1.4.49,1.47,1.47,0,0,1,.31,1.4,5.76,5.76,0,0,1-2.59,4.07,10.92,10.92,0,0,1-5.85,1.34H257c-2.91,0-5.08-.7-6.49-2.11s-2.12-3.56-2.12-6.46v-5.1c0-3,.71-5.16,2.12-6.56s3.58-2.09,6.49-2.06h3.61q4.39,0,6.5,2.1t2.12,6.52v2.2a1.63,1.63,0,0,1-1.85,1.84Zm4.92-9c-1.9,0-3.2.3-3.89,1s-1,2-1,3.93v.35h13.45v-.35q0-2.88-1-3.9t-3.9-1Z" transform="translate(-100 -214.66)"/><path d="M278.72,245.61a1.63,1.63,0,0,1-1.85-1.85V225.17a1.85,1.85,0,1,1,3.7,0v.72q2.32-2.56,6.86-2.57h1.22c2.93,0,5.1.71,6.51,2.11s2.11,3.58,2.11,6.51v11.82a1.85,1.85,0,1,1-3.69,0V231.94q0-2.88-1.05-3.9c-.69-.68-2-1-3.88-1h-1.22a15.79,15.79,0,0,0-4.6.6c-1.3.4-2.06,1-2.26,1.9v14.24A1.63,1.63,0,0,1,278.72,245.61Z" transform="translate(-100 -214.66)"/><path d="M307.38,245.61a1.93,1.93,0,0,1-1.4-.45,2,2,0,0,1-.45-1.4V217.7a1.94,1.94,0,0,1,.45-1.41,2,2,0,0,1,1.4-.44,1.59,1.59,0,0,1,1.85,1.85v26.06a2,2,0,0,1-.44,1.4A1.91,1.91,0,0,1,307.38,245.61Z" transform="translate(-100 -214.66)"/><path d="M319.78,245.61a1.63,1.63,0,0,1-1.85-1.85V225.17a1.85,1.85,0,1,1,3.69,0v.72c1.56-1.71,3.84-2.57,6.86-2.57h1.23c2.93,0,5.1.71,6.51,2.11s2.11,3.58,2.11,6.51v11.82a1.85,1.85,0,1,1-3.7,0V231.94c0-1.92-.34-3.22-1-3.9s-2-1-3.88-1h-1.23a15.67,15.67,0,0,0-4.59.6c-1.31.4-2.06,1-2.27,1.9v14.24A1.63,1.63,0,0,1,319.78,245.61Z" transform="translate(-100 -214.66)"/><path d="M349.27,245.61a1.63,1.63,0,0,1-1.84-1.85V227H345.8a1.85,1.85,0,0,1,0-3.7h1.63v-.17c0-2.89.69-5,2.09-6.41s3.52-2.08,6.39-2.08c1.06,0,1.58.62,1.58,1.85s-.52,1.85-1.58,1.85c-1.85,0-3.11.32-3.78,1s-1,1.93-1,3.81v.17h4.53a1.85,1.85,0,0,1,0,3.7h-4.53v16.74A1.63,1.63,0,0,1,349.27,245.61Z" transform="translate(-100 -214.66)"/><path d="M365,245.61a1.63,1.63,0,0,1-1.85-1.85V225.17a1.85,1.85,0,1,1,3.69,0v1.71a8.36,8.36,0,0,1,3.31-2.66,11.15,11.15,0,0,1,4.61-.9,1.85,1.85,0,0,1,0,3.7,10.05,10.05,0,0,0-5.81,1.4,4.64,4.64,0,0,0-2.11,3.72v11.62A1.63,1.63,0,0,1,365,245.61Z" transform="translate(-100 -214.66)"/><path d="M387,245.61c-2.46,0-4.3-.6-5.5-1.8s-1.8-3-1.8-5.5.6-4.29,1.79-5.49,3-1.8,5.51-1.8h9.3a4.21,4.21,0,0,0-1.21-3.16,6.16,6.16,0,0,0-3.7-.84h-2.55a13.26,13.26,0,0,0-3.27.29,2.41,2.41,0,0,0-1.52,1.07,3.38,3.38,0,0,1-.81,1.27A1.88,1.88,0,0,1,382,230a2,2,0,0,1-1.45-.52,1.34,1.34,0,0,1-.31-1.38,5.59,5.59,0,0,1,2.76-3.63,12.25,12.25,0,0,1,5.85-1.16h2.55c2.93,0,5.1.71,6.51,2.11S400,229,400,231.94v11.82a1.85,1.85,0,1,1-3.69,0v-1a8.39,8.39,0,0,1-6.86,2.84Zm0-3.69h2.46a14.81,14.81,0,0,0,3.05-.3,5.94,5.94,0,0,0,2.46-1.09,3.77,3.77,0,0,0,1.35-2.26v-3.56H387a3.66,3.66,0,1,0,0,7.21Z" transform="translate(-100 -214.66)"/><path d="M189.08,285.32a.65.65,0,0,1-.74-.73V270.7a.65.65,0,0,1,.74-.74h8.51a.67.67,0,0,1,.74.74.65.65,0,0,1-.74.73h-7.77v5.38H195a.74.74,0,0,1,0,1.48h-5.13v6.3A.65.65,0,0,1,189.08,285.32Z" transform="translate(-100 -214.66)"/><path d="M207.32,285.32a4.32,4.32,0,0,1-5-5V275a5.17,5.17,0,0,1,1.21-3.81,5.07,5.07,0,0,1,3.78-1.18h2.82a4.32,4.32,0,0,1,5,5v5.36a4.32,4.32,0,0,1-5,5Zm0-1.47h2.81a5.22,5.22,0,0,0,2.1-.34,2,2,0,0,0,1.1-1.1,5.47,5.47,0,0,0,.33-2.09V275a5.38,5.38,0,0,0-.33-2.08,2,2,0,0,0-1.1-1.11,5.22,5.22,0,0,0-2.1-.34h-2.82a5.37,5.37,0,0,0-2.08.32,2,2,0,0,0-1.1,1.1,5.29,5.29,0,0,0-.34,2.1v5.37a5.27,5.27,0,0,0,.34,2.09,2,2,0,0,0,1.1,1.1A5.27,5.27,0,0,0,207.32,283.85Z" transform="translate(-100 -214.66)"/><path d="M226.52,285.32a4.32,4.32,0,0,1-5-5V270.7a.74.74,0,0,1,.19-.55.73.73,0,0,1,.54-.19.67.67,0,0,1,.74.74v9.62a5.27,5.27,0,0,0,.34,2.09,2,2,0,0,0,1.1,1.1,5.27,5.27,0,0,0,2.09.34h2.81a5.22,5.22,0,0,0,2.1-.34,2,2,0,0,0,1.1-1.1,5.47,5.47,0,0,0,.33-2.09V270.7a.74.74,0,0,1,.2-.55.73.73,0,0,1,.54-.19.67.67,0,0,1,.74.74v9.62a4.32,4.32,0,0,1-5,5Z" transform="translate(-100 -214.66)"/><path d="M241.85,285.32a.64.64,0,0,1-.73-.73V270.7a.65.65,0,0,1,.73-.74,1,1,0,0,1,.75.43l9.77,12.55H252V270.7a.74.74,0,1,1,1.47,0v13.89a.64.64,0,0,1-.73.73,1,1,0,0,1-.75-.43l-9.77-12.55h.35v12.25A.65.65,0,0,1,241.85,285.32Z" transform="translate(-100 -214.66)"/><path d="M261.12,285.32a.64.64,0,0,1-.73-.73V270.7a.65.65,0,0,1,.73-.74h5.66a4.93,4.93,0,0,1,5.7,5.71v3.95a6,6,0,0,1-1.36,4.33,5.9,5.9,0,0,1-4.34,1.37Zm.74-1.47h4.92a6.33,6.33,0,0,0,2.49-.41,2.48,2.48,0,0,0,1.33-1.33,6.33,6.33,0,0,0,.41-2.49v-3.95a6.42,6.42,0,0,0-.41-2.5,2.48,2.48,0,0,0-1.33-1.33,6.33,6.33,0,0,0-2.49-.41h-4.92Z" transform="translate(-100 -214.66)"/><path d="M277.7,285.25a.67.67,0,0,1-.41-1L283,270.53a.85.85,0,0,1,.83-.57h.06a.81.81,0,0,1,.8.57l5.77,13.75a.66.66,0,0,1-.4,1,.65.65,0,0,1-1-.39l-1.46-3.49H280.1l-1.44,3.49A.64.64,0,0,1,277.7,285.25Zm3-5.35H287l-3.19-7.61Z" transform="translate(-100 -214.66)"/><path d="M298.58,285.34a.74.74,0,0,1-.55-.2.77.77,0,0,1-.19-.54V271.43H293a.75.75,0,0,1-.55-.19.73.73,0,0,1-.19-.54.74.74,0,0,1,.19-.55A.75.75,0,0,1,293,270h11.16a.73.73,0,0,1,.54.19.74.74,0,0,1,.2.55.68.68,0,0,1-.74.73h-4.84V284.6a.77.77,0,0,1-.2.54A.72.72,0,0,1,298.58,285.34Z" transform="translate(-100 -214.66)"/><path d="M310.77,285.32a.75.75,0,0,1-.55-.19.73.73,0,0,1-.19-.54V270.7a.75.75,0,0,1,.19-.56.79.79,0,0,1,.55-.18.76.76,0,0,1,.55.18.79.79,0,0,1,.19.56v13.89a.77.77,0,0,1-.19.54A.72.72,0,0,1,310.77,285.32Z" transform="translate(-100 -214.66)"/><path d="M323,285.32a4.33,4.33,0,0,1-5-5V275a5.17,5.17,0,0,1,1.22-3.81A5,5,0,0,1,323,270h2.82a4.33,4.33,0,0,1,5,5v5.36a4.33,4.33,0,0,1-5,5Zm0-1.47h2.81a5.2,5.2,0,0,0,2.09-.34,2.06,2.06,0,0,0,1.11-1.1,5.47,5.47,0,0,0,.33-2.09V275a5.38,5.38,0,0,0-.33-2.08,2,2,0,0,0-1.11-1.11,5.2,5.2,0,0,0-2.09-.34H323a5.46,5.46,0,0,0-2.09.32,2.08,2.08,0,0,0-1.1,1.1,5.49,5.49,0,0,0-.33,2.1v5.37a5.47,5.47,0,0,0,.33,2.09,2.1,2.1,0,0,0,1.11,1.1A5.24,5.24,0,0,0,323,283.85Z" transform="translate(-100 -214.66)"/><path d="M338.06,285.32a.65.65,0,0,1-.74-.73V270.7a.65.65,0,0,1,.74-.74,1,1,0,0,1,.75.43l9.76,12.55h-.35V270.7a.74.74,0,0,1,1.48,0v13.89a.65.65,0,0,1-.74.73,1,1,0,0,1-.75-.43l-9.76-12.55h.35v12.25A.65.65,0,0,1,338.06,285.32Z" transform="translate(-100 -214.66)"/><polygon class="cls-1" points="0 11.78 0 17.67 40.51 17.67 0 58.18 4.16 62.34 54.73 11.78 0 11.78"/><polygon class="cls-2" points="60.62 5.89 66.51 0 0 0 0 5.89 60.62 5.89"/><polygon class="cls-3" points="64.78 10.05 64.78 70.67 70.67 70.67 70.67 4.16 64.78 10.05"/><polygon class="cls-4" points="58.9 70.67 58.9 15.94 8.33 66.51 12.49 70.67 53.01 30.16 53.01 70.67 58.9 70.67"/></svg>