<svg id="Layer_1" data-name="Layer 1" xmlns="http://www.w3.org/2000/svg" viewBox="0 0 941.05072 265.26263"><defs><style>.cls-1{fill:none;}.cls-2{fill:#43af5a;}.cls-3{fill:#fc0;}.cls-4{fill:#d2e4f4;}.cls-5{fill:#009ade;}.cls-6{fill:#003764;}.cls-7{fill:#666;opacity:0.8;}.cls-8{opacity:0.9;}.cls-9{fill:#333;}</style></defs><title>lf-energy-landscape</title><path class="cls-1" d="M742.36646,80.21082a8.48009,8.48009,0,0,0,2.715-6.656,9.03009,9.03009,0,0,0-2.507-6.826q-2.5079-2.412-7.486-2.489h-10.068v18.403h9.804Q739.65049,82.64282,742.36646,80.21082Zm-12.083,128.324a11.505,11.505,0,0,0,3.962,9.293,15.22505,15.22505,0,0,0,10.182,3.349,22.2198,22.2198,0,0,0,11.275-3.076,18.612,18.612,0,0,0,7.721-7.994v-15.17h-9.908q-23.234,0-23.23193,13.598Zm-205.609-42.297q-9.295,0-14.487,7.175-5.194,7.175-5.193,21.25,0,12.575,5.193,19.68a16.784,16.784,0,0,0,14.35,7.107q12.024,0,17.56-10.797v-33.96q-5.672-10.454-17.424-10.455Zm14.134-85.235q2.678-2.395,2.678-6.92a9.49906,9.49906,0,0,0-2.715-7.109,10.472,10.472,0,0,0-7.467-2.734h-11.727v19.157h11.463Q536.13046,83.39682,538.80841,81.00282Zm137.415,9.974h15.914l-7.957-22.777-7.957,22.777Zm227.279,74.919a16.864,16.864,0,0,0-12.846,5.57q-5.193,5.569-6.423,15.613h37.035v-.956q-.54793-9.636-5.193-14.93-4.647-5.295-12.573-5.297Zm-515.043-101.656h-6.675v39.52h6.222q7.504,0,11.52-4.686,4.017-4.686,4.092-13.455v-3.048q0-8.92-3.884-13.625-3.88494-4.706-11.2749-4.706Zm-35.845,144.295a11.505,11.505,0,0,0,3.964,9.293,15.224,15.224,0,0,0,10.181,3.349,22.21986,22.21986,0,0,0,11.275-3.076,18.605,18.605,0,0,0,7.721-7.994v-15.17h-9.907q-23.234,0-23.233,13.598Zm473.127-42.297q-11.47906,0-17.22,10.182v35.327q5.67105,10.113,17.356,10.113a17.087,17.087,0,0,0,14.452-7.209q5.365-7.208,5.365-21.422-.00009-12.505-5.33-19.748a17.17,17.17,0,0,0-14.623-7.243Z"/><path class="cls-2" d="M168.3457,202.05969h34.229V172.1716c-12.12563-8.68672-24.14118-17.38219-36.03913-26.30659-3.62779-2.75213-6.37993-2.87722-10.00773.1251-6.75522,5.62935-13.88574,10.75832-20.76607,16.26258-2.87723,2.25174-5.00388,2.25174-7.63091-.50039-12.50967-12.63476-25.39462-25.01933-37.7792-37.7792-3.12742-3.25251-5.37917-3.25251-8.75677-.50039C68.9426,133.872,56.229,144.15118,43.49918,154.43413v47.6268H145.6844v31.20788h22.66127V202.06093Z"/><path class="cls-3" d="M153.90079,112.46294a25.2703,25.2703,0,1,0-25.51972-25.26953A25.27029,25.27029,0,0,0,153.90079,112.46294Z"/><path class="cls-4" d="M43.4992,99.84944v54.58345C56.22905,144.15,68.94388,133.87076,81.59489,123.47145c3.37761-2.75212,5.62935-2.75212,8.75676.50039,12.38459,12.75986,25.26954,25.14443,37.77921,37.77921,2.627,2.75212,4.75368,2.75212,7.6309.50038,6.88033-5.50425,14.01082-10.63322,20.76607-16.26257,3.62779-3.00232,6.38-2.87723,10.00774-.12511,11.898,8.9244,23.91348,17.62113,36.03912,26.30785V43.07681H43.43541V77.14814H10.25726V99.85069H43.4992ZM153.7757,61.92387a24.99432,24.99432,0,0,1,25.27121,24.71431v0q.00379.34014-.00168.6803a25.33216,25.33216,0,0,1-50.66416-.1251h0a25.06937,25.06937,0,0,1,24.86629-25.27083h0Q153.51154,61.92043,153.7757,61.92387Z"/><path class="cls-5" d="M145.68445,202.05969H43.4992V99.84944H10.25726V233.26756H145.68445Z"/><path class="cls-6" d="M10.25726,18.62916V77.14689H43.43541V43.07806H202.57466V202.05969h-34.229v31.20789H236.2644V9.17185H10.25726Z"/><path class="cls-7" d="M278.48535,133.7246h-13.188v99.49h60.337v-10.727h-47.149v-88.763Zm116.437,48.174q-.274-11.206-7.517-17.596-7.243-6.388-20.02-6.389a35.86511,35.86511,0,0,0-14.795,3.006,26.826,26.826,0,0,0-10.66,8.166,17.443,17.443,0,0,0-3.929,10.694h12.71q0-4.85,4.579-8.268a18.433,18.433,0,0,1,11.342-3.417q7.722,0,11.685,3.93,3.962,3.93,3.963,10.556v5.809h-12.3q-15.922,0-24.701,6.389-8.781,6.39-8.78,17.937a20.004,20.004,0,0,0,7.003,15.682q7.004,6.184,17.937,6.183a28.201,28.201,0,0,0,21.046-9.156q.683,5.605,1.777,7.79h13.256v-1.094q-2.597-6.011-2.596-16.194Zm-12.642,30.612a18.60481,18.60481,0,0,1-7.72,7.994,22.22006,22.22006,0,0,1-11.276,3.076,15.224,15.224,0,0,1-10.181-3.35,11.505,11.505,0,0,1-3.963-9.292q0-13.597,23.233-13.598h9.907Zm66.965-54.597a26.94,26.94,0,0,0-22.14,10.66l-.41-9.293h-11.956v73.934h12.64v-52.682a22.27026,22.27026,0,0,1,7.244-8.61,18.24617,18.24617,0,0,1,10.796-3.28q7.585,0,11.173,3.827,3.587,3.828,3.656,11.821v48.925h12.64v-48.856q-.204-26.445-23.642-26.445Zm89.377,8.883q-7.58505-8.883-20.567-8.883a25.496,25.496,0,0,0-21.115,10.352q-8.064,10.352-8.063,27.367v.956q0,16.949,8.098,27.47,8.097,10.523,20.943,10.522,13.53,0,21.114-9.293l.615,7.927h11.617V128.2576h-12.642Zm0,46.26q-5.534,10.799-17.56,10.797a16.784,16.784,0,0,1-14.35-7.106q-5.194-7.106-5.193-19.68,0-14.076,5.193-21.251,5.191-7.175,14.486-7.175,11.751,0,17.424,10.455Zm76.395-17.492a68.22908,68.22908,0,0,0-15.34-5.057q-9.466-2.116-13.086-4.441a7.66592,7.66592,0,0,1-3.621-6.902,9.46388,9.46388,0,0,1,3.894-7.858q3.895-3.006,10.797-3.007a16.518,16.518,0,0,1,11.104,3.759,11.41206,11.41206,0,0,1,4.407,8.951h12.71a20.62,20.62,0,0,0-7.824-16.604q-7.82593-6.491-20.397-6.492-11.959,0-19.645,6.287-7.68806,6.287-7.688,15.375a16.34015,16.34015,0,0,0,2.7,9.43,21.67355,21.67355,0,0,0,8.336,6.832,63.6644,63.6644,0,0,0,15.238,4.92q9.599,2.05,13.461,4.886a9.31006,9.31006,0,0,1,3.86,7.96,8.924,8.924,0,0,1-4.338,7.756q-4.34016,2.905-11.514,2.904-7.79,0-12.539-3.724a13.08319,13.08319,0,0,1-5.09-10.079h-12.643a21.158,21.158,0,0,0,3.861,12.197,25.546,25.546,0,0,0,10.694,8.78,37.23985,37.23985,0,0,0,15.716,3.144q12.64,0,20.568-5.979a18.92009,18.92009,0,0,0,7.926-15.887,17.396,17.396,0,0,0-2.835-10.079,22.38149,22.38149,0,0,0-8.713-7.072Zm42.672-20.329q5.29395-6.935,14.931-6.936a16.9,16.9,0,0,1,12.06,4.613,17.42626,17.42626,0,0,1,5.432,11.787h11.958q-.54794-11.889-8.78-19.337-8.235-7.448-20.67-7.449a32.317,32.317,0,0,0-17.527,4.647,30.18,30.18,0,0,0-11.377,13.05,44.50843,44.50843,0,0,0-3.964,19.202v2.118q0,17.493,8.918,27.572,8.916,10.08,24.018,10.078a31.06536,31.06536,0,0,0,14.248-3.416,28.8128,28.8128,0,0,0,10.761-9.156,22.93422,22.93422,0,0,0,4.373-12.094h-11.958a14.4273,14.4273,0,0,1-5.602,10.249,18.21006,18.21006,0,0,1-11.822,4.1q-9.773,0-15.033-6.901-5.263-6.901-5.261-19.68v-2.392q0-13.119,5.295-20.055Zm114.9,6.663q-.27393-11.206-7.517-17.596-7.243-6.388-20.02-6.389a35.865,35.865,0,0,0-14.794,3.006,26.81682,26.81682,0,0,0-10.66,8.166,17.44417,17.44417,0,0,0-3.93,10.694h12.71q.00009-4.85,4.579-8.268a18.43407,18.43407,0,0,1,11.343-3.417q7.7211,0,11.684,3.93t3.964,10.556v5.809h-12.3q-15.922,0-24.702,6.389-8.78008,6.39-8.78,17.937a20.004,20.004,0,0,0,7.004,15.682q7.00305,6.184,17.936,6.183a28.203,28.203,0,0,0,21.047-9.156q.68106,5.605,1.777,7.79h13.256v-1.094q-2.59809-6.011-2.597-16.194Zm-12.64,30.612a18.612,18.612,0,0,1-7.722,7.994,22.21973,22.21973,0,0,1-11.275,3.076,15.22509,15.22509,0,0,1-10.182-3.35,11.505,11.505,0,0,1-3.962-9.292q0-13.597,23.232-13.598h9.908Zm66.075-54.597q-13.73409,0-21.456,9.567l-.615-8.2h-11.548v102.36h12.642v-35.6q7.71992,8.542,21.182,8.54,13.18716,0,20.91-10.317,7.71992-10.317,7.721-27.196v-1.161q-.00009-17.902-7.756-27.949-7.75607-10.044-21.08-10.044Zm10.83,59.141a17.087,17.087,0,0,1-14.452,7.21q-11.68294,0-17.355-10.114v-35.328q5.74-10.181,17.219-10.182a17.17,17.17,0,0,1,14.623,7.243q5.33011,7.244,5.33,19.748,0,14.214-5.365,21.422Zm63.173-59.141a29.547,29.547,0,0,0-16.365,4.886,32.77022,32.77022,0,0,0-11.753,13.53,44.37013,44.37013,0,0,0-4.203,19.645v2.323q.00009,16.537,9.43,26.41,9.42993,9.875,24.463,9.873,18.58593,0,27.878-14.28l-7.72-6.013a28.48547,28.48547,0,0,1-8.132,7.243,22.01928,22.01928,0,0,1-11.343,2.733,20.08215,20.08215,0,0,1-15.546-6.73q-6.115-6.73-6.388-17.664h50.087v-5.262q0-17.697-7.996-27.196-7.99292-9.498-22.412-9.498Zm17.766,31.569h-37.035q1.22992-10.045,6.423-15.613a16.864,16.864,0,0,1,12.846-5.57q7.925,0,12.573,5.296,4.64593,5.297,5.193,14.93Z"/><g class="cls-8"><path class="cls-9" d="M265.29736,19.06492h29.098v70.078h41.63681V113.2254h-70.7348Z"/><path class="cls-9" d="M348.43165,19.06492h72.78482V43.14739H377.43015v11.7427H414.967V77.36044H377.41023v35.82517H348.43165Z"/><path class="cls-9" d="M496.19059,113.74288h-52.663V18.80618h52.663v6.2296h-45.8761V60.861h43.40816v6.15H450.31446v40.72129h45.87613Z"/><path class="cls-9" d="M587.92292,113.74288H581.136L524.11432,29.43432h-.53739q.77624,14.98686.77621,22.68927v61.49988h-6.40873V18.80618h6.66748l57.02171,84.16926h.37816c-.37816-7.80192-.6369-15.24561-.6369-22.15189V18.80618H587.903v94.9367Z"/><path class="cls-9" d="M667.87275,113.74288H615.13014V18.80618h52.74261v6.2296h-45.7766V60.861h43.28874v6.15H622.01655v40.72129h45.77664Z"/><path class="cls-9" d="M696.314,72.36481v41.37807h-6.64755V18.80618h22.9878q17.91258,0,26.51064,6.52814c5.77182,4.35873,8.59805,10.88687,8.59805,19.60433a25.07773,25.07773,0,0,1-5.25439,16.14124,28.04329,28.04329,0,0,1-15.50435,9.35434l26.1524,43.18923h-8.2l-24.85867-41.398H696.21448Zm0-5.63252H714.6445c8.06064,0,14.46937-1.81116,18.8281-5.39367s6.66748-8.83688,6.66748-15.76307-2.16941-12.41939-6.52814-15.74318S722.0683,24.83676,712.077,24.83676H696.31391Z"/><path class="cls-9" d="M806.63558,64.84153h34.73054v42.23389a77.99915,77.99915,0,0,1-30.75,5.77184c-14.86745,0-26.27182-4.1-34.09363-12.41939S764.5808,80.525,764.5808,65.31921a51.469,51.469,0,0,1,5.97086-25.11743,41.418,41.418,0,0,1,16.89752-16.91744,52.28483,52.28483,0,0,1,25.25675-5.97086,66.197,66.197,0,0,1,27.665,5.63251l-2.6869,5.97086a60.82318,60.82318,0,0,0-25.37616-5.63251c-12.41937,0-22.29124,3.72183-29.45623,11.265S771.96475,52.243,771.96475,65.04057q0,20.95771,10.36938,31.52614c6.92622,7.04562,17.03685,10.50871,30.49122,10.50871a58.85248,58.85248,0,0,0,22.03249-3.58252V70.81239H806.77492V64.84153Z"/><path class="cls-9" d="M887.22229,70.43423l28.06306-51.62806h7.18491L890.62567,76.72353V113.2254h-6.92623V77.22112L851.61608,18.80618h7.68248Z"/></g></svg>