<?xml version="1.0" encoding="UTF-8" standalone="no"?>
<!-- Generator: Adobe Illustrator 22.0.1, SVG Export Plug-In . SVG Version: 6.00 Build 0)  -->

<svg
   version="1.1"
   id="Layer_1"
   x="0px"
   y="0px"
   viewBox="0 0 413.384 112.01325"
   enable-background="new 0 0 504 360"
   xml:space="preserve"
   sodipodi:docname="OpenAPI_Logo_White.svg"
   width="413.384"
   height="112.01325"
   inkscape:version="1.4 (e7c3feb1, 2024-10-09)"
   xmlns:inkscape="http://www.inkscape.org/namespaces/inkscape"
   xmlns:sodipodi="http://sodipodi.sourceforge.net/DTD/sodipodi-0.dtd"
   xmlns="http://www.w3.org/2000/svg"
   xmlns:svg="http://www.w3.org/2000/svg"><defs
   id="defs37" /><sodipodi:namedview
   id="namedview37"
   pagecolor="#ffffff"
   bordercolor="#000000"
   borderopacity="0.25"
   inkscape:showpageshadow="2"
   inkscape:pageopacity="0.0"
   inkscape:pagecheckerboard="0"
   inkscape:deskcolor="#d1d1d1"
   inkscape:zoom="1"
   inkscape:cx="210.5"
   inkscape:cy="55"
   inkscape:window-width="2224"
   inkscape:window-height="1419"
   inkscape:window-x="0"
   inkscape:window-y="25"
   inkscape:window-maximized="0"
   inkscape:current-layer="Layer_1" />
<g
   id="g37"
   transform="translate(-45.308,-124.65975)">
	<path
   opacity="0.6"
   fill="#ffffff"
   d="M 74.909,189.069 H 74.796 45.352 c 0.005,0.144 0.009,0.289 0.017,0.433 0.012,0.278 0.032,0.555 0.049,0.833 0.008,0.119 0.013,0.238 0.022,0.356 0.023,0.322 0.051,0.642 0.08,0.962 0.007,0.073 0.013,0.145 0.02,0.215 0.034,0.356 0.073,0.712 0.115,1.065 0.002,0.035 0.006,0.069 0.011,0.103 0.046,0.382 0.095,0.764 0.151,1.144 0,0.004 10e-4,0.01 0.003,0.014 0.339,2.356 0.848,4.69 1.527,6.984 0.003,0.01 0.007,0.019 0.009,0.029 0.106,0.361 0.218,0.72 0.333,1.077 0.007,0.021 0.014,0.042 0.02,0.063 0.006,0.021 0.013,0.042 0.02,0.063 0.105,0.323 0.215,0.645 0.325,0.968 0.029,0.081 0.056,0.163 0.086,0.244 0.099,0.279 0.2,0.558 0.304,0.837 0.048,0.126 0.096,0.251 0.143,0.378 0.09,0.231 0.179,0.46 0.27,0.691 0.069,0.173 0.141,0.346 0.213,0.519 0.074,0.18 0.15,0.359 0.226,0.54 0.094,0.22 0.192,0.439 0.289,0.658 0.058,0.131 0.117,0.261 0.175,0.391 0.12,0.263 0.244,0.526 0.368,0.787 0.041,0.084 0.08,0.168 0.122,0.252 0.145,0.301 0.293,0.599 0.443,0.895 0.025,0.046 0.047,0.091 0.07,0.137 0.169,0.328 0.341,0.656 0.518,0.981 0.008,0.014 0.016,0.028 0.023,0.044 0.037,0.068 0.078,0.133 0.115,0.2 l 25.243,-15.207 0.093,-0.056 c -0.996,-2.099 -1.616,-4.331 -1.846,-6.6 z"
   id="path1" />
	<polygon
   fill="#939598"
   points="47.71,202.349 46.748,202.623 46.757,202.649 "
   id="polygon1" />
	<path
   opacity="0.9"
   fill="#ffffff"
   d="m 82.173,202.638 -0.071,0.071 -20.819,20.82 c 0.107,0.1 0.213,0.201 0.323,0.298 0.194,0.176 0.392,0.351 0.589,0.523 0.102,0.091 0.202,0.181 0.304,0.269 0.236,0.204 0.474,0.403 0.711,0.602 0.065,0.054 0.128,0.107 0.192,0.16 0.267,0.221 0.539,0.438 0.812,0.654 0.035,0.027 0.07,0.055 0.105,0.083 0.295,0.232 0.593,0.458 0.894,0.686 0.013,0.008 0.024,0.016 0.034,0.025 1.254,0.937 2.554,1.815 3.895,2.633 0.046,0.029 0.092,0.056 0.139,0.085 0.255,0.153 0.51,0.304 0.767,0.453 0.157,0.09 0.314,0.179 0.471,0.268 0.148,0.086 0.296,0.168 0.446,0.251 0.27,0.148 0.542,0.295 0.814,0.439 0.037,0.02 0.075,0.04 0.113,0.06 0.757,0.396 1.527,0.764 2.303,1.118 v 0 l 0.739,-1.794 10.471,-25.429 0.039,-0.094 c -1.144,-0.612 -2.24,-1.337 -3.271,-2.181 z"
   id="path2" />
	<path
   opacity="0.75"
   fill="#ffffff"
   d="m 80.005,200.564 c -0.225,-0.25 -0.439,-0.506 -0.649,-0.765 -0.186,-0.23 -0.366,-0.462 -0.54,-0.697 -0.199,-0.27 -0.394,-0.541 -0.578,-0.818 -0.186,-0.278 -0.368,-0.558 -0.54,-0.843 l -25.275,15.226 c 0.388,0.645 0.793,1.273 1.206,1.894 0.014,0.021 0.027,0.044 0.041,0.065 v 0 c 0.005,0.008 0.01,0.015 0.015,0.023 0.014,0.02 0.026,0.042 0.04,0.063 10e-4,0.002 0.003,0.004 0.004,0.006 0.033,0.05 0.067,0.098 0.101,0.148 0.002,0.003 0.004,0.006 0.006,0.009 0,0 0,0 0,0 0.001,0.001 0.002,0.003 0.003,0.004 0.439,0.649 0.89,1.288 1.355,1.91 0.01,0.013 0.021,0.027 0.031,0.04 0.01,0.013 0.02,0.026 0.03,0.039 0.202,0.268 0.405,0.535 0.614,0.8 0.027,0.035 0.054,0.069 0.083,0.103 0.214,0.274 0.432,0.544 0.654,0.812 0.052,0.063 0.106,0.127 0.158,0.191 0.2,0.239 0.4,0.477 0.604,0.713 0.087,0.101 0.178,0.202 0.266,0.302 0.174,0.198 0.346,0.395 0.524,0.59 0.097,0.107 0.198,0.215 0.297,0.322 0.045,0.049 0.089,0.097 0.135,0.146 0.13,0.14 0.259,0.28 0.39,0.419 0.052,0.055 0.107,0.109 0.16,0.164 0.23,0.24 0.462,0.48 0.699,0.716 l 20.85,-20.85 c -0.239,-0.239 -0.463,-0.485 -0.684,-0.732 z"
   id="path3" />
	<path
   opacity="0.9"
   fill="#ffffff"
   d="m 107.642,202.627 c -0.229,0.185 -0.461,0.366 -0.697,0.54 l 0.052,0.087 15.202,25.235 c 0.704,-0.46 1.4,-0.934 2.08,-1.432 1.471,-1.085 2.895,-2.261 4.267,-3.527 l -20.821,-20.821 z"
   id="path4" />
	<path
   fill="#939598"
   d="m 120.278,229.691 c 0.011,-0.006 0.023,-0.013 0.034,-0.019 l -10e-4,-0.001 c -0.011,0.006 -0.022,0.013 -0.033,0.02 z"
   id="path5" />
	<polygon
   fill="#939598"
   points="120.264,229.699 120.263,229.699 120.264,229.7 120.264,229.699 "
   id="polygon5" />
	<path
   fill="#939598"
   d="m 120.311,229.671 10e-4,0.001 c 0.066,-0.037 0.133,-0.072 0.199,-0.111 l -0.004,-0.007 c -0.066,0.039 -0.131,0.078 -0.196,0.117 z"
   id="path6" />
	<polygon
   fill="#939598"
   points="120.278,229.69 120.269,229.695 120.278,229.691 "
   id="polygon6" />
	<polygon
   fill="#939598"
   points="120.227,229.636 120.263,229.699 120.264,229.699 "
   id="polygon7" />
	<path
   fill="#939598"
   d="m 120.278,229.691 v 0 c 0.012,-0.006 0.023,-0.012 0.034,-0.018 v 0 c -0.011,0.005 -0.023,0.011 -0.034,0.018 z"
   id="path7" />
	<polygon
   fill="#939598"
   points="120.259,229.702 120.259,229.702 120.25,229.707 "
   id="polygon8" />
	<polygon
   fill="#939598"
   points="120.259,229.702 120.264,229.7 120.263,229.699 120.259,229.702 "
   id="polygon9" />
	<path
   fill="#939598"
   d="m 120.269,229.695 c -0.002,0.001 -0.004,0.002 -0.006,0.003 v 0 c 0.005,-0.003 0.01,-0.005 0.015,-0.008 v -0.001 c -0.003,0.003 -0.006,0.005 -0.009,0.006 z"
   id="path9" />
	<path
   fill="#939598"
   d="m 120.312,229.672 c 0.066,-0.039 0.133,-0.072 0.198,-0.112 -0.065,0.04 -0.132,0.075 -0.198,0.112 z"
   id="path10" />
	<polygon
   fill="#939598"
   points="120.506,229.554 120.511,229.56 120.507,229.554 "
   id="polygon10" />
	
		<rect
   x="120.25"
   y="229.707"
   transform="matrix(0.8321,-0.5547,0.5547,0.8321,-107.2225,105.2821)"
   fill="#939598"
   width="0"
   height="0"
   id="rect10" />
	<polygon
   fill="#939598"
   points="120.244,229.711 120.242,229.712 120.243,229.711 "
   id="polygon11" />
	<polygon
   fill="#939598"
   points="120.244,229.711 120.25,229.707 120.244,229.711 "
   id="polygon12" />
	<path
   opacity="0.6"
   fill="#ffffff"
   d="m 119.99,228.696 -0.516,-0.856 -14.19,-23.555 c -0.287,0.173 -0.581,0.329 -0.874,0.487 -0.296,0.159 -0.594,0.308 -0.896,0.451 -2.726,1.293 -5.677,1.953 -8.632,1.953 -1.936,0 -3.871,-0.28 -5.742,-0.838 -0.319,-0.095 -0.63,-0.22 -0.945,-0.332 -0.315,-0.111 -0.634,-0.207 -0.944,-0.335 l -10.464,25.412 -0.41,0.996 -0.351,0.853 -0.002,0.004 c 0.027,0.011 0.055,0.02 0.082,0.031 0.029,0.012 0.057,0.021 0.086,0.033 h 0.001 c 0.001,0 0.002,0.001 0.002,0.001 0.007,0.003 0.014,0.005 0.02,0.008 0.247,0.101 0.496,0.188 0.744,0.285 0.311,0.121 0.622,0.244 0.934,0.358 0.159,0.058 0.317,0.126 0.476,0.182 h 0.001 v 0 c 3.278,1.158 6.67,1.968 10.119,2.422 0.135,0.016 0.269,0.035 0.404,0.054 0.141,0.016 0.283,0.03 0.424,0.046 0.266,0.03 0.531,0.061 0.798,0.087 0.066,0.005 0.132,0.011 0.198,0.017 0.327,0.031 0.654,0.059 0.979,0.082 0.111,0.008 0.223,0.013 0.333,0.021 0.287,0.019 0.572,0.037 0.858,0.05 0.175,0.01 0.35,0.015 0.526,0.021 0.227,0.008 0.453,0.017 0.682,0.024 0.327,0.008 0.657,0.011 0.986,0.012 0.078,0 0.155,0.002 0.232,0.003 2.755,0 5.509,-0.229 8.233,-0.686 v 0 c 0.046,-0.007 0.091,-0.015 0.138,-0.021 0.288,-0.05 0.576,-0.104 0.864,-0.157 0.164,-0.032 0.329,-0.063 0.491,-0.095 0.168,-0.035 0.337,-0.07 0.505,-0.106 0.281,-0.059 0.561,-0.12 0.842,-0.185 0.05,-0.011 0.101,-0.021 0.152,-0.035 4.141,-0.965 8.14,-2.459 11.897,-4.436 l 10e-4,-0.001 v 0 c 0.246,-0.13 0.486,-0.278 0.731,-0.411 0.292,-0.16 0.582,-0.325 0.872,-0.491 0.201,-0.115 0.404,-0.221 0.603,-0.34 0,0 0.001,-0.001 0.001,-0.001 0.002,-0.001 0.004,-0.003 0.006,-0.004 0,0 0,0 10e-4,0 v 0 c 0.003,-0.002 0.006,-0.003 0.009,-0.005 0.002,-0.001 0.003,-0.002 0.004,-0.003 l -0.037,-0.063 0.037,0.063 c 0.002,-0.001 0.004,-0.002 0.006,-0.003 0.003,-0.002 0.006,-0.003 0.009,-0.005 0.011,-0.007 0.022,-0.013 0.033,-0.02 0.065,-0.039 0.13,-0.078 0.195,-0.117 v 0 z"
   id="path12" />
	<path
   opacity="0.6"
   fill="#ffffff"
   d="m 82.185,171.512 c 0.23,-0.186 0.462,-0.366 0.697,-0.54 L 82.83,170.885 67.629,145.65 c -0.706,0.461 -1.404,0.936 -2.085,1.436 -1.47,1.082 -2.893,2.257 -4.262,3.522 l 20.821,20.821 z"
   id="path13" />
	<path
   opacity="0.9"
   fill="#ffffff"
   d="m 59.838,151.994 c -0.237,0.237 -0.461,0.482 -0.692,0.722 -0.231,0.24 -0.466,0.479 -0.692,0.723 -1.538,1.665 -2.944,3.409 -4.212,5.22 -0.061,0.085 -0.122,0.174 -0.182,0.261 -0.143,0.208 -0.284,0.416 -0.423,0.625 -0.145,0.217 -0.289,0.437 -0.429,0.656 -0.053,0.08 -0.105,0.161 -0.156,0.241 -4.789,7.513 -7.355,16.034 -7.7,24.627 -0.013,0.333 -0.02,0.667 -0.027,1 -0.007,0.333 -0.017,0.667 -0.017,1 h 29.488 c 0,-0.334 0.031,-0.666 0.048,-1 0.017,-0.334 0.022,-0.668 0.055,-1 0.381,-3.84 1.863,-7.589 4.447,-10.739 0.21,-0.256 0.447,-0.496 0.672,-0.743 0.224,-0.247 0.432,-0.504 0.671,-0.742 z"
   id="path14" />
	<path
   opacity="0.9"
   fill="#ffffff"
   d="m 120.681,144.675 c -0.04,-0.025 -0.082,-0.049 -0.122,-0.073 -0.259,-0.159 -0.521,-0.312 -0.783,-0.465 -0.152,-0.088 -0.304,-0.173 -0.457,-0.26 -0.154,-0.086 -0.306,-0.172 -0.461,-0.256 -0.266,-0.146 -0.533,-0.29 -0.801,-0.432 -0.042,-0.021 -0.083,-0.044 -0.126,-0.066 -1.729,-0.904 -3.505,-1.7 -5.318,-2.391 -0.046,-0.019 -0.094,-0.037 -0.141,-0.054 -0.395,-0.148 -0.791,-0.295 -1.19,-0.433 -3.221,-1.125 -6.552,-1.914 -9.936,-2.358 -0.138,-0.019 -0.277,-0.038 -0.415,-0.056 -0.139,-0.017 -0.277,-0.031 -0.415,-0.046 -0.267,-0.031 -0.533,-0.061 -0.801,-0.087 -0.074,-0.007 -0.149,-0.012 -0.224,-0.02 -0.317,-0.029 -0.636,-0.057 -0.953,-0.08 -0.123,-0.009 -0.248,-0.016 -0.371,-0.023 -0.272,-0.018 -0.547,-0.037 -0.819,-0.049 -0.146,-0.008 -0.29,-0.012 -0.434,-0.017 l -0.001,29.444 v 0.115 c 1.517,0.157 3.02,0.48 4.478,0.975 l 21.754,-21.754 c -0.807,-0.56 -1.624,-1.104 -2.464,-1.614 z"
   id="path15" />
	<polygon
   fill="#6d6e71"
   points="69.321,144.585 69.837,145.441 69.321,144.585 "
   id="polygon15" />
	<polygon
   fill="#6d6e71"
   points="69.321,144.585 69.318,144.579 69.321,144.585 "
   id="polygon16" />
	<path
   opacity="0.75"
   fill="#ffffff"
   d="m 93.914,137.485 c -0.333,0.007 -0.667,0.008 -1,0.021 -2.086,0.084 -4.168,0.297 -6.233,0.643 -0.045,0.008 -0.09,0.015 -0.136,0.023 -0.29,0.05 -0.577,0.103 -0.865,0.157 -0.163,0.031 -0.327,0.061 -0.49,0.094 -0.17,0.034 -0.339,0.069 -0.508,0.106 -0.28,0.058 -0.56,0.119 -0.84,0.184 v 0 c -0.051,0.011 -0.101,0.023 -0.153,0.034 -4.141,0.966 -8.142,2.461 -11.898,4.438 0,0 0,0 0,0 H 71.79 c -0.245,0.13 -0.484,0.277 -0.728,0.411 -0.292,0.16 -0.582,0.325 -0.872,0.491 -0.215,0.124 -0.434,0.238 -0.648,0.366 -0.002,0.001 -0.005,0.003 -0.007,0.004 0,0 -10e-4,0 -10e-4,0 -0.015,0.009 -0.03,0.017 -0.045,0.026 -0.056,0.034 -0.114,0.062 -0.17,0.096 l 0.003,0.005 0.516,0.857 v 0 l 14.705,24.412 c 0.287,-0.173 0.581,-0.33 0.874,-0.487 0.295,-0.159 0.594,-0.308 0.895,-0.451 2.1,-1 4.332,-1.62 6.601,-1.85 0.333,-0.034 0.666,-0.062 1,-0.079 0.333,-0.017 0.666,-0.034 1,-0.034 l 0.001,-29.487 c -0.334,0 -0.667,0.014 -1,0.02 z"
   id="path16" />
	<path
   opacity="0.9"
   fill="#ffffff"
   d="m 144.458,184.631 c -0.014,-0.265 -0.03,-0.529 -0.048,-0.795 -0.008,-0.132 -0.015,-0.263 -0.026,-0.397 -0.022,-0.311 -0.048,-0.623 -0.077,-0.934 -0.006,-0.081 -0.014,-0.161 -0.021,-0.242 -0.034,-0.348 -0.071,-0.696 -0.111,-1.043 -0.004,-0.028 -0.007,-0.056 -0.01,-0.084 -0.002,-0.013 -0.003,-0.027 -0.005,-0.04 -0.046,-0.375 -0.096,-0.75 -0.149,-1.124 -0.001,-0.011 -0.002,-0.025 -0.005,-0.035 -0.339,-2.351 -0.847,-4.681 -1.524,-6.972 -0.005,-0.016 -0.009,-0.03 -0.014,-0.044 -0.107,-0.356 -0.216,-0.71 -0.328,-1.063 -0.015,-0.046 -0.031,-0.093 -0.045,-0.14 -0.105,-0.319 -0.211,-0.636 -0.321,-0.954 -0.031,-0.085 -0.061,-0.171 -0.091,-0.258 -0.097,-0.275 -0.197,-0.549 -0.299,-0.823 -0.049,-0.131 -0.099,-0.261 -0.15,-0.391 -0.086,-0.227 -0.175,-0.454 -0.265,-0.678 -0.072,-0.18 -0.144,-0.357 -0.218,-0.534 -0.072,-0.176 -0.146,-0.35 -0.22,-0.526 -0.097,-0.224 -0.195,-0.448 -0.294,-0.671 -0.056,-0.125 -0.112,-0.252 -0.17,-0.378 -0.122,-0.266 -0.247,-0.532 -0.373,-0.797 -0.039,-0.08 -0.077,-0.162 -0.116,-0.242 -0.147,-0.303 -0.296,-0.606 -0.448,-0.906 -0.022,-0.041 -0.043,-0.083 -0.065,-0.125 -0.17,-0.331 -0.344,-0.663 -0.521,-0.99 -0.007,-0.011 -0.012,-0.024 -0.019,-0.035 -0.859,-1.58 -1.802,-3.108 -2.822,-4.578 l -21.761,21.762 c 0.495,1.459 0.817,2.961 0.974,4.477 h 0.116 29.444 c -0.007,-0.149 -0.011,-0.295 -0.018,-0.44 z"
   id="path17" />
	<path
   opacity="0.75"
   fill="#ffffff"
   d="m 115.03,187.069 c 0,0.334 -0.031,0.666 -0.048,1 -0.016,0.334 -0.022,0.668 -0.055,1 -0.381,3.84 -1.863,7.59 -4.446,10.74 -0.21,0.256 -0.447,0.496 -0.672,0.743 -0.224,0.247 -0.432,0.504 -0.671,0.742 l 20.851,20.85 c 0.237,-0.237 0.46,-0.482 0.691,-0.723 0.231,-0.241 0.466,-0.479 0.691,-0.723 1.543,-1.671 2.953,-3.419 4.224,-5.236 0.051,-0.072 0.099,-0.143 0.148,-0.214 0.155,-0.223 0.306,-0.448 0.458,-0.673 0.133,-0.201 0.266,-0.402 0.395,-0.605 0.064,-0.097 0.128,-0.198 0.19,-0.295 4.782,-7.509 7.341,-16.021 7.685,-24.607 0.013,-0.333 0.02,-0.667 0.027,-1 0.007,-0.333 0.017,-0.666 0.017,-1 H 115.03 Z"
   id="path18" />
	<path
   fill="#ffffff"
   d="m 153.276,128.706 c -5.395,-5.395 -14.142,-5.395 -19.536,0 -4.304,4.303 -5.164,10.736 -2.601,15.902 L 101.048,174.7 c -5.166,-2.562 -11.599,-1.703 -15.903,2.6 -5.395,5.395 -5.394,14.142 0,19.537 5.396,5.395 14.143,5.393 19.538,-10e-4 4.303,-4.303 5.162,-10.736 2.599,-15.903 l 30.091,-30.091 c 5.167,2.562 11.599,1.703 15.902,-2.601 5.395,-5.392 5.395,-14.14 0.001,-19.535 z"
   id="path19" />
	<g
   id="g29">
		<path
   fill="#ffffff"
   d="m 281.877,232.439 v -16.352 h 2.869 v 16.352 z"
   id="path20" />
		<path
   fill="#ffffff"
   d="m 306.612,232.439 -8.532,-11.695 v 11.695 h -2.869 v -16.352 h 2.942 l 8.361,11.326 v -11.326 h 2.867 v 16.352 z"
   id="path21" />
		<path
   fill="#ffffff"
   d="m 319.848,232.439 v -16.352 h 2.869 v 16.352 z"
   id="path22" />
		<path
   fill="#ffffff"
   d="m 337.082,232.439 v -13.827 h -4.953 v -2.525 h 12.773 v 2.525 h -4.951 v 13.827 z"
   id="path23" />
		<path
   fill="#ffffff"
   d="m 354.314,232.439 v -16.352 h 2.869 v 16.352 z"
   id="path24" />
		<path
   fill="#ffffff"
   d="m 379.123,232.439 -1.203,-3.163 h -7.501 l -1.202,3.163 h -3.261 l 6.424,-16.352 h 3.578 l 6.423,16.352 z m -4.952,-13.484 -2.943,7.796 h 5.884 z"
   id="path25" />
		<path
   fill="#ffffff"
   d="m 393.437,232.439 v -13.827 h -4.953 v -2.525 h 12.774 v 2.525 h -4.952 v 13.827 z"
   id="path26" />
		<path
   fill="#ffffff"
   d="m 410.67,232.439 v -16.352 h 2.869 v 16.352 z"
   id="path27" />
		<path
   fill="#ffffff"
   d="m 428.738,232.439 -6.425,-16.352 h 3.261 l 4.953,13.214 4.953,-13.214 h 3.259 l -6.422,16.352 z"
   id="path28" />
		<path
   fill="#ffffff"
   d="m 447.489,232.439 v -16.352 h 11.203 v 2.525 h -8.335 v 4.216 h 8.163 v 2.525 h -8.163 v 4.56 h 8.335 v 2.526 z"
   id="path29" />
	</g>
	<g
   id="g36">
		<path
   fill="#ffffff"
   d="m 159.689,176.389 c 0,-14.783 10.811,-25.374 25.668,-25.374 14.782,0 25.594,10.591 25.594,25.374 0,14.782 -10.811,25.375 -25.594,25.375 -14.856,0 -25.668,-10.592 -25.668,-25.375 z m 40.525,0 c 0,-9.194 -5.81,-16.107 -14.856,-16.107 -9.121,0 -14.931,6.913 -14.931,16.107 0,9.119 5.81,16.107 14.931,16.107 9.046,0 14.856,-6.987 14.856,-16.107 z"
   id="path30" />
		<path
   fill="#ffffff"
   d="m 216.462,200.88 v -49.056 h 22.948 c 10.663,0 16.474,7.207 16.474,15.812 0,8.531 -5.885,15.74 -16.474,15.74 h -12.504 v 17.504 z m 28.758,-33.243 c 0,-4.119 -3.162,-6.619 -7.282,-6.619 h -11.031 v 13.165 h 11.031 c 4.12,-0.001 7.282,-2.501 7.282,-6.546 z"
   id="path31" />
		<path
   fill="#ffffff"
   d="m 260.587,200.88 v -49.056 h 34.715 v 9.193 h -24.27 v 10.297 h 23.756 v 9.194 h -23.756 v 11.179 h 24.27 v 9.194 h -34.715 z"
   id="path32" />
		<path
   fill="#ffffff"
   d="m 335.454,200.88 -23.386,-31.993 v 31.993 h -10.446 v -49.056 h 10.739 l 22.726,30.817 v -30.817 h 10.444 v 49.056 z"
   id="path33" />
		<path
   fill="#ffffff"
   d="m 389.565,200.88 -3.09,-8.311 h -21.033 l -3.089,8.311 h -11.842 l 18.902,-49.056 h 13.094 l 18.899,49.056 z m -13.607,-38.612 -7.648,21.108 h 15.299 z"
   id="path34" />
		<path
   fill="#ffffff"
   d="m 404.123,200.88 v -49.056 h 22.947 c 10.663,0 16.474,7.207 16.474,15.812 0,8.531 -5.886,15.74 -16.474,15.74 h -12.504 v 17.504 z m 28.757,-33.243 c 0,-4.119 -3.162,-6.619 -7.282,-6.619 h -11.032 v 13.165 h 11.032 c 4.12,-0.001 7.282,-2.501 7.282,-6.546 z"
   id="path35" />
		<path
   fill="#ffffff"
   d="m 448.247,200.88 v -49.056 h 10.445 v 49.056 z"
   id="path36" />
	</g>
</g>
</svg>
