<svg width="334" height="29" viewBox="0 0 334 29" fill="none" xmlns="http://www.w3.org/2000/svg">
<path d="M107.844 28.2164H106.1L85.5488 4.4518V28.2164H83.4468V1.02344H85.2316L105.742 24.788V1.02344H107.844V28.2164Z" fill="white"/>
<path d="M128.868 2.77662H116.212V13.6619H128.551V15.4185H116.212V26.4632H129.185V28.2164H114.11V1.02344H128.868V2.77662Z" fill="white"/>
<path d="M152.949 2.77662H142.793V28.2164H140.691V2.77662H130.535V1.02344H152.952V2.77662H152.949Z" fill="white"/>
<path d="M164.491 28.4944H163.935L153.063 1.02344H155.206L164.171 23.591L173.257 1.02344H173.891L182.937 23.591L191.905 1.02344H194.048L183.177 28.4978H182.661L173.574 5.53016L164.491 28.4944Z" fill="white"/>
<path d="M208.722 28.5758C200.708 28.5758 194.439 22.4346 194.439 14.6216C194.439 6.80854 200.708 0.66394 208.722 0.66394C216.775 0.66394 223.085 6.80515 223.085 14.6216C223.085 22.438 216.775 28.5758 208.722 28.5758ZM208.803 2.61719C202.017 2.61719 196.703 7.84282 196.703 14.6182C196.703 21.3935 202.021 26.6191 208.803 26.6191C215.588 26.6191 220.824 21.3969 220.824 14.6182C220.824 7.83943 215.584 2.61719 208.803 2.61719Z" fill="white"/>
<path d="M235.14 1.02344C241.767 1.02344 244.105 4.41111 244.105 8.03954C244.105 11.1898 242.398 13.3839 238.95 14.6589C240.218 15.3371 241.291 16.8936 242.56 18.8062L248.67 28.2164H246.211L241.49 20.7594C238.238 15.6152 237.205 15.1777 233.953 15.1777H230.302V28.2164H228.2V1.02344H235.14ZM230.302 13.4212H234.786C239.547 13.4212 241.848 11.3458 241.848 8.07685C241.848 5.00794 239.665 2.77323 234.708 2.77323H230.305V13.4212H230.302Z" fill="white"/>
<path d="M255.611 14.5809L269.735 28.2164H267.076L252.912 14.5809V28.2164H250.81V1.02344H252.912V14.5809L265.885 1.02344H268.503L255.611 14.5809Z" fill="white"/>
<path d="M274.057 28.2164H271.955V1.02344H274.057V28.2164Z" fill="white"/>
<path d="M304.602 28.2164H302.857L282.306 4.4518V28.2164H280.204V1.02344H281.989L302.5 24.788V1.02344H304.602V28.2164Z" fill="white"/>
<path d="M333.484 5.36734C330.191 3.49548 327.137 2.61719 323.881 2.61719C317.018 2.61719 311.94 7.72074 311.94 14.6182C311.94 20.7187 315.949 26.6191 324.478 26.6191C327.613 26.6191 329.755 26.0223 331.898 24.9439V17.6091H326.186V15.8559H334V26.2631C330.788 27.8162 327.535 28.5758 324.401 28.5758C315.989 28.5758 309.68 22.5939 309.68 14.5402C309.68 6.56439 315.831 0.66394 324.202 0.66394C327.255 0.66394 329.678 1.26077 333.487 2.97664V5.36734H333.484Z" fill="white"/>
<path d="M5.31749 21.9192V11.2543H0V27.2567H15.9289V21.9192H5.31749Z" fill="white"/>
<path d="M26.5369 0.575806H0.00341797V8.57871H5.31079V5.93368H21.2329V21.9192H18.5809V27.2567H26.5369V0.575806Z" fill="white"/>
<path d="M33.5481 0.887817H41.6323V20.4983H53.2424V27.2567H33.5481V0.887817Z" fill="white"/>
<path d="M56.6975 0.887817H76.9823V7.64621H64.7817V10.9321H75.2547V17.209H64.7817V27.2533H56.6975V0.887817Z" fill="white"/>
</svg>
