<?xml version="1.0" encoding="utf-8"?>
<!-- Generator: Adobe Illustrator 25.2.1, SVG Export Plug-In . SVG Version: 6.00 Build 0)  -->
<svg version="1.1" id="Layer_1" xmlns="http://www.w3.org/2000/svg" xmlns:xlink="http://www.w3.org/1999/xlink" x="0px" y="0px"
	 viewBox="0 0 957 76.1" style="enable-background:new 0 0 957 76.1;" xml:space="preserve">
<style type="text/css">
	.Graphic_x0020_Style_x0020_3{fill:none;}
	.st0{fill:#009ADE;}
	.st1{fill:#003764;}
</style>
<g>
	<path class="st0" d="M307,75h-4.8l-57-65.6V75h-5.8V0h5l56.9,65.6V0h5.8V75z"/>
	<path class="st0" d="M368.2,4.8h-35.1v30h34.2v4.8h-34.2v30.5h36V75h-41.8V0h40.9V4.8z"/>
	<path class="st0" d="M445,4.8h-28.2V75H411V4.8h-28.2V0H445V4.8z"/>
	<path class="st0" d="M484.7,75h-1.5L453.3,0h5.9l24.6,61.6L508.8,0h1.7l24.8,61.6L559.9,0h5.9L536,75h-1.4l-24.9-62.7L484.7,75z"/>
	<path class="st0" d="M604.7,75c-21.6,0-38.6-16.5-38.6-37.5S583,0,604.7,0c21.8,0,38.8,16.5,38.8,37.5S626.4,75,604.7,75z
		 M604.9,5.2c-18.3,0-32.7,14-32.7,32.3s14.4,32.2,32.7,32.2c18.3,0,32.5-14,32.5-32.2S623.2,5.2,604.9,5.2z"/>
	<path class="st0" d="M679.5,0c18.4,0,24.9,9.4,24.9,19.4c0,8.7-4.7,14.7-14.3,18.3c3.5,1.9,6.5,6.2,10,11.4L717,75h-6.8l-13.1-20.6
		c-9-14.2-11.9-15.4-20.9-15.4h-10.1v36h-5.8V0H679.5z M666.1,34.2h12.4c13.2,0,19.6-5.7,19.6-14.7c0-8.5-6-14.6-19.8-14.6h-12.2
		V34.2z"/>
	<path class="st0" d="M740.3,37.4L779.5,75h-7.4l-39.3-37.6V75H727V0h5.8v37.4l36-37.4h7.3L740.3,37.4z"/>
	<path class="st0" d="M794.5,75h-5.8V0h5.8V75z"/>
	<path class="st0" d="M879.4,75h-4.8l-57-65.6V75h-5.8V0h4.9l56.9,65.6V0h5.8V75z"/>
	<path class="st0" d="M955.6,12.6c-8.9-5-17.1-7.4-25.9-7.4c-18.5,0-32.2,13.7-32.2,32.3c0,16.4,10.8,32.2,33.9,32.2
		c8.5,0,14.3-1.6,20-4.5V45.5h-15.4v-4.7H957v28c-8.7,4.2-17.5,6.2-25.9,6.2c-22.7,0-39.8-16.1-39.8-37.7
		c0-21.4,16.6-37.3,39.2-37.3c8.2,0,14.8,1.6,25.1,6.2V12.6z"/>
	<g>
		<polygon class="st0" points="15.3,60.9 15.3,30.5 0,30.5 0,76.1 45.7,76.1 45.7,60.9 		"/>
		<polygon class="st1" points="76.1,0 0,0 0,22.8 15.2,22.8 15.2,15.3 60.9,15.3 60.9,60.9 53.3,60.9 53.3,76.1 76.1,76.1 		"/>
	</g>
	<g>
		<path class="st1" d="M96.2,0h23.2v56h33.3v19.3H96.2V0z"/>
		<path class="st1" d="M162.6,0h58.2v19.3h-35v9.4h30v17.9h-30v28.7h-23.2V0z"/>
	</g>
</g>
</svg>
