<svg width="185" height="144" viewBox="0 0 185 144" fill="none" xmlns="http://www.w3.org/2000/svg">
<g id="aousd-logo-vert-rgb-wht-for-screen">
<g id="Group">
<g id="Group_2">
<path id="Vector" d="M38.7025 107.02H25.5237L23.0095 113.073H16.2783L28.9298 84.8252H35.4178L48.1102 113.073H41.2166L38.7025 107.02ZM36.6346 102.056L32.1334 91.2416L27.6322 102.056H36.6346Z" fill="white"/>
<path id="Vector_2" d="M47.6639 98.9488C47.6639 90.5552 54.2332 84.3408 63.1947 84.3408C72.1156 84.3408 78.7255 90.5149 78.7255 98.9488C78.7255 107.383 72.1156 113.557 63.1947 113.557C54.2332 113.557 47.6639 107.342 47.6639 98.9488ZM72.0751 98.9488C72.0751 93.5817 68.2634 89.9095 63.1947 89.9095C58.126 89.9095 54.3141 93.5817 54.3141 98.9488C54.3141 104.316 58.126 107.988 63.1947 107.988C68.2634 107.988 72.0751 104.316 72.0751 98.9488Z" fill="white"/>
<path id="Vector_3" d="M82.6183 100.644V84.8252H89.1876V100.402C89.1876 105.769 91.5393 107.988 95.5132 107.988C99.5277 107.988 101.839 105.769 101.839 100.402V84.8252H108.327V100.644C108.327 108.957 103.542 113.557 95.4728 113.557C87.4031 113.557 82.6183 108.957 82.6183 100.644Z" fill="white"/>
<path id="Vector_4" d="M112.585 110.288L114.815 105.365C117.208 107.1 120.776 108.311 124.182 108.311C128.075 108.311 129.657 107.02 129.657 105.284C129.657 99.998 113.153 103.63 113.153 93.1378C113.153 88.3357 117.046 84.3408 125.115 84.3408C128.683 84.3408 132.333 85.1881 134.969 86.8426L132.941 91.8063C130.305 90.3131 127.589 89.5868 125.075 89.5868C121.182 89.5868 119.681 91.0395 119.681 92.8151C119.681 98.0206 136.185 94.4291 136.185 104.8C136.185 109.521 132.252 113.557 124.142 113.557C119.641 113.557 115.099 112.225 112.585 110.288Z" fill="white"/>
<path id="Vector_5" d="M139.875 84.8252H152.77C162.056 84.8252 168.422 90.3941 168.422 98.9491C168.422 107.504 162.056 113.073 152.77 113.073H139.875V84.8252ZM152.445 107.706C158.082 107.706 161.772 104.356 161.772 98.9491C161.772 93.5417 158.082 90.1923 152.445 90.1923H146.444V107.706H152.445Z" fill="white"/>
</g>
<g id="Group_3">
<path id="Vector_6" d="M24.5985 127.832H18.8212L17.5548 130.622H16.7722L21.3539 120.709H22.0799L26.6618 130.622H25.8792L24.5985 127.832ZM24.3282 127.223L21.7098 121.502L19.1059 127.223H24.3282Z" fill="white"/>
<path id="Vector_7" d="M28.2417 120.114H28.9533V130.622H28.2417V120.114Z" fill="white"/>
<path id="Vector_8" d="M31.3866 120.114H32.0982V130.622H31.3866V120.114Z" fill="white"/>
<path id="Vector_9" d="M34.3037 120.865C34.3037 120.553 34.5597 120.284 34.8872 120.284C35.2144 120.284 35.4704 120.539 35.4704 120.851C35.4704 121.176 35.2144 121.431 34.8872 121.431C34.5597 121.431 34.3037 121.176 34.3037 120.865ZM34.5315 123.23H35.2429V130.622H34.5315V123.23Z" fill="white"/>
<path id="Vector_10" d="M44.5636 123.229V130.621H43.8662V128.88C43.2829 130.027 42.1585 130.678 40.8209 130.678C38.7294 130.678 37.1499 129.134 37.1499 126.925C37.1499 124.702 38.7294 123.173 40.8209 123.173C42.1444 123.173 43.2542 123.824 43.852 124.943V123.229L44.5636 123.229ZM43.852 126.925C43.852 125.07 42.5713 123.81 40.8637 123.81C39.1563 123.81 37.8756 125.07 37.8756 126.925C37.8756 128.78 39.1563 130.041 40.8637 130.041C42.5713 130.041 43.852 128.78 43.852 126.925Z" fill="white"/>
<path id="Vector_11" d="M53.3579 126.302V130.621H52.6463V126.359C52.6463 124.688 51.7497 123.81 50.2414 123.81C48.4912 123.81 47.424 124.929 47.424 126.685V130.621H46.7124V123.229H47.3955V124.83C47.8937 123.796 48.9323 123.173 50.3411 123.173C52.1482 123.173 53.3579 124.235 53.3579 126.302Z" fill="white"/>
<path id="Vector_12" d="M55.4927 126.925C55.4927 124.716 57.0722 123.173 59.2495 123.173C60.4303 123.173 61.4548 123.626 62.0667 124.532L61.5403 124.915C60.9997 124.164 60.1743 123.81 59.2495 123.81C57.4991 123.81 56.2184 125.056 56.2184 126.925C56.2184 128.795 57.4991 130.041 59.2495 130.041C60.1743 130.041 60.9997 129.687 61.5403 128.936L62.0667 129.319C61.4548 130.211 60.4303 130.678 59.2495 130.678C57.0722 130.678 55.4927 129.12 55.4927 126.925Z" fill="white"/>
<path id="Vector_13" d="M70.349 127.095H63.9599C64.031 128.851 65.326 130.041 67.1048 130.041C68.0438 130.041 68.9119 129.701 69.481 129.007L69.8938 129.474C69.2391 130.267 68.2147 130.678 67.0905 130.678C64.8422 130.678 63.2627 129.12 63.2627 126.925C63.2627 124.73 64.7853 123.173 66.8202 123.173C68.855 123.173 70.3633 124.702 70.3633 126.897C70.3633 126.954 70.349 127.024 70.349 127.095ZM63.9741 126.543H69.666C69.5664 124.943 68.3997 123.796 66.8202 123.796C65.2407 123.796 64.0881 124.929 63.9741 126.543Z" fill="white"/>
<path id="Vector_14" d="M77.3505 122.153V123.23H79.7269V123.839H77.3649V130.622H76.6535V123.839H75.2872V123.23H76.6535V122.097C76.6535 120.865 77.3933 120.058 78.7168 120.058C79.2575 120.058 79.8266 120.213 80.1825 120.539L79.8978 121.077C79.5988 120.808 79.1863 120.667 78.745 120.667C77.8202 120.667 77.3505 121.176 77.3505 122.153Z" fill="white"/>
<path id="Vector_15" d="M80.2396 126.925C80.2396 124.73 81.8191 123.173 83.9534 123.173C86.088 123.173 87.6675 124.73 87.6675 126.925C87.6675 129.12 86.088 130.678 83.9534 130.678C81.8191 130.678 80.2396 129.12 80.2396 126.925ZM86.9418 126.925C86.9418 125.07 85.6611 123.81 83.9534 123.81C82.246 123.81 80.9653 125.07 80.9653 126.925C80.9653 128.78 82.246 130.041 83.9534 130.041C85.6611 130.041 86.9418 128.78 86.9418 126.925Z" fill="white"/>
<path id="Vector_16" d="M93.3886 123.173V123.867C93.3315 123.867 93.2746 123.852 93.2177 123.852C91.5672 123.852 90.5852 124.943 90.5852 126.77V130.621H89.8737V123.229H90.5568V124.844C91.0121 123.768 91.9938 123.173 93.3886 123.173Z" fill="white"/>
<path id="Vector_17" d="M99.2657 125.665C99.2657 122.79 101.471 120.638 104.445 120.638C107.405 120.638 109.625 122.776 109.625 125.665C109.625 128.554 107.405 130.692 104.445 130.692C101.471 130.692 99.2657 128.54 99.2657 125.665ZM108.885 125.665C108.885 123.158 106.978 121.303 104.445 121.303C101.898 121.303 99.9914 123.158 99.9914 125.665C99.9914 128.171 101.898 130.027 104.445 130.027C106.978 130.027 108.885 128.171 108.885 125.665Z" fill="white"/>
<path id="Vector_18" d="M118.747 126.925C118.747 129.149 117.168 130.678 115.076 130.678C113.767 130.678 112.657 130.041 112.059 128.936V133.369H111.348V123.229H112.031V124.971C112.614 123.838 113.738 123.173 115.076 123.173C117.168 123.173 118.747 124.716 118.747 126.925ZM118.036 126.925C118.036 125.07 116.741 123.81 115.033 123.81C113.326 123.81 112.045 125.07 112.045 126.925C112.045 128.78 113.326 130.041 115.033 130.041C116.741 130.041 118.036 128.78 118.036 126.925Z" fill="white"/>
<path id="Vector_19" d="M127.229 127.095H120.839C120.911 128.851 122.205 130.041 123.984 130.041C124.923 130.041 125.791 129.701 126.36 129.007L126.773 129.474C126.119 130.267 125.094 130.678 123.97 130.678C121.722 130.678 120.142 129.12 120.142 126.925C120.142 124.73 121.665 123.173 123.7 123.173C125.734 123.173 127.243 124.702 127.243 126.897C127.243 126.954 127.229 127.024 127.229 127.095ZM120.854 126.543H126.545C126.446 124.943 125.279 123.796 123.7 123.796C122.12 123.796 120.967 124.929 120.854 126.543Z" fill="white"/>
<path id="Vector_20" d="M136.094 126.302V130.621H135.383V126.359C135.383 124.688 134.486 123.81 132.978 123.81C131.228 123.81 130.16 124.929 130.16 126.685V130.621H129.449V123.229H130.132V124.83C130.63 123.796 131.669 123.173 133.077 123.173C134.884 123.173 136.094 124.235 136.094 126.302Z" fill="white"/>
<path id="Vector_21" d="M139.168 126.416V120.709H139.894V126.387C139.894 128.866 141.089 130.027 143.167 130.027C145.244 130.027 146.425 128.866 146.425 126.387V120.709H147.151V126.416C147.151 129.248 145.628 130.692 143.152 130.692C140.676 130.692 139.168 129.248 139.168 126.416Z" fill="white"/>
<path id="Vector_22" d="M149.375 129.347L149.702 128.809C150.385 129.517 151.651 130.055 152.989 130.055C154.981 130.055 155.863 129.191 155.863 128.115C155.863 125.141 149.645 126.925 149.645 123.272C149.645 121.87 150.726 120.638 153.174 120.638C154.27 120.638 155.408 120.978 156.176 121.53L155.906 122.111C155.081 121.544 154.07 121.275 153.174 121.275C151.239 121.275 150.371 122.167 150.371 123.258C150.371 126.231 156.589 124.475 156.589 128.072C156.589 129.474 155.465 130.692 153.003 130.692C151.523 130.692 150.1 130.14 149.375 129.347Z" fill="white"/>
<path id="Vector_23" d="M158.613 120.709H162.555C165.714 120.709 167.848 122.777 167.848 125.665C167.848 128.554 165.714 130.622 162.555 130.622H158.613V120.709ZM162.498 129.97C165.315 129.97 167.123 128.186 167.123 125.665C167.123 123.145 165.315 121.361 162.498 121.361H159.339V129.97H162.498Z" fill="white"/>
</g>
</g>
<g id="b">
<path id="Vector_24" d="M92.7775 35.3145L52.1499 65.7935H133.405L92.7775 35.3145Z" fill="#9EDCF2"/>
<path id="Vector_25" d="M138.934 56.2533H46.8994L55.5964 49.609L56.0287 49.2787L120.235 49.4565L92.9188 29.1493L86.9548 33.7031H77.152L92.9188 21.6592L138.934 56.2533Z" fill="#34C6F3"/>
<path id="Vector_26" d="M142.005 45.2745H44.2753L93.1422 7.94629L108.94 20.0137H98.5262L93.1422 15.8998L64.136 38.0571H122.148L105.144 25.0659H115.553L142.005 45.2745Z" fill="#2091D0"/>
</g>
</g>
</svg>
