<svg width="264" height="69" viewBox="0 0 264 69" fill="none" xmlns="http://www.w3.org/2000/svg">
<path d="M133.617 34.5099H121.333L118.99 40.1451H112.715L124.508 13.8472H130.556L142.386 40.1451H135.961L133.617 34.5099ZM131.69 29.8888L127.494 19.8207L123.299 29.8888H131.69Z" fill="black"/>
<path d="M141.97 26.9961C141.97 19.1819 148.094 13.3965 156.447 13.3965C164.762 13.3965 170.923 19.1444 170.923 26.9961C170.923 34.8478 164.762 40.596 156.447 40.596C148.094 40.596 141.97 34.8103 141.97 26.9961ZM164.724 26.9961C164.724 21.9995 161.171 18.5808 156.447 18.5808C151.722 18.5808 148.169 21.9995 148.169 26.9961C148.169 31.9928 151.722 35.4114 156.447 35.4114C161.171 35.4114 164.724 31.9928 164.724 26.9961Z" fill="black"/>
<path d="M174.552 28.5741V13.8472H180.675V28.3485C180.675 33.3452 182.867 35.4115 186.571 35.4115C190.313 35.4115 192.467 33.3452 192.467 28.3485V13.8472H198.515V28.5741C198.515 36.3132 194.055 40.596 186.533 40.596C179.011 40.596 174.552 36.3132 174.552 28.5741Z" fill="black"/>
<path d="M202.484 37.5528L204.563 32.9696C206.793 34.585 210.119 35.7121 213.294 35.7121C216.922 35.7121 218.396 34.5099 218.396 32.8943C218.396 27.973 203.013 31.354 203.013 21.5863C203.013 17.1156 206.642 13.3965 214.163 13.3965C217.489 13.3965 220.891 14.1853 223.348 15.7256L221.458 20.3466C219.001 18.9566 216.469 18.2804 214.126 18.2804C210.497 18.2804 209.098 19.6328 209.098 21.2858C209.098 26.132 224.482 22.7885 224.482 32.4436C224.482 36.839 220.815 40.596 213.256 40.596C209.061 40.596 204.827 39.3561 202.484 37.5528Z" fill="black"/>
<path d="M227.921 13.8472H239.941C248.596 13.8472 254.53 19.0317 254.53 26.9961C254.53 34.9606 248.596 40.1451 239.941 40.1451H227.921V13.8472ZM239.638 35.1485C244.892 35.1485 248.331 32.0302 248.331 26.9961C248.331 21.962 244.892 18.8438 239.638 18.8438H234.044V35.1485H239.638Z" fill="black"/>
<path d="M120.471 54.9H115.086L113.905 57.4972H113.176L117.446 48.2688H118.123L122.394 57.4972H121.665L120.471 54.9ZM120.219 54.3331L117.778 49.0071L115.351 54.3331H120.219Z" fill="black"/>
<path d="M123.867 47.7152H124.53V57.4972H123.867V47.7152Z" fill="black"/>
<path d="M126.798 47.7152H127.461V57.4972H126.798V47.7152Z" fill="black"/>
<path d="M129.517 48.4139C129.517 48.1238 129.756 47.8733 130.061 47.8733C130.366 47.8733 130.605 48.1107 130.605 48.4006C130.605 48.704 130.366 48.9411 130.061 48.9411C129.756 48.9411 129.517 48.704 129.517 48.4139ZM129.729 50.6155H130.392V57.4972H129.729V50.6155Z" fill="black"/>
<path d="M139.08 50.6156V57.4972H138.43V55.8758C137.887 56.9436 136.839 57.55 135.592 57.55C133.642 57.55 132.17 56.1129 132.17 54.0563C132.17 51.9866 133.642 50.5629 135.592 50.5629C136.825 50.5629 137.86 51.1692 138.417 52.2107V50.6156L139.08 50.6156ZM138.417 54.0563C138.417 52.3294 137.223 51.1559 135.632 51.1559C134.04 51.1559 132.846 52.3294 132.846 54.0563C132.846 55.7834 134.04 56.9567 135.632 56.9567C137.223 56.9567 138.417 55.7834 138.417 54.0563Z" fill="black"/>
<path d="M147.278 53.4763V57.4972H146.614V53.529C146.614 51.9733 145.779 51.1559 144.373 51.1559C142.741 51.1559 141.747 52.1974 141.747 53.8322V57.4972H141.083V50.6156H141.72V52.1053C142.184 51.1429 143.152 50.5629 144.466 50.5629C146.15 50.5629 147.278 51.5514 147.278 53.4763Z" fill="black"/>
<path d="M149.267 54.0563C149.267 51.9997 150.74 50.5629 152.769 50.5629C153.87 50.5629 154.825 50.9847 155.395 51.8285L154.904 52.1844C154.4 51.4857 153.631 51.1559 152.769 51.1559C151.138 51.1559 149.944 52.3161 149.944 54.0563C149.944 55.7965 151.138 56.9567 152.769 56.9567C153.631 56.9567 154.4 56.6272 154.904 55.9285L155.395 56.2843C154.825 57.115 153.87 57.5499 152.769 57.5499C150.74 57.5499 149.267 56.0999 149.267 54.0563Z" fill="black"/>
<path d="M163.115 54.2146H157.16C157.226 55.8494 158.433 56.9567 160.091 56.9567C160.966 56.9567 161.776 56.6402 162.306 55.9942L162.691 56.4294C162.081 57.1677 161.126 57.55 160.078 57.55C157.982 57.55 156.51 56.0999 156.51 54.0563C156.51 52.013 157.929 50.5629 159.826 50.5629C161.723 50.5629 163.129 51.9866 163.129 54.03C163.129 54.0827 163.115 54.1486 163.115 54.2146ZM157.173 53.7004H162.479C162.386 52.2107 161.298 51.1429 159.826 51.1429C158.354 51.1429 157.279 52.1974 157.173 53.7004Z" fill="black"/>
<path d="M169.641 49.6135V50.6156H171.857V51.1825H169.655V57.4972H168.992V51.1825H167.718V50.6156H168.992V49.5608C168.992 48.4139 169.681 47.6625 170.915 47.6625C171.419 47.6625 171.949 47.8075 172.281 48.1107L172.016 48.6116C171.737 48.3612 171.353 48.2294 170.941 48.2294C170.079 48.2294 169.641 48.704 169.641 49.6135Z" fill="black"/>
<path d="M172.334 54.0563C172.334 52.0129 173.806 50.5629 175.796 50.5629C177.786 50.5629 179.258 52.0129 179.258 54.0563C179.258 56.0999 177.786 57.5499 175.796 57.5499C173.807 57.5499 172.334 56.0999 172.334 54.0563ZM178.581 54.0563C178.581 52.3294 177.388 51.1559 175.796 51.1559C174.204 51.1559 173.011 52.3294 173.011 54.0563C173.011 55.7834 174.204 56.9567 175.796 56.9567C177.388 56.9567 178.581 55.7834 178.581 54.0563Z" fill="black"/>
<path d="M184.59 50.5629V51.2088C184.537 51.2088 184.484 51.1956 184.431 51.1956C182.893 51.1956 181.977 52.2107 181.977 53.9115V57.4972H181.314V50.6156H181.951V52.1184C182.375 51.1165 183.29 50.5629 184.59 50.5629Z" fill="black"/>
<path d="M190.069 52.8831C190.069 50.2068 192.125 48.2029 194.897 48.2029C197.656 48.2029 199.725 50.1937 199.725 52.8831C199.725 55.5724 197.656 57.5633 194.897 57.5633C192.125 57.5633 190.069 55.5593 190.069 52.8831ZM199.035 52.8831C199.035 50.5496 197.258 48.8225 194.897 48.8225C192.523 48.8225 190.745 50.5496 190.745 52.8831C190.745 55.2165 192.523 56.9436 194.897 56.9436C197.258 56.9436 199.035 55.2165 199.035 52.8831Z" fill="black"/>
<path d="M208.228 54.0563C208.228 56.1262 206.755 57.5499 204.805 57.5499C203.585 57.5499 202.551 56.9567 201.994 55.9285V60.0548H201.33V50.6156H201.967V52.2371C202.511 51.1825 203.559 50.5629 204.805 50.5629C206.755 50.5629 208.228 51.9997 208.228 54.0563ZM207.564 54.0563C207.564 52.3294 206.357 51.1559 204.766 51.1559C203.174 51.1559 201.98 52.3294 201.98 54.0563C201.98 55.7834 203.174 56.9567 204.766 56.9567C206.357 56.9567 207.564 55.7834 207.564 54.0563Z" fill="black"/>
<path d="M216.133 54.2146H210.178C210.244 55.8494 211.451 56.9567 213.109 56.9567C213.985 56.9567 214.794 56.6402 215.324 55.9942L215.709 56.4294C215.099 57.1677 214.144 57.55 213.096 57.55C211 57.55 209.528 56.0999 209.528 54.0563C209.528 52.013 210.947 50.5629 212.844 50.5629C214.74 50.5629 216.146 51.9866 216.146 54.03C216.146 54.0827 216.133 54.1486 216.133 54.2146ZM210.191 53.7004H215.496C215.404 52.2107 214.316 51.1429 212.844 51.1429C211.372 51.1429 210.297 52.1974 210.191 53.7004Z" fill="black"/>
<path d="M224.397 53.4763V57.4972H223.734V53.529C223.734 51.9733 222.898 51.1559 221.492 51.1559C219.861 51.1559 218.866 52.1974 218.866 53.8322V57.4972H218.203V50.6156H218.839V52.1053C219.304 51.1429 220.272 50.5629 221.585 50.5629C223.269 50.5629 224.397 51.5514 224.397 53.4763Z" fill="black"/>
<path d="M227.262 53.5817V48.2688H227.939V53.5553C227.939 55.8624 229.053 56.9436 230.989 56.9436C232.926 56.9436 234.027 55.8624 234.027 53.5553V48.2688H234.703V53.5817C234.703 56.2183 233.284 57.5632 230.976 57.5632C228.668 57.5632 227.262 56.2183 227.262 53.5817Z" fill="black"/>
<path d="M236.776 56.3107L237.081 55.8098C237.717 56.469 238.898 56.97 240.145 56.97C242.001 56.97 242.824 56.1657 242.824 55.1638C242.824 52.3952 237.028 54.0563 237.028 50.655C237.028 49.35 238.036 48.2029 240.317 48.2029C241.338 48.2029 242.399 48.5193 243.116 49.0335L242.864 49.5741C242.094 49.0466 241.153 48.7961 240.317 48.7961C238.513 48.7961 237.704 49.6268 237.704 50.642C237.704 53.4104 243.5 51.7756 243.5 55.1242C243.5 56.4294 242.452 57.5632 240.158 57.5632C238.778 57.5632 237.452 57.049 236.776 56.3107Z" fill="black"/>
<path d="M245.387 48.2688H249.061C252.006 48.2688 253.995 50.1937 253.995 52.883C253.995 55.5723 252.006 57.4972 249.061 57.4972H245.387V48.2688ZM249.008 56.8909C251.634 56.8909 253.319 55.2297 253.319 52.883C253.319 50.5365 251.634 48.8753 249.008 48.8753H246.064V56.8909H249.008Z" fill="black"/>
<path d="M52.5278 32.6317L14.6584 61.007H90.3971L52.5278 32.6317Z" fill="#9EDCF2"/>
<path d="M95.5509 52.1251H9.76453L17.8711 45.9394L18.2741 45.6319L78.121 45.7974L52.6596 26.8919L47.1005 31.1314H37.9633L52.6596 19.9188L95.5509 52.1251Z" fill="#34C6F3"/>
<path d="M98.413 41.904H7.31848L52.8678 7.15234L67.5929 18.3868H57.8862L52.8678 14.5569L25.8309 35.1848H79.9047L64.0543 23.0903H73.757L98.413 41.904Z" fill="#2091D0"/>
</svg>
