<?xml version="1.0" encoding="utf-8"?>
<!-- Generator: Adobe Illustrator 28.1.0, SVG Export Plug-In . SVG Version: 6.00 Build 0)  -->
<svg version="1.1" id="Layer_1" xmlns="http://www.w3.org/2000/svg" xmlns:xlink="http://www.w3.org/1999/xlink" x="0px" y="0px"
	 width="612px" height="138.7px" viewBox="0 0 612 138.7" style="enable-background:new 0 0 612 138.7;" xml:space="preserve">
<style type="text/css">
	.st0{fill:#9391C0;}
	.st1{fill:#90B3B5;}
	.st2{fill:#032D38;}
	.st3{fill:#010101;}
	.st4{fill:#FFFFFF;}
</style>
<g>
	<path class="st0" d="M64.4,85.4c-4-1.3-7.3-3.7-9.8-7.1c-1.9-2.7-3.3-5.9-4.2-9.7c0,0,0-0.1-0.1-0.4l0-0.1v0
		c-0.1-0.7-0.4-2.1-0.6-4l0-0.1c0-0.1,0-0.2,0-0.2l0-0.1c0-0.3,0-0.5-0.1-0.8l0,0c-0.2-3,0-5.1,0-5.2l0.1-0.9l0.9,0.1
		c7,0.7,13-4,13.7-4.6l0.5-0.4l0.5,0.4c0.2,0.2,1.9,1.5,4.4,2.7c3.2,1.5,6.3,2.1,9.3,1.9l0.9-0.1l0.1,0.9c0,0.1,0.2,2.2,0,5.2l0,0.2
		c0,0.2,0,0.4-0.1,0.6l0,0.1c0,0.1,0,0.2,0,0.3c-0.2,2.1-0.5,3.4-0.6,4l0,0.1c0,0.2-0.1,0.3-0.1,0.4c-0.9,3.8-2.3,7-4.2,9.7
		c-2.5,3.4-5.8,5.8-9.8,7.1l-0.3,0.1L64.4,85.4z"/>
	<g>
		
			<ellipse transform="matrix(0.7071 -0.7071 0.7071 0.7071 3.372764e-03 39.3137)" class="st0" cx="47.5" cy="19.7" rx="7.8" ry="7.8"/>
	</g>
	<g>
		
			<ellipse transform="matrix(0.5985 -0.8012 0.8012 0.5985 -42.2859 125.0406)" class="st0" cx="103.6" cy="104.7" rx="7.8" ry="7.8"/>
	</g>
	<path class="st0" d="M28.8,111.9c4-1.7,5.8-6.3,4.1-10.2c-1.7-4-6.3-5.8-10.2-4.1c-4,1.7-5.8,6.3-4.1,10.2
		C20.3,111.7,24.8,113.6,28.8,111.9z"/>
	<path class="st1" d="M0.9,96.6c2,4.6,7.1,7.7,14.8,9l0.5-2.9c-4.6-0.7-10.6-2.6-12.6-7.2c-2.6-6.2,2.5-15,12.7-24.1
		c6.1,5.2,13.7,10.3,22.5,15.1c0.5,5.3,1.2,10.4,2.2,15.1c-1.9,0.4-3.8,0.7-5.6,0.9l0.4,2.9c1.9-0.3,3.8-0.6,5.8-0.9
		c4.6,20.7,13.1,34.3,23.1,34.3c10,0,18.6-13.6,23.1-34.3c2,0.4,3.9,0.7,5.8,0.9l0.4-2.9c-1.8-0.2-3.7-0.6-5.6-0.9
		c0.9-4.7,1.7-9.8,2.2-15.1c8.8-4.8,16.4-9.9,22.5-15.1c10.2,9.1,15.3,18,12.7,24.1c-2,4.6-7.9,6.5-12.6,7.2l0.5,2.9
		c7.7-1.2,12.8-4.3,14.8-9c3.1-7.4-2.1-17.3-13.1-27.3c11-10,16.2-19.9,13.1-27.3c-3.9-9.2-19.8-11.7-40.6-7.8
		C83.2,13.6,74.7,0,64.7,0c-5,0-9.9,3.5-14,10.1l2.5,1.5c2.5-4,6.5-8.7,11.6-8.7c8.4,0,16,13,20.2,32c-6.4,1.4-13.2,3.3-20.2,5.8
		c-7-2.5-13.9-4.5-20.3-5.8c0.4-1.9,0.9-3.7,1.4-5.5L43,28.6c-0.5,1.8-1,3.7-1.4,5.7c-20.8-3.9-36.7-1.4-40.7,7.8
		C-2.2,49.4,3,59.4,14,69.3C3,79.3-2.2,89.3,0.9,96.6z M60.4,42.3c-2,0.8-4.1,1.6-6.2,2.5c-4.3,1.8-8.4,3.8-12.3,5.8
		c0.5-4.4,1.1-8.7,1.9-12.8C49.1,38.9,54.6,40.4,60.4,42.3z M87.4,50.6c-3.9-2-8-4-12.3-5.8c-2.1-0.9-4.1-1.7-6.2-2.5
		c5.7-1.9,11.2-3.4,16.5-4.5C86.3,41.8,87,46.1,87.4,50.6z M91.4,69.3c0-4.7-0.2-9.2-0.5-13.6c7.7,4.3,14.4,9,20,13.6
		c-5.5,4.6-12.3,9.3-20,13.6C91.2,78.5,91.4,74,91.4,69.3z M90.6,52.3c-0.5-5.3-1.2-10.3-2.2-15c19.2-3.6,34-1.7,37.4,6
		c2.6,6.2-2.5,15-12.7,24.1C107,62.2,99.4,57,90.6,52.3z M85.5,100.9c-5.4-1.1-10.9-2.7-16.5-4.5c2.1-0.8,4.1-1.6,6.2-2.5
		c4.3-1.8,8.4-3.8,12.3-5.8C87,92.6,86.3,96.9,85.5,100.9z M44.4,103.8c6.5-1.4,13.3-3.3,20.2-5.8c6.9,2.5,13.7,4.4,20.2,5.8
		c-4.2,19-11.8,32-20.2,32C56.3,135.8,48.7,122.8,44.4,103.8z M41.9,88.1c3.9,2,8,4,12.3,5.8c2.1,0.9,4.1,1.7,6.2,2.5
		c-5.6,1.9-11.2,3.4-16.5,4.5C43,96.9,42.4,92.6,41.9,88.1z M40.9,69.3c0-5.2,0.2-10.3,0.6-15.2c4.4-2.3,9-4.6,13.8-6.6
		c3.1-1.3,6.3-2.6,9.3-3.7c3.1,1.1,6.2,2.3,9.3,3.7c4.8,2.1,9.4,4.3,13.8,6.6c0.4,4.9,0.7,10,0.7,15.3c0,5.2-0.2,10.3-0.7,15.3
		c-4.4,2.3-9,4.6-13.8,6.6c-3.1,1.3-6.2,2.6-9.3,3.7c-3.1-1.1-6.2-2.4-9.3-3.7c-4.8-2.1-9.4-4.3-13.8-6.6
		C41.1,79.7,40.9,74.6,40.9,69.3z M18.5,69.3c5.5-4.6,12.3-9.3,20-13.6c-0.3,4.4-0.5,9-0.5,13.6c0,4.7,0.2,9.2,0.5,13.6
		C30.8,78.6,24,74,18.5,69.3z M3.6,43.2c3.3-7.7,18.2-9.6,37.4-6c-0.9,4.8-1.7,9.8-2.2,15C30,57,22.4,62.2,16.2,67.4
		C6.1,58.3,0.9,49.4,3.6,43.2z"/>
	<g>
		<path class="st2" d="M157.7,57.3v-3.9l3.1-0.6V32.1l-3.1-0.6v-3.9h3.1H172c2.3,0,4.4,0.4,6.1,1.2s3,2,3.9,3.4
			c0.9,1.4,1.4,3.1,1.4,5.1c0,1.9-0.5,3.6-1.4,5.1c-0.9,1.4-2.2,2.6-3.9,3.4c-1.7,0.8-3.7,1.2-6.1,1.2h-4.6v5.9l3.1,0.6v3.9H157.7z
			 M167.4,41.8h4.6c1.6,0,2.8-0.4,3.6-1.3c0.8-0.9,1.2-1.9,1.2-3.3c0-1.4-0.4-2.5-1.2-3.4c-0.8-0.9-2-1.3-3.6-1.3h-4.6V41.8z"/>
		<path class="st2" d="M195.7,57.8c-2.2,0-4.2-0.5-5.7-1.4c-1.6-0.9-2.8-2.3-3.7-4s-1.3-3.7-1.3-5.9v-0.4c0-2.2,0.4-4.2,1.3-5.9
			s2.1-3,3.6-4c1.6-1,3.5-1.4,5.7-1.4c2.2,0,4.1,0.5,5.7,1.4c1.6,1,2.8,2.3,3.6,4s1.3,3.7,1.3,5.9v0.4c0,2.2-0.4,4.2-1.3,5.9
			s-2.1,3-3.6,4C199.8,57.3,197.9,57.8,195.7,57.8z M195.7,52.8c1,0,1.7-0.3,2.3-0.8c0.6-0.5,1-1.2,1.3-2.2c0.3-0.9,0.4-2,0.4-3.3
			v-0.4c0-1.2-0.1-2.3-0.4-3.3c-0.3-0.9-0.7-1.7-1.3-2.2c-0.6-0.5-1.4-0.8-2.3-0.8c-1,0-1.7,0.3-2.3,0.8c-0.6,0.5-1,1.3-1.3,2.2
			c-0.3,0.9-0.4,2-0.4,3.3v0.4c0,1.3,0.1,2.4,0.4,3.3c0.3,0.9,0.7,1.7,1.3,2.2C194,52.5,194.7,52.8,195.7,52.8z"/>
		<path class="st2" d="M218.5,57.8c-1.7,0-3.3-0.2-4.7-0.5c-1.5-0.3-2.8-0.8-4.1-1.3l-0.1-6.6h4.5l0.8,3.2c0.4,0.2,0.8,0.4,1.3,0.5
			c0.5,0.1,1.1,0.2,1.8,0.2c1.2,0,2.1-0.2,2.6-0.6c0.5-0.4,0.7-0.8,0.7-1.4c0-0.5-0.3-1-0.8-1.5c-0.5-0.4-1.6-0.8-3.3-1.1
			c-2.6-0.5-4.5-1.4-5.8-2.6c-1.2-1.2-1.9-2.7-1.9-4.5c0-1.2,0.3-2.4,0.9-3.4c0.6-1,1.5-1.9,2.8-2.5c1.3-0.6,3-1,5.1-1
			c1.7,0,3.2,0.2,4.7,0.5c1.5,0.3,2.7,0.7,3.6,1.2l0,6.4h-4.5l-0.6-2.9c-0.3-0.2-0.7-0.4-1.2-0.6c-0.4-0.1-0.9-0.2-1.5-0.2
			c-1,0-1.7,0.2-2.2,0.6c-0.5,0.4-0.7,0.9-0.7,1.4c0,0.3,0.1,0.7,0.3,1c0.2,0.3,0.6,0.6,1.1,0.9c0.6,0.3,1.4,0.5,2.5,0.8
			c2.6,0.6,4.6,1.4,5.8,2.4c1.3,1,1.9,2.5,1.9,4.5c0,2.1-0.8,3.8-2.3,5.1C223.7,57.1,221.5,57.8,218.5,57.8z"/>
		<path class="st2" d="M239.1,57.8c-2.2,0-3.9-0.6-5-1.8c-1.2-1.2-1.7-3.1-1.7-5.6V39.8h-2.9v-4.6h2.9v-5.4h6.5v5.4h3.9v4.6h-3.9
			v10.6c0,0.8,0.2,1.3,0.5,1.7c0.3,0.3,0.8,0.5,1.4,0.5c0.3,0,0.6,0,0.9-0.1c0.3,0,0.6-0.1,0.9-0.1l0.5,4.9c-0.6,0.2-1.3,0.3-2,0.4
			S239.7,57.8,239.1,57.8z"/>
		<path class="st2" d="M246.5,47.1V42h12v5.1H246.5z"/>
		<path class="st2" d="M287.6,63.3l-8.8-5.8c-0.5,0.1-1,0.1-1.4,0.2c-0.5,0-1,0.1-1.4,0.1c-2,0-3.9-0.4-5.6-1.1
			c-1.7-0.8-3.2-1.8-4.4-3.2c-1.2-1.4-2.2-3-2.8-4.8c-0.7-1.8-1-3.8-1-6v-0.5c0-2.2,0.3-4.2,1-6c0.7-1.8,1.6-3.4,2.8-4.8
			s2.7-2.4,4.4-3.2c1.7-0.8,3.5-1.1,5.6-1.1c2,0,3.9,0.4,5.6,1.1c1.7,0.8,3.2,1.8,4.4,3.2c1.3,1.4,2.2,3,2.9,4.8c0.7,1.8,1,3.8,1,6
			v0.5c0,2.6-0.5,4.9-1.5,7c-1,2.1-2.4,3.9-4,5.2l6.5,3.9L287.6,63.3z M275.9,52.7c1.6,0,3-0.4,4.1-1.3c1.1-0.8,1.9-2,2.5-3.5
			c0.6-1.5,0.8-3.3,0.8-5.3v-0.5c0-2-0.3-3.7-0.9-5.2c-0.6-1.5-1.4-2.7-2.5-3.5c-1.1-0.8-2.4-1.3-4.1-1.3c-1.6,0-3,0.4-4.1,1.2
			c-1.1,0.8-1.9,2-2.4,3.5c-0.5,1.5-0.8,3.2-0.8,5.3v0.5c0,2,0.3,3.8,0.8,5.3c0.5,1.5,1.3,2.7,2.4,3.5S274.3,52.7,275.9,52.7z"/>
		<path class="st2" d="M301.4,57.8c-2.3,0-4.1-0.7-5.5-2.2c-1.3-1.5-2-3.7-2-6.8v-9l-2.4-0.6v-3.9h2.4h6.6v13.6c0,1.3,0.2,2.3,0.7,3
			c0.5,0.6,1.3,0.9,2.3,0.9c0.7,0,1.4-0.1,2-0.4c0.6-0.3,1.1-0.7,1.5-1.2V39.7l-2.5-0.6v-3.9h2.5h6.6v17.6l2.7,0.6v3.9h-8.5
			l-0.4-2.7c-0.7,1-1.6,1.8-2.6,2.3C303.8,57.5,302.7,57.8,301.4,57.8z"/>
		<path class="st2" d="M325.9,57.8c-2.2,0-3.9-0.6-5.3-1.8c-1.3-1.2-2-2.8-2-4.8c0-1.4,0.4-2.6,1.1-3.7c0.7-1.1,1.9-1.9,3.3-2.5
			s3.3-0.9,5.6-0.9h2.6v-1.5c0-1-0.3-1.8-0.9-2.4c-0.6-0.6-1.4-1-2.6-1c-0.6,0-1.1,0.1-1.5,0.2c-0.5,0.1-0.9,0.3-1.2,0.6l-0.5,2.9
			H320l-0.1-5.9c1.2-0.6,2.5-1.1,3.8-1.5c1.4-0.4,2.9-0.6,4.6-0.6c2.9,0,5.3,0.7,7,2c1.7,1.4,2.6,3.3,2.6,5.9v8.6c0,0.3,0,0.6,0,0.9
			c0,0.3,0,0.6,0.1,0.9l2.3,0.4v3.9h-7.9c-0.2-0.3-0.3-0.7-0.5-1.1c-0.2-0.4-0.3-0.8-0.4-1.3c-0.7,0.9-1.5,1.5-2.4,2
			C328.3,57.5,327.2,57.8,325.9,57.8z M327.8,53c0.7,0,1.3-0.1,2-0.4c0.6-0.3,1.2-0.7,1.6-1.2V48h-2.6c-1.1,0-2,0.3-2.6,0.8
			c-0.6,0.5-0.9,1.2-0.9,1.9c0,0.7,0.2,1.3,0.7,1.7C326.4,52.8,327,53,327.8,53z"/>
		<path class="st2" d="M341.9,57.3v-3.9l2.7-0.6V39.7l-3.1-0.6v-3.9h9.3l0.2,3.1c0.7-1.1,1.6-2,2.7-2.6c1.1-0.6,2.3-0.9,3.7-0.9
			c2.1,0,3.8,0.7,5,2.1c1.2,1.4,1.8,3.6,1.8,6.7v9.3l2.7,0.6v3.9h-11.7v-3.9l2.3-0.6v-9.3c0-1.3-0.3-2.3-0.8-2.8
			c-0.5-0.6-1.3-0.8-2.3-0.8c-0.8,0-1.4,0.1-2,0.4c-0.6,0.3-1,0.7-1.4,1.3v11.2l2.1,0.6v3.9H341.9z"/>
		<path class="st2" d="M377,57.8c-2.2,0-3.9-0.6-5-1.8c-1.2-1.2-1.7-3.1-1.7-5.6V39.8h-2.9v-4.6h2.9v-5.4h6.5v5.4h3.9v4.6h-3.9v10.6
			c0,0.8,0.2,1.3,0.5,1.7c0.3,0.3,0.8,0.5,1.4,0.5c0.3,0,0.6,0,0.9-0.1c0.3,0,0.6-0.1,0.9-0.1l0.5,4.9c-0.6,0.2-1.3,0.3-2,0.4
			C378.3,57.7,377.7,57.8,377,57.8z"/>
		<path class="st2" d="M392.4,57.8c-2.3,0-4.1-0.7-5.5-2.2c-1.3-1.5-2-3.7-2-6.8v-9l-2.4-0.6v-3.9h2.4h6.6v13.6c0,1.3,0.2,2.3,0.7,3
			c0.5,0.6,1.3,0.9,2.3,0.9c0.7,0,1.4-0.1,2-0.4c0.6-0.3,1.1-0.7,1.5-1.2V39.7l-2.5-0.6v-3.9h2.5h6.6v17.6l2.7,0.6v3.9h-8.5
			l-0.4-2.7c-0.7,1-1.6,1.8-2.6,2.3C394.8,57.5,393.7,57.8,392.4,57.8z"/>
		<path class="st2" d="M409.1,57.3v-3.9l2.8-0.6V39.7l-3.2-0.6v-3.9h9.3l0.2,2.9c0.7-1.1,1.6-1.9,2.7-2.5s2.3-0.9,3.7-0.9
			c1.4,0,2.6,0.3,3.6,0.9c1,0.6,1.8,1.5,2.3,2.8c0.7-1.2,1.6-2.1,2.6-2.7c1.1-0.6,2.3-1,3.8-1c2.2,0,3.9,0.7,5.1,2.2
			c1.2,1.5,1.9,3.7,1.9,6.7v9.1l2.8,0.6v3.9h-11.7v-3.9l2.3-0.6v-9.1c0-1.5-0.2-2.5-0.7-3s-1.1-0.8-2-0.8c-0.8,0-1.5,0.2-2,0.6
			c-0.6,0.4-1,0.9-1.4,1.6v10.8l2.1,0.6v3.9h-10.8v-3.9l2.1-0.6v-9.1c0-1.4-0.2-2.4-0.7-3c-0.5-0.6-1.2-0.8-2.1-0.8
			c-0.7,0-1.4,0.1-1.9,0.4c-0.6,0.3-1,0.7-1.4,1.3v11.3l2.4,0.6v3.9H409.1z"/>
		<path class="st2" d="M172.1,103.1c-2.9,0-5.4-0.6-7.6-1.8c-2.2-1.2-3.9-2.9-5.1-5.1c-1.2-2.2-1.8-4.8-1.8-7.9v-1.2
			c0-2.9,0.6-5.4,1.7-7.6c1.1-2.2,2.8-4,4.9-5.2c2.1-1.3,4.7-1.9,7.6-1.9c2,0,4,0.3,5.8,0.8c1.8,0.6,3.5,1.5,5,2.7v7.4h-4.9
			l-0.7-4.5c-0.5-0.3-1-0.6-1.5-0.8c-0.5-0.2-1.1-0.4-1.7-0.5c-0.6-0.1-1.2-0.2-1.9-0.2c-1.6,0-3,0.4-4.2,1.2
			c-1.2,0.8-2.1,1.9-2.7,3.3c-0.6,1.4-1,3.2-1,5.2v1.2c0,2,0.3,3.7,1,5.1c0.7,1.5,1.6,2.6,2.8,3.4c1.2,0.8,2.6,1.2,4.3,1.2
			c0.8,0,1.7-0.1,2.5-0.3c0.8-0.2,1.6-0.4,2.4-0.7l0.7-4.2h4.8v7.3c-1.2,0.8-2.7,1.5-4.4,2C176.4,102.8,174.3,103.1,172.1,103.1z"/>
		<path class="st2" d="M185.8,102.6v-3.9l2.7-0.6V85l-3.1-0.6v-3.9h9.3l0.2,2.7l0,0.5c0.5-1.2,1.2-2.2,1.9-2.8
			c0.8-0.6,1.7-0.9,2.8-0.9c0.3,0,0.7,0,1.1,0.1c0.4,0.1,0.8,0.1,1.2,0.2l-0.7,6l-3-0.1c-0.8,0-1.4,0.1-1.9,0.3
			c-0.5,0.3-0.9,0.6-1.3,1.2v10.3l2.7,0.6v3.9H185.8z"/>
		<path class="st2" d="M210.4,111.6c-0.6,0-1.1,0-1.8-0.1c-0.6-0.1-1.2-0.2-1.8-0.4l0.8-4.8c0.3,0.1,0.5,0.1,0.8,0.1
			c0.3,0,0.6,0.1,0.8,0.1c0.9,0,1.6-0.2,2.3-0.6c0.6-0.4,1.1-1,1.3-1.7l0.3-1.1l-7.3-18.3l-2.8-0.4v-3.9h12.5v3.9l-2.7,0.4l3.2,9.4
			l0.2,0.7h0.1l3.8-10.1l-2.6-0.3v-3.9h11.5v3.9l-2.6,0.3l-8.4,21.2c-0.4,1-0.9,1.9-1.6,2.8c-0.6,0.9-1.5,1.6-2.5,2.1
			C213.2,111.3,211.9,111.6,210.4,111.6z"/>
		<path class="st2" d="M230.8,111.2v-3.9l2.8-0.6V85l-3.2-0.6v-3.9h9.3L240,83c0.6-0.9,1.4-1.7,2.3-2.2c0.9-0.5,2-0.8,3.2-0.8
			c1.8,0,3.3,0.5,4.5,1.5c1.3,1,2.2,2.3,2.9,4.1c0.7,1.7,1,3.8,1,6.1v0.4c0,2.2-0.3,4.1-1,5.8c-0.7,1.7-1.7,2.9-2.9,3.8
			c-1.3,0.9-2.8,1.4-4.6,1.4c-1.1,0-2.2-0.2-3-0.6s-1.6-1-2.2-1.9v6l2.7,0.6v3.9H230.8z M243.4,98.1c1.4,0,2.4-0.5,3-1.6
			c0.6-1.1,0.9-2.5,0.9-4.4v-0.4c0-1.3-0.1-2.4-0.4-3.4c-0.3-1-0.7-1.7-1.3-2.3c-0.6-0.5-1.3-0.8-2.3-0.8c-0.7,0-1.3,0.2-1.9,0.5
			c-0.6,0.3-1,0.8-1.3,1.4v9.4c0.3,0.5,0.8,1,1.3,1.2C242.1,97.9,242.7,98.1,243.4,98.1z"/>
		<path class="st2" d="M265.5,103.1c-2.2,0-3.9-0.6-5-1.8c-1.2-1.2-1.7-3.1-1.7-5.6V85.1h-2.9v-4.6h2.9V75h6.5v5.4h3.9v4.6h-3.9
			v10.6c0,0.8,0.2,1.3,0.5,1.7c0.3,0.3,0.8,0.5,1.4,0.5c0.3,0,0.6,0,0.9-0.1c0.3,0,0.6-0.1,0.9-0.1l0.5,4.9c-0.6,0.2-1.3,0.3-2,0.4
			S266.1,103.1,265.5,103.1z"/>
		<path class="st2" d="M281.8,103.1c-2.2,0-4.2-0.5-5.7-1.4c-1.6-0.9-2.8-2.3-3.7-4c-0.8-1.7-1.3-3.7-1.3-5.9v-0.4
			c0-2.2,0.4-4.2,1.3-5.9c0.8-1.7,2.1-3,3.6-4c1.6-1,3.5-1.4,5.7-1.4c2.2,0,4.1,0.5,5.7,1.4c1.6,1,2.8,2.3,3.6,4
			c0.8,1.7,1.3,3.7,1.3,5.9v0.4c0,2.2-0.4,4.2-1.3,5.9c-0.8,1.7-2.1,3-3.6,4C285.9,102.6,284,103.1,281.8,103.1z M281.8,98.1
			c1,0,1.7-0.3,2.3-0.8c0.6-0.5,1-1.2,1.3-2.2c0.3-0.9,0.4-2,0.4-3.3v-0.4c0-1.2-0.1-2.3-0.4-3.3c-0.3-0.9-0.7-1.7-1.3-2.2
			c-0.6-0.5-1.4-0.8-2.3-0.8c-1,0-1.7,0.3-2.3,0.8c-0.6,0.5-1,1.3-1.3,2.2c-0.3,0.9-0.4,2-0.4,3.3v0.4c0,1.3,0.1,2.4,0.4,3.3
			c0.3,0.9,0.7,1.7,1.3,2.2C280,97.8,280.8,98.1,281.8,98.1z"/>
		<path class="st2" d="M304.7,111.6c-1.1,0-2.4-0.1-3.9-0.4c-1.4-0.3-2.7-0.7-3.8-1.2l1.1-4.6c1,0.4,2.1,0.8,3.1,1
			c1.1,0.2,2.1,0.3,3,0.3c1.5,0,2.7-0.4,3.4-1.3c0.7-0.9,1.1-2,1.1-3.5v-1.3c-0.6,0.8-1.4,1.4-2.2,1.8c-0.8,0.4-1.8,0.6-2.9,0.6
			c-1.8,0-3.3-0.5-4.6-1.4c-1.3-0.9-2.3-2.2-3-3.8c-0.7-1.7-1-3.6-1-5.8v-0.4c0-2.3,0.3-4.3,1-6.1c0.7-1.7,1.6-3.1,2.9-4.1
			c1.3-1,2.8-1.5,4.5-1.5c1.3,0,2.4,0.3,3.4,0.8s1.7,1.3,2.4,2.4l0.4-2.8h5.8v21.4c0,2-0.4,3.7-1.3,5.1c-0.9,1.5-2.1,2.6-3.7,3.4
			C308.8,111.2,306.9,111.6,304.7,111.6z M305.5,98c0.7,0,1.3-0.1,1.9-0.4c0.6-0.3,1-0.7,1.4-1.2V87c-0.3-0.6-0.8-1-1.4-1.3
			c-0.6-0.3-1.2-0.5-1.9-0.5c-0.9,0-1.7,0.3-2.3,0.8c-0.6,0.5-1,1.3-1.3,2.3c-0.3,1-0.4,2.1-0.4,3.4v0.4c0,1.9,0.3,3.3,0.9,4.3
			S304.1,98,305.5,98z M314.6,85.1l-2.9-4.6h6.3v3.9L314.6,85.1z"/>
		<path class="st2" d="M320.3,102.6v-3.9l2.7-0.6V85l-3.1-0.6v-3.9h9.3l0.2,2.7l0,0.5c0.5-1.2,1.2-2.2,1.9-2.8
			c0.8-0.6,1.7-0.9,2.8-0.9c0.3,0,0.7,0,1.1,0.1c0.4,0.1,0.8,0.1,1.2,0.2l-0.7,6l-3-0.1c-0.8,0-1.4,0.1-1.9,0.3
			c-0.5,0.3-0.9,0.6-1.3,1.2v10.3l2.7,0.6v3.9H320.3z"/>
		<path class="st2" d="M345.1,103.1c-2.2,0-3.9-0.6-5.3-1.8c-1.3-1.2-2-2.8-2-4.8c0-1.4,0.4-2.6,1.1-3.7c0.7-1.1,1.9-1.9,3.3-2.5
			c1.5-0.6,3.3-0.9,5.6-0.9h2.6v-1.5c0-1-0.3-1.8-0.9-2.4s-1.4-1-2.6-1c-0.6,0-1.1,0.1-1.5,0.2c-0.5,0.1-0.9,0.3-1.2,0.6l-0.5,2.9
			h-4.7l-0.1-5.9c1.2-0.6,2.5-1.1,3.8-1.5c1.4-0.4,2.9-0.6,4.6-0.6c2.9,0,5.3,0.7,7,2c1.7,1.4,2.6,3.3,2.6,5.9v8.6
			c0,0.3,0,0.6,0,0.9c0,0.3,0,0.6,0.1,0.9l2.3,0.4v3.9h-7.9c-0.2-0.3-0.3-0.7-0.5-1.1c-0.2-0.4-0.3-0.8-0.4-1.3
			c-0.7,0.9-1.5,1.5-2.4,2C347.4,102.8,346.3,103.1,345.1,103.1z M346.9,98.3c0.7,0,1.3-0.1,2-0.4c0.6-0.3,1.2-0.7,1.6-1.2v-3.4
			h-2.6c-1.1,0-2,0.3-2.6,0.8c-0.6,0.5-0.9,1.2-0.9,1.9c0,0.7,0.2,1.3,0.7,1.7C345.5,98.1,346.2,98.3,346.9,98.3z"/>
		<path class="st2" d="M361.3,111.2v-3.9l2.8-0.6V85l-3.2-0.6v-3.9h9.3l0.3,2.5c0.6-0.9,1.4-1.7,2.3-2.2c0.9-0.5,2-0.8,3.2-0.8
			c1.8,0,3.3,0.5,4.5,1.5c1.3,1,2.2,2.3,2.9,4.1c0.7,1.7,1,3.8,1,6.1v0.4c0,2.2-0.3,4.1-1,5.8c-0.7,1.7-1.7,2.9-2.9,3.8
			c-1.3,0.9-2.8,1.4-4.6,1.4c-1.1,0-2.2-0.2-3-0.6c-0.9-0.4-1.6-1-2.2-1.9v6l2.7,0.6v3.9H361.3z M374,98.1c1.4,0,2.4-0.5,3-1.6
			c0.6-1.1,0.9-2.5,0.9-4.4v-0.4c0-1.3-0.1-2.4-0.4-3.4c-0.3-1-0.7-1.7-1.3-2.3c-0.6-0.5-1.3-0.8-2.3-0.8c-0.7,0-1.3,0.2-1.9,0.5
			c-0.6,0.3-1,0.8-1.3,1.4v9.4c0.3,0.5,0.8,1,1.3,1.2C372.6,97.9,373.2,98.1,374,98.1z"/>
		<path class="st2" d="M386.3,102.6v-3.9l2.7-0.6V75.2l-3.2-0.6v-3.9h9.7v12.6c0.7-1,1.5-1.8,2.5-2.4c1-0.6,2.2-0.8,3.5-0.8
			c2.2,0,3.9,0.8,5.2,2.3c1.3,1.5,1.9,3.8,1.9,7v8.8l2.7,0.6v3.9h-11.7v-3.9l2.3-0.6v-8.9c0-1.5-0.3-2.6-0.8-3.2
			c-0.5-0.6-1.3-0.9-2.4-0.9c-0.7,0-1.4,0.1-2,0.4c-0.6,0.3-1.1,0.7-1.4,1.3v11.3l2.4,0.6v3.9H386.3z"/>
		<path class="st2" d="M418.5,111.6c-0.6,0-1.1,0-1.8-0.1c-0.6-0.1-1.2-0.2-1.8-0.4l0.8-4.8c0.3,0.1,0.5,0.1,0.8,0.1
			c0.3,0,0.6,0.1,0.8,0.1c0.9,0,1.6-0.2,2.3-0.6c0.6-0.4,1.1-1,1.3-1.7l0.3-1.1L414,84.8l-2.8-0.4v-3.9h12.5v3.9l-2.7,0.4l3.2,9.4
			l0.2,0.7h0.1l3.8-10.1l-2.6-0.3v-3.9h11.5v3.9l-2.6,0.3l-8.4,21.2c-0.4,1-0.9,1.9-1.6,2.8c-0.6,0.9-1.5,1.6-2.5,2.1
			C421.2,111.3,420,111.6,418.5,111.6z"/>
		<path class="st2" d="M448.5,102.6v-3.9l2.1-0.3l9.2-25.6h6.9l9.2,25.6l2.1,0.3v3.9h-10.7v-3.9l2-0.4l-1.1-3.7h-10l-1.1,3.7l2,0.4
			v3.9H448.5z M459.7,90h7.1l-3.2-9.6l-0.3-1h-0.1l-0.3,1.1L459.7,90z"/>
		<path class="st2" d="M479.5,102.6v-3.9l2.8-0.6V75.2l-3.2-0.6v-3.9h9.8v27.4l2.7,0.6v3.9H479.5z"/>
		<path class="st2" d="M492.9,102.6v-3.9l2.8-0.6V75.2l-3.2-0.6v-3.9h9.8v27.4l2.7,0.6v3.9H492.9z"/>
		<path class="st2" d="M506.5,102.6v-3.9l2.7-0.6V85l-3.1-0.6v-3.9h9.7v17.6l2.7,0.6v3.9H506.5z M509,76v-5.3h6.8V76H509z"/>
		<path class="st2" d="M527.8,103.1c-2.2,0-3.9-0.6-5.3-1.8c-1.3-1.2-2-2.8-2-4.8c0-1.4,0.4-2.6,1.1-3.7c0.7-1.1,1.9-1.9,3.3-2.5
			c1.5-0.6,3.3-0.9,5.6-0.9h2.6v-1.5c0-1-0.3-1.8-0.9-2.4s-1.4-1-2.6-1c-0.6,0-1.1,0.1-1.5,0.2c-0.5,0.1-0.9,0.3-1.2,0.6l-0.5,2.9
			h-4.7l-0.1-5.9c1.2-0.6,2.5-1.1,3.8-1.5c1.4-0.4,2.9-0.6,4.6-0.6c2.9,0,5.3,0.7,7,2c1.7,1.4,2.6,3.3,2.6,5.9v8.6
			c0,0.3,0,0.6,0,0.9c0,0.3,0,0.6,0.1,0.9l2.3,0.4v3.9h-7.9c-0.2-0.3-0.3-0.7-0.5-1.1c-0.2-0.4-0.3-0.8-0.4-1.3
			c-0.7,0.9-1.5,1.5-2.4,2C530.2,102.8,529.1,103.1,527.8,103.1z M529.7,98.3c0.7,0,1.3-0.1,2-0.4c0.6-0.3,1.2-0.7,1.6-1.2v-3.4
			h-2.6c-1.1,0-2,0.3-2.6,0.8c-0.6,0.5-0.9,1.2-0.9,1.9c0,0.7,0.2,1.3,0.7,1.7C528.3,98.1,528.9,98.3,529.7,98.3z"/>
		<path class="st2" d="M543.7,102.6v-3.9l2.7-0.6V85l-3.1-0.6v-3.9h9.3l0.2,3.1c0.7-1.1,1.6-2,2.7-2.6c1.1-0.6,2.3-0.9,3.7-0.9
			c2.1,0,3.8,0.7,5,2.1c1.2,1.4,1.8,3.6,1.8,6.7v9.3l2.7,0.6v3.9h-11.7v-3.9l2.3-0.6v-9.3c0-1.3-0.3-2.3-0.8-2.8
			c-0.5-0.6-1.3-0.8-2.3-0.8c-0.8,0-1.4,0.1-2,0.4c-0.6,0.3-1,0.7-1.4,1.3v11.2l2.1,0.6v3.9H543.7z"/>
		<path class="st2" d="M580.9,103.1c-2.2,0-4-0.5-5.6-1.4c-1.6-1-2.8-2.3-3.6-4c-0.8-1.7-1.3-3.6-1.3-5.8v-0.6
			c0-2.2,0.4-4.1,1.3-5.8c0.9-1.7,2.1-3,3.6-4c1.6-1,3.4-1.4,5.5-1.4c2,0,3.8,0.3,5.3,0.9c1.5,0.6,2.7,1.3,3.5,2.1l-0.1,6.7h-4.9
			l-0.8-4c-0.3-0.3-0.6-0.5-1.1-0.7c-0.4-0.2-0.9-0.3-1.3-0.3c-1.1,0-1.9,0.2-2.6,0.7c-0.7,0.5-1.1,1.2-1.4,2.2
			c-0.3,1-0.5,2.1-0.5,3.6v0.6c0,1.5,0.2,2.7,0.6,3.6c0.4,0.9,0.9,1.6,1.5,2c0.6,0.4,1.2,0.6,1.9,0.6c1,0,1.7-0.2,2.3-0.7
			c0.6-0.5,1-1.2,1.2-2.1h5.6l0.1,0.1c-0.3,1.7-0.8,3.1-1.5,4.2c-0.7,1.2-1.7,2-2.9,2.6C584.5,102.8,582.9,103.1,580.9,103.1z"/>
		<path class="st2" d="M603.2,103.1c-2.2,0-4-0.5-5.6-1.4c-1.6-0.9-2.8-2.2-3.7-3.9s-1.3-3.5-1.3-5.6v-0.8c0-2.2,0.4-4.2,1.2-5.9
			c0.8-1.7,2-3.1,3.5-4s3.3-1.5,5.4-1.4c2,0,3.7,0.4,5.1,1.2c1.4,0.8,2.4,1.9,3.1,3.4c0.7,1.5,1.1,3.3,1.1,5.5v3.5h-12.6l0,0.1
			c0.1,0.8,0.3,1.6,0.7,2.2c0.4,0.6,0.9,1.2,1.6,1.5c0.7,0.4,1.5,0.6,2.5,0.6c1,0,2-0.1,2.9-0.4c0.9-0.2,1.9-0.6,2.8-1.1l1.6,4
			c-1,0.7-2.1,1.3-3.5,1.8C606.6,102.8,605,103.1,603.2,103.1z M599.4,89.4h6.5v-0.5c0-0.8-0.1-1.5-0.3-2.1c-0.2-0.6-0.5-1-1-1.4
			c-0.5-0.3-1.1-0.5-1.8-0.5c-0.8,0-1.4,0.2-1.9,0.6c-0.5,0.4-0.9,0.9-1.1,1.6c-0.3,0.7-0.4,1.4-0.5,2.3L599.4,89.4z"/>
	</g>
</g>
</svg>
