<svg id="Layer_1" data-name="Layer 1" xmlns="http://www.w3.org/2000/svg" xmlns:xlink="http://www.w3.org/1999/xlink" viewBox="0 0 726.44 204.44"><defs><style>.cls-1{fill:none;}.cls-2{clip-path:url(#clip-path);}.cls-3{fill:#43af5a;}.cls-4{fill:#d2e4f4;}.cls-5{fill:#fc0;}.cls-6{fill:#5b87da;}.cls-7{fill:#1edcff;}</style><clipPath id="clip-path"><rect class="cls-1" x="37.765" y="10.38909" width="184.17622" height="184.17622"/></clipPath></defs><path d="M321.79639,187.55664H291.0332V135.87891h4.87061v47.2373h25.89258Z"/><path d="M329.62109,177.24219c0-6.374,4.76319-10.24219,13.3584-10.81446l11.603-.71679v-3.22266c0-5.37207-3.40234-8.5957-9.20361-8.5957-5.4795,0-8.98926,2.68652-9.8125,7.19824h-4.584c.53711-6.66016,6.01612-11.3877,14.50391-11.3877,8.4873,0,13.82324,4.7627,13.82324,12.35547v25.498h-4.51221v-7.09082h-.10742c-2.07715,4.62012-7.1626,7.69922-12.71338,7.69922C334.63525,188.165,329.62109,183.76074,329.62109,177.24219Zm24.96143-3.68848v-4.11816l-11.03027.75195c-5.87305.39453-9.13184,2.93652-9.13184,7.05469,0,4.04687,3.47363,6.84082,8.52295,6.84082C349.46143,184.083,354.58252,179.46289,354.58252,173.55371Z"/><path d="M370.93164,150.31152h4.47656v6.876h.10742c1.89747-4.51172,6.26661-7.48438,12.28321-7.48438,8.165,0,13.17871,5.26465,13.17871,13.71583v24.13769H396.251V164.1709c0-6.51758-3.582-10.24219-9.8125-10.24219-6.44629,0-10.78028,4.65527-10.78028,11.56738v22.06055h-4.72656Z"/><path d="M410.77344,168.93457c0-11.60352,6.48144-19.23145,15.8291-19.23145a13.46036,13.46036,0,0,1,12.749,8.27247h.10742V135.87891h4.7627v51.67773H439.71v-7.87891h-.10742A13.71975,13.71975,0,0,1,426.71,188.165C417.291,188.165,410.77344,180.502,410.77344,168.93457Zm4.87011,0c0,9.0957,4.72754,15.041,11.88965,15.041,7.09082,0,11.96094-6.01661,11.96094-15.041,0-8.98926-4.87012-15.042-11.96094-15.042C420.37109,153.89258,415.64355,159.83789,415.64355,168.93457Z"/><path d="M468.87891,149.70312c7.95019,0,13.251,4.61915,13.68066,11.3877h-4.54883c-.6084-4.65527-3.97461-7.48437-9.13183-7.48437-5.085,0-8.5586,2.68554-8.5586,6.41015,0,3.04395,2.11231,4.94238,7.05469,6.124l5.62207,1.3252c7.44922,1.791,10.24316,4.65527,10.24316,9.91992,0,6.30274-5.90918,10.7793-14.03906,10.7793-8.416,0-14.00293-4.47656-14.64746-11.28027h4.72754c.71582,4.6914,4.333,7.37695,9.91992,7.37695s9.27539-2.61426,9.27539-6.51758c0-3.22363-1.82617-5.01367-6.83984-6.23144l-5.58692-1.3252c-7.09082-1.64746-10.42187-4.7627-10.42187-9.91992C455.62793,154.10742,461.10742,149.70312,468.87891,149.70312Z"/><path d="M518.8916,162.09375c-1.00293-4.584-4.76367-8.20117-10.63672-8.20117-7.26953,0-12.0332,5.83789-12.0332,15.042,0,9.34668,4.79883,15.041,12.06934,15.041,5.62207,0,9.52539-3.11621,10.60058-7.9502H523.583c-1.03906,7.126-7.09082,12.13965-15.32813,12.13965-10.1709,0-16.86718-7.30566-16.86718-19.23047,0-11.74707,6.69628-19.23145,16.83105-19.23145,8.77441,0,14.39746,5.7295,15.32813,12.39063Z"/><path d="M531.83789,177.24219c0-6.374,4.7627-10.24219,13.35742-10.81446l11.60352-.71679v-3.22266c0-5.37207-3.40235-8.5957-9.2041-8.5957-5.47852,0-8.98828,2.68652-9.8125,7.19824h-4.584c.53711-6.66016,6.0166-11.3877,14.50391-11.3877,8.48828,0,13.82422,4.7627,13.82422,12.35547v25.498h-4.5127v-7.09082h-.10742c-2.07715,4.62012-7.16211,7.69922-12.71289,7.69922C536.85156,188.165,531.83789,183.76074,531.83789,177.24219Zm24.96094-3.68848v-4.11816l-11.03028.75195c-5.873.39453-9.13183,2.93652-9.13183,7.05469,0,4.04687,3.47363,6.84082,8.52344,6.84082C551.67773,184.083,556.79883,179.46289,556.79883,173.55371Z"/><path d="M606.45215,168.93457c0,11.60254-6.41016,19.23047-15.75684,19.23047a13.361,13.361,0,0,1-12.67773-8.27246H577.874V199.876h-4.72656V150.31152H577.624v7.87891h.14258a13.61825,13.61825,0,0,1,12.82129-8.48731C600.00586,149.70312,606.45215,157.36719,606.45215,168.93457Zm-4.834,0c0-9.06055-4.65625-15.042-11.85449-15.042-7.05469,0-11.88965,6.08887-11.88965,15.042,0,8.98828,4.835,15.041,11.88965,15.041C596.96191,183.97559,601.61816,178.03027,601.61816,168.93457Z"/><path d="M646.90332,176.99219c-1.11035,6.44629-7.16309,11.17285-15.36426,11.17285-10.457,0-16.93847-7.30566-16.93847-19.12305,0-11.56738,6.55371-19.33887,16.65234-19.33887,9.88477,0,16.11523,7.26954,16.11523,18.3711v2.00586H619.4707v.28711c0,8.415,4.7627,13.64355,12.17578,13.64355,5.62305,0,9.52637-2.93652,10.56543-7.01855Zm-27.39648-10.67188h22.99121c-.10743-7.34179-4.584-12.46289-11.31641-12.46289C624.52051,153.85742,619.90039,158.97852,619.50684,166.32031Z"/><g class="cls-2"><path class="cls-3" d="M185.078,194.54308h40.42337v-35.297c-14.32-10.25874-28.51-20.52785-42.56111-31.06728-4.28432-3.25017-7.53451-3.39793-11.81883.14772-7.97771,6.6481-16.39865,12.70526-24.52409,19.20561-3.39787,2.65924-5.90942,2.65924-9.01187-.59092-14.77354-14.9213-29.99027-29.54712-44.61609-44.6161-3.69339-3.84111-6.35263-3.84111-10.34143-.59094-14.942,12.28124-29.95632,24.42067-44.98987,36.5645v56.24583H158.31576v36.85556H185.078V194.54453Z"/><path class="cls-4" d="M37.638,73.83584v64.46141C52.67158,126.1534,67.68742,114.014,82.62791,101.73273c3.98886-3.25018,6.64809-3.25018,10.34143.59094,14.62581,15.069,29.84254,29.69482,44.61609,44.61611,3.10245,3.25017,5.614,3.25017,9.01187.59093,8.12546-6.50035,16.54638-12.55752,24.52409-19.20561,4.28432-3.54571,7.53453-3.39787,11.81885-.14772,14.05111,10.53939,28.24111,20.81,42.56111,31.06877V6.78907H37.5627V47.02629H-1.61969v26.811H37.638Z"/></g><path class="cls-5" d="M166.995,91.1358a31.565,31.565,0,1,0-31.87658-31.564A31.565,31.565,0,0,0,166.995,91.1358Z"/><path d="M277.361,122.448a22.48349,22.48349,0,0,1-13.455-4.44855v22.78682h-9.11579V67.43183h7.70362l.76009,5.426c2.49631-3.47376,8.3557-6.51147,14.75917-6.51147,15.84063,0,19.9638,12.80559,19.9638,27.99681C297.97684,111.2706,292.33481,122.448,277.361,122.448Zm-13.455-11.61077a19.86215,19.86215,0,0,0,12.15217,4.23118c10.52531,0,12.80426-8.245,12.80426-20.83191,0-12.58823-1.95224-20.51055-12.15217-20.51055a19.30836,19.30836,0,0,0-12.80426,5.318Zm72.69968-35.80844a65.11647,65.11647,0,0,0-16.81941,5.64336v40.581h-9.11447v-53.82h7.4876l.97479,6.29279c3.2564-3.25374,9.22514-6.4008,16.278-7.05288Zm14.32311,23.32955c.54407,11.39342,3.36443,16.81942,14.32444,16.81942a45.77543,45.77543,0,0,0,15.842-3.03771l1.41084,6.9422A50.48058,50.48058,0,0,1,365.14382,122.34c-19.42374,0-23.33089-13.24031-23.33089-28.32218,0-15.51526,5.09929-27.6701,21.59468-27.6701,14.64848,0,20.72523,10.30928,20.72523,23.22288v8.7891H350.92872Zm0-7.15955h24.415V89.24386c0-9.9839-3.14573-16.05932-12.04549-16.05932C353.209,73.18454,351.03809,80.45477,350.92874,91.19877Zm59.02865,31.14253c-5.426,0-12.37086-1.19482-17.03678-3.58311l1.73622-7.15956a38.19765,38.19765,0,0,0,14.86718,3.36442c7.15956,0,10.96-1.95491,10.96-8.03033,0-5.75405-3.90715-7.48759-11.17739-9.22514-11.82681-2.82035-16.27536-6.94486-16.27536-16.16734,0-10.09325,5.534-15.19255,18.11958-15.19255a37.41511,37.41511,0,0,1,14.54048,2.711l-1.51887,7.2729a36.808,36.808,0,0,0-12.80425-2.60566c-6.83684,0-9.44117,1.84423-9.44117,7.27157,0,5.642,2.60433,6.7275,10.308,8.78776C422.76031,92.607,429.3798,95.97,429.3798,106.28064,429.3798,117.56337,421.13211,122.3413,409.95739,122.3413Zm58.26989-1.62954a40.45219,40.45219,0,0,1-11.0667,1.62821c-9.22382,0-13.12962-5.102-13.12962-13.45768V74.81274h-9.33182V67.43183H444.031V54.3022l9.11448-1.3015V67.43182h15.29924l-.75876,7.38092H453.14544v33.63884c0,4.98994,1.19348,6.51147,6.18476,6.51147a40.04931,40.04931,0,0,0,8.13834-1.08813l.75876,6.83684ZM498.391,122.3413c-15.62594,0-22.68014-11.71879-22.68014-27.99681,0-16.27669,7.0542-27.99681,22.68014-27.99681,15.62459,0,22.67881,11.71879,22.67881,27.99681C521.06983,110.62118,514.01563,122.3413,498.391,122.3413Zm0-48.61536c-11.2854,0-13.56569,9.22247-13.56569,20.61855,0,11.39341,2.28029,20.61855,13.56569,20.61855,11.28407,0,13.56434-9.22514,13.56434-20.61855C511.95536,82.94841,509.67507,73.72594,498.391,73.72594Z"/><circle class="cls-6" cx="617.43585" cy="15.01941" r="6.17809"/><circle class="cls-6" cx="634.4188" cy="32.00366" r="6.86352"/><circle class="cls-6" cx="651.4017" cy="48.9898" r="7.54895" transform="translate(156.15012 474.95934) rotate(-45)"/><circle class="cls-6" cx="668.36871" cy="65.9555" r="8.23434" transform="translate(149.12308 491.92597) rotate(-45)"/><circle class="cls-7" cx="583.48629" cy="15.01938" r="5.49269"/><circle class="cls-7" cx="600.46924" cy="32.00422" r="6.17809"/><circle class="cls-7" cx="617.43661" cy="48.97084" r="6.86352"/><circle class="cls-7" cx="634.413" cy="65.94588" r="7.54895" transform="translate(139.18449 467.91284) rotate(-45)"/><circle class="cls-7" cx="651.39982" cy="82.94013" r="8.23434" transform="translate(132.14307 484.90183) rotate(-45)"/><circle cx="549.55539" cy="15.03909" r="4.80726"/><circle cx="566.51219" cy="31.99354" r="5.49269"/><circle cx="583.5036" cy="48.98939" r="6.17809"/><circle cx="600.47769" cy="65.96295" r="6.86352"/><circle cx="617.45201" cy="82.94159" r="7.54895" transform="translate(122.19895 460.89754) rotate(-45)"/><circle cx="634.41394" cy="99.89505" r="8.23434" transform="translate(115.17907 477.85698) rotate(-45)"/><circle class="cls-6" cx="583.48872" cy="82.91583" r="5.49269"/><circle class="cls-6" cx="566.51558" cy="99.88954" r="5.49269"/><circle class="cls-6" cx="549.54652" cy="116.87644" r="5.49269"/><circle class="cls-6" cx="583.49045" cy="116.86687" r="5.49269"/><circle class="cls-6" cx="617.44335" cy="116.87951" r="5.49266" transform="translate(98.19867 470.8316) rotate(-45)"/><circle class="cls-6" cx="600.46243" cy="99.88901" r="5.49266" transform="translate(105.23918 453.84787) rotate(-45)"/></svg>