<svg width="227" height="64" viewBox="0 0 227 64" fill="none" xmlns="http://www.w3.org/2000/svg">
<path d="M14.0224 16.7019C12.9981 16.7019 12.1558 17.5486 12.1558 18.5784C12.1558 19.6082 12.9981 20.4549 14.0224 20.4549C15.0468 20.4549 15.8891 19.6082 15.8891 18.5784C15.8891 17.5257 15.0468 16.7019 14.0224 16.7019Z" fill="white"/>
<path d="M7.53481 50.7993C6.51044 50.7993 5.66818 51.646 5.66818 52.6758C5.66818 53.7056 6.51044 54.5523 7.53481 54.5523C8.55918 54.5523 9.40144 53.7056 9.40144 52.6758C9.4242 51.646 8.58194 50.7993 7.53481 50.7993Z" fill="white"/>
<path d="M57.1597 12.3311C56.1354 12.3311 55.2931 13.1778 55.2931 14.2076C55.2931 15.2373 56.1354 16.0841 57.1597 16.0841C58.1841 16.0841 59.0263 15.2373 59.0263 14.2076C59.0263 13.1778 58.1841 12.3311 57.1597 12.3311Z" fill="white"/>
<path d="M49.0558 42.1948C48.0315 42.1948 47.1892 43.0415 47.1892 44.0713C47.1892 45.1011 48.0315 45.9478 49.0558 45.9478C50.0802 45.9478 50.9225 45.1011 50.9225 44.0713C50.9225 43.0415 50.0802 42.1948 49.0558 42.1948Z" fill="white"/>
<path d="M31.3229 53.9116C34.8513 53.9116 38.3796 53.042 41.4983 51.3715C43.8429 50.1357 45.9372 48.4423 47.69 46.4514C46.8705 45.9708 46.3242 45.0783 46.3242 44.0714C46.3242 43.4536 46.5291 42.8815 46.8705 42.4238L44.6852 40.8677L44.3893 41.2796C41.3845 45.5589 36.4903 48.099 31.3229 48.099C22.4906 48.099 15.32 40.8677 15.32 32.0115C15.32 23.1325 22.5133 15.9011 31.3229 15.9011C36.4903 15.9011 41.3617 18.4412 44.3893 22.7205L44.6852 23.1325L49.4201 19.7685L49.1241 19.3566C47.1437 16.5418 44.5031 14.2305 41.4983 12.6286C38.3796 10.981 34.874 10.0885 31.3229 10.0885C25.2905 10.0885 19.8044 12.56 15.8663 16.5647C16.4126 17.0682 16.7541 17.7776 16.7541 18.5785C16.7541 20.0889 15.5249 21.3246 14.0224 21.3246C13.4761 21.3246 12.9753 21.1644 12.5428 20.8898C10.6307 24.1622 9.51523 27.961 9.51523 32.0115C9.53799 44.0943 19.3036 53.9116 31.3229 53.9116Z" fill="white"/>
<path d="M52.4704 17.5944L54.9517 15.8324C54.6102 15.3747 54.4281 14.8255 54.4281 14.2076C54.4281 13.3151 54.8606 12.5142 55.5208 12.0107C52.8802 8.78405 49.6022 6.08373 45.9372 4.13858C43.7291 2.97149 41.3845 2.05612 38.9715 1.43825C36.4903 0.820378 33.918 0.5 31.3229 0.5C14.0452 0.5 0 14.6195 0 31.9886C0 38.8767 2.20808 45.2614 5.9641 50.4561C6.41937 50.1357 6.9657 49.9526 7.55756 49.9526C9.05997 49.9526 10.2892 51.1883 10.2892 52.6987C10.2892 53.431 9.99328 54.0946 9.53801 54.5981C15.1834 60.1132 22.8776 63.5 31.3457 63.5C33.9407 63.5 36.513 63.1796 38.9943 62.5389C41.4072 61.921 43.7519 61.0285 45.96 59.8385C50.2851 57.5272 54.0866 54.1862 56.9093 50.1586L57.2053 49.7466L52.4704 46.3827L52.1745 46.7946C47.3713 53.5912 39.5861 57.6646 31.3229 57.6646C17.2322 57.6646 5.78199 46.1538 5.78199 31.9886C5.78199 17.8233 17.2322 6.31257 31.3229 6.31257C39.5861 6.31257 47.3713 10.3631 52.1745 17.1825L52.4704 17.5944Z" fill="white"/>
<path d="M31.3229 29.2654C29.8205 29.2654 28.5912 30.5011 28.5912 32.0115C28.5912 33.5218 29.8205 34.7576 31.3229 34.7576C32.8253 34.7576 34.0545 33.5218 34.0545 32.0115C34.0545 30.4782 32.8253 29.2654 31.3229 29.2654Z" fill="white"/>
<path d="M37.1504 42.8357C41.1113 40.6846 43.5698 36.5197 43.5698 31.9886C43.5698 28.6933 42.295 25.6039 39.9731 23.2697C37.6512 20.9356 34.5781 19.6541 31.3001 19.6541C28.0222 19.6541 24.9491 20.9356 22.6272 23.2697C20.3053 25.6039 19.0305 28.6933 19.0305 31.9886C19.0305 36.5197 21.489 40.6617 25.4499 42.8357L25.9051 43.0874L28.6595 37.9614L28.2043 37.7096C26.11 36.5654 24.8125 34.3685 24.8125 31.9886C24.8125 28.3958 27.7035 25.4895 31.2774 25.4895C34.8513 25.4895 37.7423 28.3958 37.7423 31.9886C37.7423 34.3685 36.4447 36.5654 34.3505 37.7096L33.8952 37.9614L36.6496 43.0874L37.1504 42.8357Z" fill="white"/>
<path d="M66.379 27.8008H67.0847C68.6782 27.8008 69.9074 26.5879 69.9074 24.986V24.4826L68.1546 24.3224V24.986C68.1546 25.6268 67.6766 26.1302 67.0392 26.1302H66.4018C65.7644 26.1302 65.2864 25.6268 65.2864 24.986V20.5694C65.2864 19.9286 65.7644 19.4252 66.4018 19.4252H67.0392C67.6766 19.4252 68.1546 19.9286 68.1546 20.5694V21.233L69.9074 21.0728V20.5694C69.9074 18.9675 68.6782 17.7546 67.0847 17.7546H66.379C64.7856 17.7546 63.5563 18.9675 63.5563 20.5694V24.986C63.5563 26.5879 64.7856 27.8008 66.379 27.8008Z" fill="white"/>
<path d="M75.2569 17.7546H74.5512C72.9578 17.7546 71.7285 18.9675 71.7285 20.5694V24.986C71.7285 26.5879 72.9578 27.8008 74.5512 27.8008H75.2569C76.8504 27.8008 78.0796 26.5879 78.0796 24.986V20.5694C78.0796 18.9675 76.8504 17.7546 75.2569 17.7546ZM76.3268 24.986C76.3268 25.6268 75.8487 26.1302 75.2114 26.1302H74.574C73.9366 26.1302 73.4586 25.6268 73.4586 24.986V20.5694C73.4586 19.9286 73.9366 19.4252 74.574 19.4252H75.2114C75.8487 19.4252 76.3268 19.9286 76.3268 20.5694V24.986Z" fill="white"/>
<path d="M81.7446 20.9355L81.8356 21.3703L85.6372 27.8237H87.2306V17.7546H85.4323V24.6428L85.3412 24.208L81.5169 17.7546H79.9462V27.8237H81.7446V20.9355Z" fill="white"/>
<path d="M88.7786 27.8237H90.5997V23.6587H94.2874V21.9195H90.5997V19.4709H95.1752V17.7546H88.7786V27.8237Z" fill="white"/>
<path d="M98.5897 17.7546H96.7914V27.8237H98.5897V17.7546Z" fill="white"/>
<path d="M106.921 24.9174V20.6609C106.921 19.0133 105.646 17.7546 104.007 17.7546H100.365V27.8237H104.007C105.646 27.8237 106.921 26.565 106.921 24.9174ZM102.164 26.1073V19.4709H103.962C104.622 19.4709 105.1 19.9973 105.1 20.6609V24.9174C105.1 25.581 104.622 26.1073 103.962 26.1073H102.164Z" fill="white"/>
<path d="M108.583 27.8237H114.98V26.1073H110.381V23.6587H114.069V21.9195H110.381V19.4709H114.98V17.7546H108.583V27.8237Z" fill="white"/>
<path d="M118.485 20.9355L118.576 21.3474L122.378 27.8008H123.971V17.7546H122.173V24.6199L122.082 24.208L118.258 17.7546H116.687V27.8008H118.485V20.9355Z" fill="white"/>
<path d="M125.861 19.4709H128.205V27.8008H130.004V19.4709H132.371V17.7546H125.861V19.4709Z" fill="white"/>
<path d="M136.059 17.7546H134.26V27.8008H136.059V17.7546Z" fill="white"/>
<path d="M140.839 17.7546L138.062 27.8008H139.997L140.521 25.8098H143.594L144.117 27.8008H146.052L143.252 17.7546H140.839ZM140.885 24.2537L142.023 19.8829L142.046 19.4938L142.068 19.86L143.184 24.2308H140.885V24.2537Z" fill="white"/>
<path d="M149.694 17.7546H147.896V27.8008H153.382V26.0845H149.694V17.7546Z" fill="white"/>
<path d="M159.665 17.7546H158.959C157.366 17.7546 156.136 18.9675 156.136 20.5694V24.986C156.136 26.5879 157.366 27.8008 158.959 27.8008H159.665C161.258 27.8008 162.488 26.5879 162.488 24.986V24.4826L160.735 24.3224V24.986C160.735 25.6268 160.257 26.1302 159.619 26.1302H158.982C158.345 26.1302 157.867 25.6268 157.867 24.986V20.5694C157.867 19.9286 158.345 19.4252 158.982 19.4252H159.619C160.257 19.4252 160.735 19.9286 160.735 20.5694V21.233L162.488 21.0728V20.5694C162.51 18.9675 161.258 17.7546 159.665 17.7546Z" fill="white"/>
<path d="M170.66 24.986V20.5694C170.66 18.9675 169.43 17.7546 167.837 17.7546H167.131C165.538 17.7546 164.309 18.9675 164.309 20.5694V24.986C164.309 26.5879 165.538 27.8008 167.131 27.8008H167.837C169.43 27.8008 170.66 26.5879 170.66 24.986ZM168.907 24.986C168.907 25.6268 168.429 26.1302 167.792 26.1302H167.154C166.517 26.1302 166.039 25.6268 166.039 24.986V20.5694C166.039 19.9286 166.517 19.4252 167.154 19.4252H167.792C168.429 19.4252 168.907 19.9286 168.907 20.5694V24.986Z" fill="white"/>
<path d="M177.375 25.4208L177.33 25.787L177.307 25.4208L175.099 17.7546H172.481V27.8237H174.279V19.9744L174.325 20.4092L176.464 27.8237H178.217L180.334 20.4092L180.403 19.9744V27.8237H182.201V17.7546H179.56L177.375 25.4208Z" fill="white"/>
<path d="M187.687 17.7546H183.954V27.8237H185.752V24.5283H187.664C189.303 24.5283 190.578 23.2697 190.578 21.6221V20.6609C190.601 19.0133 189.326 17.7546 187.687 17.7546ZM188.802 21.6221C188.802 22.2857 188.324 22.812 187.664 22.812H185.775V19.4709H187.664C188.324 19.4709 188.802 19.9973 188.802 20.6609V21.6221Z" fill="white"/>
<path d="M198.727 24.9631V17.7546H196.952V24.9631C196.952 25.6268 196.474 26.1302 195.814 26.1302H195.153C194.493 26.1302 194.015 25.6268 194.015 24.9631V17.7546H192.24V24.9631C192.24 26.5879 193.492 27.8237 195.108 27.8237H195.814C197.453 27.8237 198.727 26.5879 198.727 24.9631Z" fill="white"/>
<path d="M200.526 19.4709H202.893V27.8237H204.692V19.4709H207.059V17.7546H200.526V19.4709Z" fill="white"/>
<path d="M210.565 17.7546H208.766V27.8008H210.565V17.7546Z" fill="white"/>
<path d="M214.138 20.9355L214.229 21.3703L218.054 27.8237H219.624V17.7546H217.826V24.6428L217.735 24.208L213.934 17.7546H212.34V27.8237H214.138V20.9355Z" fill="white"/>
<path d="M227 21.0728V20.5694C227 18.9675 225.771 17.7546 224.177 17.7546H223.472C221.878 17.7546 220.649 18.9675 220.649 20.5694V24.986C220.649 26.5879 221.878 27.8008 223.472 27.8008H223.881C224.678 27.8008 225.361 27.4575 225.816 26.8854L226.317 27.6635H227V22.2399H225.247H223.813V23.9105H225.247V24.9631C225.247 25.6039 224.769 26.1073 224.132 26.1073H223.494C222.857 26.1073 222.379 25.6039 222.379 24.9631V20.5694C222.379 19.9286 222.857 19.4252 223.494 19.4252H224.132C224.769 19.4252 225.247 19.9286 225.247 20.5694V21.233L227 21.0728Z" fill="white"/>
<path d="M68.792 31.2104H67.7676C65.4002 31.2104 63.5563 33.0183 63.5563 35.3982V41.9431C63.5563 44.3231 65.4002 46.1309 67.7676 46.1309H68.792C71.1594 46.1309 73.0033 44.3231 73.0033 41.9431V41.1879L70.4082 40.9362V41.9202C70.4082 42.8814 69.7025 43.6136 68.7692 43.6136H67.8132C66.8571 43.6136 66.1742 42.8585 66.1742 41.9202V35.3754C66.1742 34.4142 66.8798 33.6819 67.8132 33.6819H68.7692C69.7253 33.6819 70.4082 34.4371 70.4082 35.3754V36.3594L73.0033 36.1077V35.3525C72.9805 33.0183 71.1594 31.2104 68.792 31.2104Z" fill="white"/>
<path d="M86.0469 31.2104H85.0226C82.6551 31.2104 80.8113 33.0183 80.8113 35.3982V41.9431C80.8113 44.3231 82.6551 46.1309 85.0226 46.1309H86.0469C88.4144 46.1309 90.2582 44.3231 90.2582 41.9431V35.3982C90.2582 33.0183 88.4144 31.2104 86.0469 31.2104ZM87.6632 41.9431C87.6632 42.9042 86.9575 43.6365 86.0242 43.6365H85.0681C84.112 43.6365 83.4291 42.8814 83.4291 41.9431V35.3982C83.4291 34.4371 84.1348 33.7048 85.0681 33.7048H86.0242C86.9803 33.7048 87.6632 34.46 87.6632 35.3982V41.9431Z" fill="white"/>
<path d="M106.193 41.4168L106.056 40.7989L100.388 31.2104H98.0434V46.1309H100.707V35.9246L100.843 36.5653L106.512 46.1309H108.856V31.2104H106.193V41.4168Z" fill="white"/>
<path d="M119.077 35.5355V35.4211C119.077 34.4599 119.783 33.7276 120.716 33.7276H121.353C122.31 33.7276 122.992 34.4828 122.992 35.4211V36.1534L125.588 35.9016V35.4211C125.588 33.0411 123.744 31.2333 121.376 31.2333H120.648C118.28 31.2333 116.437 33.0411 116.437 35.4211V35.5355C116.437 41.1192 123.084 38.6935 123.084 41.7829V41.9659C123.084 42.9271 122.378 43.6594 121.445 43.6594H120.602C119.646 43.6594 118.963 42.9042 118.963 41.9659V41.2336L116.368 41.4854V41.9659C116.368 44.3459 118.212 46.1537 120.58 46.1537H121.513C123.88 46.1537 125.724 44.3459 125.724 41.9659V41.7829C125.701 36.3822 119.077 38.4418 119.077 35.5355Z" fill="white"/>
<path d="M138.904 31.2104H137.88C135.513 31.2104 133.669 33.0183 133.669 35.3982V41.9431C133.669 44.3231 135.513 46.1309 137.88 46.1309H138.904C141.272 46.1309 143.116 44.3231 143.116 41.9431V35.3982C143.093 33.0183 141.272 31.2104 138.904 31.2104ZM140.498 41.9431C140.498 42.9042 139.792 43.6365 138.859 43.6365H137.903C136.947 43.6365 136.264 42.8814 136.264 41.9431V35.3982C136.264 34.4371 136.969 33.7048 137.903 33.7048H138.859C139.815 33.7048 140.498 34.46 140.498 35.3982V41.9431Z" fill="white"/>
<path d="M160.962 36.3136V35.5127C160.962 33.0641 159.073 31.2104 156.637 31.2104H151.128V46.1309H153.792V40.6158H155.522L158.345 46.1309H161.281L158.253 40.3183C159.87 39.7005 160.962 38.1901 160.962 36.3136ZM156.614 38.0528H153.815V33.7735H156.614C157.593 33.7735 158.322 34.5515 158.322 35.5127V36.2907C158.299 37.2976 157.571 38.0528 156.614 38.0528Z" fill="white"/>
<path d="M167.427 33.7735H170.91V46.1309H173.596V33.7735H177.079V31.2104H167.427V33.7735Z" fill="white"/>
<path d="M187.368 31.2104H184.705V46.1309H187.368V31.2104Z" fill="white"/>
<path d="M202.256 41.8973C202.256 42.8584 201.55 43.6136 200.594 43.6136H199.638C198.682 43.6136 197.976 42.8584 197.976 41.8973V31.2333H195.336V41.8973C195.336 44.323 197.202 46.1308 199.592 46.1308H200.64C203.052 46.1308 204.896 44.3001 204.896 41.8973V31.2333H202.256V41.8973Z" fill="white"/>
<path d="M219.807 42.5839L219.761 43.1331L219.716 42.5839L216.46 31.2104H212.545V46.1309H215.231V34.5286L215.299 35.1694L218.464 46.1309H221.059L224.2 35.1694L224.291 34.5286V46.1309H226.977V31.2104H223.062L219.807 42.5839Z" fill="white"/>
</svg>
