<svg width="838" height="203" viewBox="0 0 838 203" fill="none" xmlns="http://www.w3.org/2000/svg">
<rect x="19.4375" y="19.4375" width="72.0817" height="72.0817" rx="36.0409" fill="black"/>
<rect x="19.4375" y="110.957" width="72.0817" height="72.0817" rx="36.0409" fill="black"/>
<rect x="110.957" y="19.4375" width="72.0817" height="72.0817" rx="36.0409" fill="black"/>
<rect x="110.957" y="110.957" width="72.0817" height="72.0817" rx="36.0409" fill="black"/>
<rect width="19.4378" height="19.4378" fill="black"/>
<rect y="91.5195" width="19.4378" height="19.4378" fill="black"/>
<rect y="183.039" width="19.4378" height="19.4378" fill="black"/>
<rect x="91.5195" width="19.4378" height="19.4378" fill="black"/>
<rect x="91.5195" y="91.5195" width="19.4378" height="19.4378" fill="black"/>
<rect x="91.5195" y="183.039" width="19.4378" height="19.4378" fill="black"/>
<rect x="183.039" width="19.4378" height="19.4378" fill="black"/>
<rect x="183.039" y="91.5195" width="19.4378" height="19.4378" fill="black"/>
<rect x="183.039" y="183.039" width="19.4378" height="19.4378" fill="black"/>
<path d="M787.59 182.959V132.057H802.262V144.034H802.561V182.959H787.59ZM823.022 182.959V151.419C823.022 148.625 822.29 146.529 820.826 145.132C819.429 143.734 817.366 143.036 814.638 143.036C812.309 143.036 810.213 143.568 808.35 144.633C806.553 145.697 805.123 147.161 804.058 149.024C803.06 150.887 802.561 153.083 802.561 155.611L801.264 143.335C802.927 139.609 805.356 136.648 808.55 134.452C811.81 132.19 815.802 131.059 820.527 131.059C826.182 131.059 830.507 132.656 833.502 135.849C836.496 138.977 837.993 143.202 837.993 148.525V182.959H823.022Z" fill="black"/>
<path d="M751.507 183.957C745.918 183.957 740.994 182.859 736.736 180.663C732.544 178.401 729.25 175.274 726.855 171.281C724.526 167.222 723.361 162.565 723.361 157.308C723.361 152.052 724.526 147.46 726.855 143.535C729.25 139.609 732.544 136.548 736.736 134.352C740.994 132.156 745.918 131.059 751.507 131.059C757.163 131.059 762.087 132.156 766.279 134.352C770.537 136.548 773.831 139.609 776.16 143.535C778.489 147.46 779.653 152.052 779.653 157.308C779.653 162.565 778.456 167.222 776.06 171.281C773.731 175.274 770.438 178.401 766.179 180.663C761.987 182.859 757.097 183.957 751.507 183.957ZM751.507 172.18C753.836 172.18 755.932 171.581 757.795 170.383C759.725 169.185 761.255 167.489 762.386 165.293C763.518 163.031 764.083 160.336 764.083 157.208C764.083 152.617 762.852 149.091 760.39 146.629C757.995 144.1 755.034 142.836 751.507 142.836C747.981 142.836 744.986 144.1 742.525 146.629C740.129 149.157 738.931 152.684 738.931 157.208C738.931 160.336 739.497 163.031 740.628 165.293C741.759 167.489 743.256 169.185 745.12 170.383C747.049 171.581 749.178 172.18 751.507 172.18Z" fill="black"/>
<path d="M700.746 182.959V132.057H715.717V182.959H700.746ZM708.431 126.867C705.77 126.867 703.474 125.935 701.545 124.072C699.682 122.209 698.75 119.946 698.75 117.285C698.75 114.357 699.682 112.028 701.545 110.298C703.474 108.502 705.77 107.604 708.431 107.604C710.96 107.604 713.122 108.502 714.919 110.298C716.782 112.028 717.714 114.357 717.714 117.285C717.714 119.946 716.782 122.209 714.919 124.072C713.122 125.935 710.96 126.867 708.431 126.867Z" fill="black"/>
<path d="M683.573 184.056C677.052 184.056 672.195 182.492 669.001 179.365C665.874 176.171 664.31 171.347 664.31 164.893V116.273H679.281V165.392C679.281 167.654 679.913 169.351 681.178 170.482C682.442 171.613 684.405 172.179 687.066 172.179C688.064 172.179 688.996 172.079 689.861 171.879C690.726 171.68 691.591 171.447 692.456 171.181V182.559C691.591 183.025 690.36 183.391 688.763 183.657C687.233 183.923 685.503 184.056 683.573 184.056ZM654.828 143.434V132.056H692.456V143.434H654.828Z" fill="black"/>
<path d="M616.983 183.957C612.325 183.957 608.266 182.892 604.806 180.763C601.413 178.567 598.785 175.507 596.922 171.581C595.058 167.655 594.127 163.03 594.127 157.707C594.127 152.318 595.092 147.627 597.021 143.634C598.951 139.642 601.646 136.548 605.106 134.352C608.632 132.156 612.725 131.059 617.382 131.059C622.24 131.059 626.165 132.19 629.16 134.452C632.22 136.714 634.017 139.808 634.549 143.734L633.751 143.834V132.057H648.423V182.959H633.751V171.681L634.749 171.88C634.084 175.54 632.087 178.468 628.76 180.663C625.5 182.859 621.574 183.957 616.983 183.957ZM621.774 171.98C625.433 171.98 628.328 170.749 630.457 168.287C632.586 165.759 633.651 162.165 633.651 157.508C633.651 152.85 632.553 149.29 630.357 146.828C628.228 144.3 625.3 143.036 621.574 143.036C617.915 143.036 615.02 144.3 612.891 146.828C610.762 149.357 609.697 152.95 609.697 157.608C609.697 162.265 610.762 165.825 612.891 168.287C615.087 170.749 618.048 171.98 621.774 171.98Z" fill="black"/>
<path d="M571.079 182.958V171.679L572.077 171.879C571.412 175.539 569.415 178.466 566.089 180.662C562.828 182.858 558.902 183.956 554.311 183.956C549.653 183.956 545.595 182.891 542.135 180.762C538.741 178.566 536.113 175.505 534.25 171.579C532.387 167.654 531.455 163.029 531.455 157.706C531.455 152.316 532.42 147.626 534.349 143.633C536.279 139.641 538.974 136.547 542.434 134.351C545.961 132.155 550.053 131.057 554.71 131.057C559.568 131.057 563.494 132.188 566.488 134.451C569.549 136.713 571.345 139.807 571.877 143.733L570.78 143.833V111.096H585.751V182.958H571.079ZM559.102 171.979C562.629 171.979 565.49 170.748 567.685 168.286C569.881 165.757 570.979 162.164 570.979 157.507C570.979 152.849 569.848 149.289 567.586 146.827C565.39 144.299 562.495 143.034 558.902 143.034C555.442 143.034 552.581 144.299 550.319 146.827C548.123 149.356 547.025 152.949 547.025 157.606C547.025 162.264 548.123 165.824 550.319 168.286C552.581 170.748 555.509 171.979 559.102 171.979Z" fill="black"/>
<path d="M473.254 182.959V132.057H487.926V144.034H488.225V182.959H473.254ZM508.686 182.959V151.419C508.686 148.625 507.954 146.529 506.49 145.132C505.093 143.734 503.03 143.036 500.302 143.036C497.973 143.036 495.877 143.568 494.014 144.633C492.217 145.697 490.787 147.161 489.722 149.024C488.724 150.887 488.225 153.083 488.225 155.611L486.928 143.335C488.591 139.609 491.02 136.648 494.214 134.452C497.474 132.19 501.466 131.059 506.191 131.059C511.846 131.059 516.171 132.656 519.166 135.849C522.16 138.977 523.657 143.202 523.657 148.525V182.959H508.686Z" fill="black"/>
<path d="M428.706 183.957C425.113 183.957 422.019 183.192 419.424 181.661C416.895 180.064 414.966 177.968 413.635 175.373C412.304 172.712 411.639 169.751 411.639 166.49V132.057H426.61V163.596C426.61 166.391 427.309 168.487 428.706 169.884C430.103 171.281 432.066 171.98 434.595 171.98C436.857 171.98 438.853 171.448 440.583 170.383C442.313 169.318 443.677 167.855 444.675 165.991C445.74 164.062 446.272 161.866 446.272 159.404L447.57 171.681C445.906 175.34 443.477 178.301 440.284 180.563C437.09 182.826 433.231 183.957 428.706 183.957ZM446.572 182.959V170.982H446.272V132.057H461.243V182.959H446.572Z" fill="black"/>
<path d="M376.156 183.957C370.566 183.957 365.643 182.859 361.384 180.663C357.192 178.401 353.898 175.274 351.503 171.281C349.174 167.222 348.01 162.565 348.01 157.308C348.01 152.052 349.174 147.46 351.503 143.535C353.898 139.609 357.192 136.548 361.384 134.352C365.643 132.156 370.566 131.059 376.156 131.059C381.811 131.059 386.735 132.156 390.927 134.352C395.186 136.548 398.479 139.609 400.808 143.535C403.137 147.46 404.302 152.052 404.302 157.308C404.302 162.565 403.104 167.222 400.709 171.281C398.38 175.274 395.086 178.401 390.827 180.663C386.636 182.859 381.745 183.957 376.156 183.957ZM376.156 172.18C378.485 172.18 380.581 171.581 382.444 170.383C384.373 169.185 385.904 167.489 387.035 165.293C388.166 163.031 388.732 160.336 388.732 157.208C388.732 152.617 387.501 149.091 385.039 146.629C382.643 144.1 379.682 142.836 376.156 142.836C372.629 142.836 369.635 144.1 367.173 146.629C364.778 149.157 363.58 152.684 363.58 157.208C363.58 160.336 364.145 163.031 365.277 165.293C366.408 167.489 367.905 169.185 369.768 170.383C371.698 171.581 373.827 172.18 376.156 172.18Z" fill="black"/>
<path d="M293.594 182.958V111.096H308.964V182.958H293.594ZM300.78 155.111V143.334H342.001V155.111H300.78ZM300.78 122.873V111.096H344.296V122.873H300.78Z" fill="black"/>
<path d="M760.764 91.3541V19.4922H776.134V91.3541H760.764Z" fill="black"/>
<path d="M684.678 91.3541L710.428 19.4922H723.603L699.948 91.3541H684.678ZM737.376 91.3541L713.822 19.4922H727.595L753.346 91.3541H737.376ZM698.252 63.5076H738.574V75.4846H698.252V63.5076Z" fill="black"/>
<path d="M636.275 92.3534C630.951 92.3534 626.26 91.2223 622.202 88.96C618.143 86.6976 614.949 83.5703 612.62 79.578C610.358 75.5857 609.227 71.0277 609.227 65.9043C609.227 60.7808 610.358 56.2229 612.62 52.2305C614.949 48.2382 618.143 45.1109 622.202 42.8486C626.26 40.5862 630.951 39.4551 636.275 39.4551C640.733 39.4551 644.725 40.2868 648.252 41.9503C651.845 43.5472 654.772 45.7763 657.035 48.6374C659.364 51.4986 660.861 54.8588 661.526 58.7181H647.054C646.322 56.2561 644.991 54.393 643.062 53.1288C641.198 51.8646 639.003 51.2325 636.474 51.2325C634.079 51.2325 631.983 51.8313 630.186 53.029C628.456 54.2267 627.125 55.9234 626.194 58.1192C625.262 60.315 624.797 62.91 624.797 65.9043C624.797 68.8985 625.262 71.4935 626.194 73.6893C627.125 75.8851 628.456 77.5818 630.186 78.7795C631.983 79.9772 634.079 80.5761 636.474 80.5761C639.003 80.5761 641.198 79.9439 643.062 78.6797C644.991 77.4155 646.322 75.5524 647.054 73.0904H661.526C660.861 76.9497 659.364 80.3099 657.035 83.1711C654.772 86.0323 651.845 88.2946 648.252 89.958C644.725 91.555 640.733 92.3534 636.275 92.3534Z" fill="black"/>
<path d="M586.609 91.3552V40.453H601.581V91.3552H586.609ZM594.295 35.263C591.633 35.263 589.338 34.3314 587.408 32.4684C585.545 30.6053 584.613 28.343 584.613 25.6814C584.613 22.7537 585.545 20.4248 587.408 18.6948C589.338 16.8983 591.633 16 594.295 16C596.823 16 598.986 16.8983 600.782 18.6948C602.645 20.4248 603.577 22.7537 603.577 25.6814C603.577 28.343 602.645 30.6053 600.782 32.4684C598.986 34.3314 596.823 35.263 594.295 35.263Z" fill="black"/>
<path d="M569.436 92.4526C562.915 92.4526 558.058 90.8889 554.864 87.7616C551.737 84.5677 550.173 79.7437 550.173 73.2894V24.6699H565.144V73.7884C565.144 76.0508 565.777 77.7475 567.041 78.8787C568.305 80.0098 570.268 80.5754 572.929 80.5754C573.928 80.5754 574.859 80.4756 575.724 80.276C576.589 80.0764 577.454 79.8435 578.319 79.5773V90.9555C577.454 91.4212 576.223 91.7872 574.626 92.0533C573.096 92.3195 571.366 92.4526 569.436 92.4526ZM540.691 51.8306V40.4525H578.319V51.8306H540.691Z" fill="black"/>
<path d="M485.631 91.3554V40.4532H500.303V52.4301H500.602V91.3554H485.631ZM521.063 91.3554V59.816C521.063 57.0213 520.331 54.9254 518.867 53.528C517.47 52.1307 515.407 51.4321 512.679 51.4321C510.35 51.4321 508.254 51.9644 506.391 53.029C504.594 54.0936 503.164 55.5575 502.099 57.4206C501.101 59.2836 500.602 61.4794 500.602 64.0079L499.305 51.7315C500.968 48.0053 503.397 45.0443 506.591 42.8486C509.851 40.5862 513.843 39.4551 518.568 39.4551C524.223 39.4551 528.548 41.052 531.543 44.2459C534.537 47.3732 536.034 51.5984 536.034 56.9215V91.3554H521.063Z" fill="black"/>
<path d="M452.274 92.3534C446.619 92.3534 441.695 91.2555 437.503 89.0598C433.311 86.7974 430.05 83.6701 427.722 79.6778C425.459 75.6855 424.328 71.0943 424.328 65.9043C424.328 60.6477 425.459 56.0565 427.722 52.1307C430.05 48.1384 433.278 45.0443 437.403 42.8486C441.528 40.5862 446.319 39.4551 451.775 39.4551C457.032 39.4551 461.59 40.5197 465.449 42.6489C469.308 44.7782 472.303 47.7392 474.432 51.5319C476.561 55.3246 477.626 59.7827 477.626 64.9062C477.626 65.9708 477.592 66.9689 477.526 67.9004C477.459 68.7654 477.36 69.5972 477.226 70.3956H433.111V60.5146H465.15L462.555 62.3112C462.555 58.1858 461.557 55.1582 459.56 53.2286C457.631 51.2324 454.969 50.2344 451.576 50.2344C447.65 50.2344 444.589 51.5651 442.393 54.2267C440.264 56.8882 439.2 60.8806 439.2 66.2037C439.2 71.3937 440.264 75.253 442.393 77.7814C444.589 80.3099 447.85 81.5741 452.175 81.5741C454.57 81.5741 456.633 81.1749 458.363 80.3765C460.093 79.578 461.39 78.2805 462.255 76.4839H476.328C474.665 81.4078 471.804 85.3003 467.745 88.1615C463.752 90.9561 458.596 92.3534 452.274 92.3534Z" fill="black"/>
<path d="M389.103 112.814C382.05 112.814 376.294 111.317 371.836 108.323C367.444 105.329 364.849 101.27 364.051 96.1462H378.224C378.756 97.4104 379.887 98.3752 381.617 99.0406C383.414 99.706 385.676 100.039 388.404 100.039C392.929 100.039 396.222 99.1737 398.285 97.4437C400.348 95.7136 401.379 93.0188 401.379 89.3592V78.2805L402.178 78.4801C401.512 82.2063 399.583 85.1672 396.389 87.363C393.195 89.4923 389.236 90.5569 384.512 90.5569C379.987 90.5569 376.028 89.5255 372.634 87.4628C369.307 85.3336 366.712 82.3726 364.849 78.5799C362.986 74.7872 362.055 70.3291 362.055 65.2056C362.055 60.0156 363.02 55.4909 364.949 51.6317C366.879 47.7724 369.574 44.7782 373.034 42.6489C376.56 40.5197 380.652 39.4551 385.31 39.4551C390.101 39.4551 393.993 40.5862 396.988 42.8486C400.048 45.1109 401.845 48.2049 402.377 52.1307L401.679 52.2305V40.4532H416.35V89.1596C416.35 96.4788 413.922 102.234 409.064 106.426C404.207 110.685 397.553 112.814 389.103 112.814ZM389.702 79.0789C393.228 79.0789 396.089 77.8812 398.285 75.4858C400.481 73.0239 401.579 69.5306 401.579 65.006C401.579 60.4813 400.448 57.0213 398.185 54.6259C395.989 52.164 393.095 50.933 389.502 50.933C386.042 50.933 383.181 52.164 380.918 54.6259C378.723 57.0879 377.625 60.5812 377.625 65.1058C377.625 69.6304 378.723 73.0904 380.918 75.4858C383.181 77.8812 386.108 79.0789 389.702 79.0789Z" fill="black"/>
<path d="M291 91.3541L316.751 19.4922H329.925L306.271 91.3541H291ZM343.699 91.3541L320.144 19.4922H333.918L359.668 91.3541H343.699ZM304.574 63.5076H344.896V75.4846H304.574V63.5076Z" fill="black"/>
</svg>
