<?xml version="1.0" encoding="UTF-8"?>
<svg id="AW" xmlns="http://www.w3.org/2000/svg" viewBox="0 0 1035.0993377 221.8543046">
  <defs>
    <style>
      .cls-1 {
        fill: #2b3466;
        stroke: #2b3566;
        stroke-miterlimit: 10;
        stroke-width: .9213031px;
      }

      .cls-2 {
        fill: #30366e;
      }

      .cls-3 {
        fill: #e0ad33;
      }
    </style>
  </defs>
  <g>
    <path class="cls-3" d="M121.4991133,73.8414566c0,28.5744139-17.3442985,54.528473-51.0346588,60.6426514l47.5408399,56.2753682,4.2424917-5.9894012L208.0958191,63.4847912V12.4501324H68.7175497c35.437265,3.3690358,52.7815635,32.8169056,52.7815635,61.3913242Z"/>
    <path class="cls-2" d="M23.6722909,108.4052716H56.6139749c24.2071497,0,36.3107198-17.3442985,36.3107198-34.563815,0-17.3442937-12.1035748-33.8151399-36.3107198-33.8151399H11.5687173V208.8524665H95.5450636L23.6722909,122.3805284v-13.9752568Zm122.033972,91.8374247l63.1382384-88.3436153v96.9533664h-69.377194l6.2389556-8.6097511Z"/>
    <rect class="cls-2" x="427.0272169" y="12.1731077" width="22.642543" height="106.2914456"/>
    <path class="cls-2" d="M584.5362903,95.2287498l-117.761036-.0988743v23.3346778h118.650942c8.8988184,0,16.512264-3.4606516,22.6425731-9.5909457,6.1303092-6.1302941,9.5909608-13.7437321,9.5909608-22.6425505s-3.4606516-16.4133746-9.5909608-22.6425505c-6.1303092-6.1302941-13.7437548-9.5909457-22.6425731-9.5909457l-86.3185565-.5932606c-5.0426698,0-9.1954336-4.1527789-9.2943154-9.1954487h0c0-5.1415403,4.152794-9.1954449,9.2943154-9.1954449l118.55203-.0988743V12.1731077h-118.6509118c-8.8988184,0-16.512264,3.4606516-22.642543,9.5909495-6.1303092,6.1302979-9.5909608,13.7437321-9.5909608,22.6425505s3.4606516,16.4133746,9.5909608,22.6425505c6.1303092,6.1302941,13.7437246,8.8988184,22.642543,8.8988184h86.2196747c5.1415516,0,9.2943456,4.1527789,9.1954336,9.2943229h0c.0988516,5.537041-4.3505576,9.9864502-9.887576,9.9864502Z"/>
    <path class="cls-2" d="M681.434535,12.1731077h98.0847659v22.6425467h-98.0847659c-8.206676,0-15.0291276,2.6696463-21.2582884,8.8988184-6.1303092,6.1302941-8.8988184,13.0515973-8.8988184,21.2582884s2.7685092,15.0291125,8.8988184,21.2582884c6.2291608,6.1302941,13.0516124,8.8988184,21.2582884,8.8988184h98.0847659v23.3346854h-98.0847659c-14.4358368,0-26.7953068-5.5370486-37.0784099-15.8201216-10.2831032-10.2830805-15.0291276-22.6425505-15.0291276-37.0784099s4.7460244-26.7953294,15.0291276-37.0784099c10.3819548-10.7774593,22.6425731-16.3145041,37.0784099-16.3145041Z"/>
    <path class="cls-2" d="M376.8971946,54.8874367l-94.6240992-.1977485v-19.1818989l95.6128568-.1977523c5.1415516,0,9.3931972,4.1527827,9.3931972,9.2943192h0c-.0988818,5.7347971-4.6471728,10.2830805-10.3819548,10.2830805Zm33.6177584,63.5771166l-30.1571068-41.8244494c8.206676-.6921273,15.0291276-3.4606516,20.566146-9.5909457,6.1303092-6.2291759,9.5909608-13.7437321,9.5909608-22.6425505s-3.4606516-16.5122527-9.5909608-22.6425505c-6.1303092-6.1302979-13.7437246-9.5909495-22.642543-9.5909495h-118.6509118V118.4645533h22.642543v-41.8244494h70.0040259l30.1571068,41.8244494h28.0807399Z"/>
    <polyline class="cls-3" points="892.7320459 118.4645533 830.5391688 12.1731077 857.1367723 12.1731077 905.6847463 96.5141301 954.3316322 12.1731077 980.5337086 12.1731077 918.7363587 118.4645533"/>
    <rect class="cls-3" x="793.2629953" y="55.3818155" width="44.5929436" height="20.5661611"/>
  </g>
  <path class="cls-2" d="M1024.065967,28.8287644c0,9.3308585-7.2462917,16.5771578-16.775714,16.5771578-9.4301214,0-16.8749542-7.2463031-16.8749542-16.5771616,0-9.1323289,7.4448327-16.378632,16.8749542-16.378632,9.4301214,.0000038,16.775714,7.2463069,16.775714,16.3786358Zm-29.4815497,0c0,7.2463031,5.3603038,13.1029026,12.8051365,13.1029026,7.1470515,0,12.5072947-5.7573365,12.5072947-13.0036396s-5.261003-13.2021693-12.6065955-13.2021693-12.7058357,5.8566033-12.7058357,13.1029063Zm10.1249846,8.53674h-3.7720365V20.9868724c1.4889665-.2977926,3.5734955-.4963222,6.2536474-.4963222,3.0771733,0,4.4668996,.4963222,5.658085,1.191174,.8934042,.6948518,1.5882067,1.9852887,1.5882067,3.5735182,0,1.7867591-1.3897263,3.1764627-3.3750151,3.7720478v.2977963c1.5882067,.5955851,2.4816109,1.7867591,2.9779331,3.9705774,.4963222,2.4816109,.7941034,3.4742553,1.1911854,4.0698404h-4.0698177c-.4963222-.5955851-.7941034-2.0845516-1.2904256-3.9705774-.2977812-1.7867591-1.2904256-2.5808738-3.3750151-2.5808738h-1.7867477v6.5514513h0Zm0-9.2315918h1.7867477c2.0845289,0,3.7720365-.6948518,3.7720365-2.382348,0-1.4889665-1.0918846-2.4816109-3.4742553-2.4816109-.9926444,0-1.6875075,.0992629-2.0845289,.1985296v4.6654293Z"/>
  <g>
    <path class="cls-1" d="M260.1748174,149.0391786h4.434181v58.0401039h39.6699255v3.7217028h-44.1041065v-61.7618068Z"/>
    <path class="cls-1" d="M347.9031982,149.0391786h4.434181l30.643516,61.7618068h-4.5922285l-11.6398832-23.2001104h-33.4150372l-11.4021797,23.2001104h-4.6718845l30.643516-61.7618068Zm17.1829255,35.077697c-5.1472914-10.4519981-10.6106778-21.5374506-14.8071553-30.8015635h-.2377035c-2.5338177,5.3837305-9.0264095,18.3701784-15.0448588,30.8015635h30.0897175Z"/>
    <path class="cls-1" d="M405.1454783,149.0391786h4.9879795c14.1737009,16.6278626,31.8314011,37.1361078,47.6677618,56.2193966h.2377035v-56.2193966h4.3551572v61.7618068h-4.9886117c-15.6783132-18.2911547-31.6727214-36.5816771-47.7467856-55.58531h-.0790238v55.58531h-4.434181v-61.7618068Z"/>
    <path class="cls-1" d="M493.505417,149.0391786h25.2585212c24.7047227,0,35.157353,13.7779499,35.157353,30.4848363,0,18.3701784-12.7487445,31.2769704-34.2861951,31.2769704h-26.1296791v-61.7618068Zm27.1588845,58.2778074c18.2121309,0,28.664129-11.2441322,28.664129-27.3175642,0-16.1530879-10.3729743-27.4762439-31.435018-27.4762439h-19.9538145v54.793808h22.7247035Z"/>
    <path class="cls-1" d="M573.3927446,194.0934667l4.03843-1.3459326c3.2462959,10.1352709,12.5894326,15.757337,23.4378138,15.757337,8.868362,0,19.6370873-3.7217028,19.6370873-13.302543,0-8.9473858-9.264113-10.531654-16.8655661-12.5110411l-6.9679987-1.8213395c-6.888975-1.8207073-20.5879011-5.5424102-20.5879011-17.1032696,0-11.0057965,12.3529935-15.9944082,23.5174698-15.9944082,10.6890693,0,20.5082452,4.7509082,24.0712683,14.8861791l-3.8803825,1.4255886c-2.8499127-7.6014531-10.6100456-12.6690886-20.9830199-12.6690886-9.8185436,0-18.2114987,4.5922285-18.2114987,12.0356341,0,9.1054333,12.2733376,12.1936816,16.6278626,13.3815668l7.0476547,1.9003633c8.788706,2.375138,21.0620436,4.7509082,21.0620436,15.8363607,0,11.0057965-12.1146579,17.5780443-24.6256989,17.5780443-9.8975674,0-22.7253357-4.03843-27.3175642-18.0534512Z"/>
    <path class="cls-1" d="M645.44218,180.2364931c0-19.1616804,16.0740642-32.4642234,36.7403568-32.4642234,13.0648395,0,27.3972201,5.3053389,32.1481283,17.6577002l-3.8007266,1.4249564c-4.829932-10.1352709-16.2321117-15.4399775-28.2677458-15.4399775-16.9452221,0-32.0691046,10.6100456-32.0691046,28.8215443,0,18.9246091,16.3907914,28.268378,33.1773337,28.268378,17.1822933,0,26.8427894-9.5018164,30.1681091-19.716111l3.8797503,1.2669089c-4.2755013,11.7979307-15.28193,22.091249-34.8399936,22.091249-21.8535456,0-37.1361078-13.222887-37.1361078-31.9104249Z"/>
    <path class="cls-1" d="M761.6747457,149.0391786h4.434181l30.643516,61.7618068h-4.5928607l-11.639251-23.2001104h-33.4150372l-11.4021797,23.2001104h-4.6712523l30.6428838-61.7618068Zm17.1822933,35.077697c-5.1466592-10.4519981-10.6100456-21.5374506-14.8065231-30.8015635h-.2377035c-2.5338177,5.3837305-9.0270417,18.3701784-15.0442266,30.8015635h30.0884532Z"/>
    <path class="cls-1" d="M818.917658,149.0391786h25.1794974c15.8363607,0,23.834197,7.9181804,23.834197,17.8947715,0,10.927405-8.6312907,18.5288581-22.0128575,18.5288581h-22.566656v25.3381771h-4.434181v-61.7618068Zm25.2585212,32.9396303c12.5110411,0,19.1623126-5.6220661,19.1623126-14.6484756,0-9.0270417-7.6804769-14.8071553-20.111862-14.8071553h-19.8747907v29.4556309h20.8243402Z"/>
    <path class="cls-1" d="M891.8376191,149.0391786h46.0044698v3.4839994h-41.5702888v24.7047227h39.6699255v3.4839994h-39.6699255v26.3673825h42.5204705v3.7217028h-46.9546514v-61.7618068Z"/>
  </g>
</svg>