<svg width="357" height="54" viewBox="0 0 357 54" fill="none" xmlns="http://www.w3.org/2000/svg">
<g clip-path="url(#clip0_47_1840)">
<path d="M11.2952 42.8004V21.6311H0V53.3669H33.8126V42.8004H11.2952Z" fill="white"/>
<path d="M56.3665 0.425537H0V16.3116H11.2587V11.0648H45.1078V42.8006H39.4602V53.367H56.3665V0.425537Z" fill="white"/>
<path d="M71.2688 0.425293H88.4302V39.8126H113.097V53.3668H71.2688V0.425293Z" fill="white"/>
<path d="M120.421 0.425293H163.488V13.9795H137.582V20.6108H159.808V33.2177H137.582V53.4032H120.421L120.421 0.425293Z" fill="white"/>
<path d="M177.079 0.425293H212.313V4.72474H181.925V23.8536H210.382V28.1531H181.925V49.0674H212.677V53.3668H177.079L177.079 0.425293Z" fill="white"/>
<path d="M219.454 0.425293H237.126C252.574 0.789653 260.554 9.38855 260.554 26.9143C260.554 44.4035 252.538 53.0389 237.126 53.4032H219.454V0.425293ZM224.336 49.0674H234.684C249.332 49.0674 255.708 42.7639 255.708 26.8778C255.708 10.9917 249.332 4.68831 234.684 4.68831H224.336V49.0674Z" fill="white"/>
<path d="M312.038 52.5288H308.54L307.884 43.2377H307.739C304.314 50.5249 297.427 53.5855 290.067 53.5855C273.999 53.5855 265.983 41.0151 265.983 26.9872C265.983 12.9593 273.999 0.388916 290.067 0.388916C300.779 0.388916 309.451 6.18224 311.382 17.3317H306.536C305.953 11.4655 299.759 4.54262 290.104 4.54262C276.586 4.54262 270.865 15.8378 270.865 26.9872C270.865 38.1366 276.586 49.4318 290.104 49.4318C301.399 49.4318 307.957 41.5616 307.775 30.7037H290.359V26.55H312.002L312.038 52.5288Z" fill="white"/>
<path d="M321.402 0.388916H356.636V4.68836H326.248V23.8173H354.705V28.1167H326.248V49.031H357V53.3304H321.402V0.388916Z" fill="white"/>
</g>
<defs>
<clipPath id="clip0_47_1840">
<rect width="357" height="53.1966" fill="white" transform="translate(0 0.388916)"/>
</clipPath>
</defs>
</svg>
