<svg width="106" height="37" fill="none" xmlns="http://www.w3.org/2000/svg"><path fill-rule="evenodd" clip-rule="evenodd" d="M23.636.107c.484.244.676.83.428 1.307-.489.942-.753 2.294-.855 3.684-.1 1.371-.033 2.669.07 3.433a.973.973 0 0 1-.848 1.09.982.982 0 0 1-1.104-.836c-.12-.899-.19-2.329-.081-3.827.108-1.48.397-3.14 1.066-4.43a.99.99 0 0 1 1.324-.421Z" fill="#1A1A1A"/><path d="M17.928 15.479c.59-2.77-5.416-3.223-8.494-3.102-12.132.257-7.061 7.595-.344 8.413 2.764.337 8.1-1.849 8.838-5.311Z" fill="#CFEDFC"/><path d="M3.002 13.915c.34-.277.782-.528 1.337-.743l.173.536.88 1.1L6.68 15.96l.99-.145 4.952-.507 5.204.55c-.164.514-.429.999-.77 1.447-1.54-.304-5.136-.395-7.09-.398-.522.606-.711 2.666-.752 3.896a10.652 10.652 0 0 1-1.728-.337c-.048-.962.288-2.337.533-3.1-1.531.082-3.15.828-4.044 1.348a6.704 6.704 0 0 1-1.058-1.034l1.985-1.076c-.307-.153-1.275-1.66-1.901-2.69Z" fill="#00ACE6"/><path d="m16.899 18.82 1.783 1.19-8.06 11.764-1.937-1.292-1.487-2.164-.745-3.574 1.334-3.138 3.201.963 5.91-3.749Z" fill="#FFE100"/><path fill-rule="evenodd" clip-rule="evenodd" d="M15.276 11.004c2.39-5.086 8.207-3.839 10.954-2.007l-7.549 11.018-.866-.578c-1.1 1.258-3.347 2.211-4.333 2.53.1 1.415 1.304 2.505 1.893 2.874l-2.48 3.62c-2.895-1.932-3.74-4.693-3.802-5.832L8.02 22.57c-1.897 4.243 1.078 7.531 2.912 8.755L7.728 36l.557-4.39c-3.611-3.053-2.965-7.666-2.19-9.591C3.606 21.532-.712 17.97.1 14.945c1.412-5.27 10.68-5.182 15.176-3.94Zm2.654 4.46c.562-2.754-5.427-3.204-8.498-3.084-1.952.042-3.459.266-4.585.618.501 1.536 1.663 2.3 2.228 2.498 3.56-.8 8.184-.43 10.855-.031Zm-.225.728c-1.862-.239-4.638-.3-6.077-.297-1.956 1.317-2.207 3.538-2.04 4.932 2.648.045 6.94-1.776 8.117-4.635Zm-9.01 4.546c-.357-2.02.793-3.925 1.498-4.7-3.62.136-5.903 1.15-7.018 1.945 1.193 1.288 3.242 2.39 5.52 2.755ZM2.54 17.15c.896-.54 2.5-1.036 3.372-1.258-1.262-.93-1.813-1.902-2.007-2.531-1.974.936-2.197 2.4-1.364 3.789ZM35.557 8.055a.994.994 0 0 0-1.389.095c-.704.799-1.877 1.545-3.146 2.155-1.252.603-2.498 1.026-3.255 1.217a.97.97 0 0 0-.709 1.181.986.986 0 0 0 1.198.7c.89-.225 2.26-.694 3.63-1.352 1.351-.65 2.805-1.534 3.768-2.626a.962.962 0 0 0-.097-1.37Z" fill="#1A1A1A"/><path d="M23.227 19.015c2.386-1.573 5.05 3.758 6.083 6.621 4.28 11.205-4.512 9.296-7.785 3.45-1.347-2.405-1.279-8.104 1.703-10.07Z" fill="#CFEDFC"/><path d="M30.26 32.1c.133-.415.204-.913.2-1.501l-.569.041-1.362-.396-1.565-.75-.232-.962-1.37-4.721-2.455-4.561c-.424.342-.78.765-1.075 1.244.86 1.297 2.285 4.556 3.017 6.343-.375.704-2.242 1.645-3.384 2.141l.059.11c.267.476.571.927.901 1.347.923-.314 2.091-1.135 2.718-1.644.493 1.433.395 3.194.24 4.205.46.256.92.453 1.365.584l.272-2.218c.26.223 2.037.548 3.24.738Z" fill="#00ACE6"/><path d="m20.465 21.198-1.784-1.19-8.06 11.763 1.937 1.292 2.59.556 3.638-.65 2.455-2.39-2.1-2.573 1.324-6.808Z" fill="#FFE100"/><path fill-rule="evenodd" clip-rule="evenodd" d="M28.424 19.774c3.892-4.085.552-8.946-2.195-10.778L18.68 20.013l.867.578c-.774 1.476-.833 3.889-.765 4.91-1.368.436-2.842-.26-3.409-.662l-2.48 3.62c2.895 1.931 5.808 1.676 6.902 1.307l.454.963c-3.283 3.318-7.484 1.82-9.319.596L7.727 36l3.92-2.146c4.218 2.169 8.316-.142 9.838-1.569 1.385 2.097 6.344 4.723 8.888 2.853 4.43-3.257.894-11.71-1.95-15.364Zm-5.184-.768c2.38-1.54 5.036 3.774 6.067 6.631.689 1.803 1.039 3.266 1.128 4.428-1.631.114-2.782-.666-3.18-1.108-.575-3.558-2.644-7.654-4.015-9.95Zm-.6.477c.918 1.616 2.01 4.134 2.543 5.454-.51 2.281-2.505 3.338-3.878 3.705-1.03-2.408-.916-7.016 1.334-9.159Zm-.919 9.944c2.033-.426 3.396-2.189 3.863-3.124 1.22 3.366 1.118 5.834.785 7.152-1.656-.613-3.454-2.079-4.648-4.028Zm5.668 4.298c.174-1.021.044-2.674-.073-3.556 1.346.808 2.465.95 3.129.895-.145 2.155-1.44 2.906-3.056 2.66ZM54.343 22.398V11.883h5.147c4.019 0 5.354.039 6.09.178.52.098 1.242.312 1.604.476.363.164.938.554 1.277.867.339.313.753.849.92 1.19.168.342.36.975.43 1.407.084.532.084 1.04 0 1.575-.069.434-.265 1.074-.435 1.421-.17.348-.556.846-.858 1.108a6.254 6.254 0 0 1-1.19.78l-.642.302.368.093c.203.05.602.19.887.31.285.12.776.452 1.091.738.316.287.7.717.853.957.154.24.367.727.474 1.082.11.363.195 1.087.195 1.652 0 .694-.08 1.245-.257 1.778-.141.425-.46 1.035-.706 1.356-.247.32-.753.788-1.125 1.04a6.935 6.935 0 0 1-1.451.709c-.427.138-1.283.304-1.904.368-.62.065-3.297.118-5.948.12l-4.82.002-.012-5.514-.325.424c-.179.234-.715.81-1.191 1.28-.477.47-1.22 1.09-1.65 1.378-.431.288-1.233.73-1.781.984-.549.254-1.412.578-1.919.72-.536.152-1.464.289-2.222.328-.983.052-1.532.018-2.242-.138a9.451 9.451 0 0 1-1.79-.626c-.468-.23-1.13-.667-1.47-.968-.34-.302-.875-.93-1.19-1.398-.315-.468-.705-1.226-.867-1.686a10.753 10.753 0 0 1-.422-1.834c-.07-.55-.092-1.355-.049-1.79.043-.437.185-1.192.316-1.68.13-.486.383-1.168.56-1.514.178-.346.547-.956.821-1.356.275-.4.893-1.109 1.375-1.575.482-.467 1.188-1.031 1.569-1.255.38-.224 1.04-.55 1.463-.727.683-.284 1.611-.381 2.164-.381.553 0 1.479.085 2.09.402.361.188.9.589 1.197.89.38.385.598.745.736 1.216.137.463.172.868.115 1.32-.046.357-.255.99-.466 1.407-.242.478-.726 1.099-1.312 1.684-.51.51-1.412 1.237-2.003 1.616-.59.379-1.42.843-1.842 1.031-.422.189-1.21.48-1.75.648-.54.167-1.245.343-1.566.39-.396.06-.583.145-.583.268 0 .1.165.522.367.939.202.417.593.99.87 1.271.278.282.863.678 1.301.88.636.294 1.015.38 1.876.429.76.042 1.354 0 2.008-.144.511-.112 1.417-.438 2.013-.725a15.18 15.18 0 0 0 2.065-1.253 18.2 18.2 0 0 0 1.791-1.563 19.424 19.424 0 0 0 1.382-1.601l.573-.77Zm10.528-5.802a2.191 2.191 0 0 0-.706-.623c-.363-.18-.788-.212-2.853-.212h-2.425v3.635h2.369c2.212 0 2.405-.018 2.916-.273.357-.178.624-.42.763-.697.118-.233.215-.648.215-.921 0-.315-.102-.648-.279-.909Zm-17.474.402a1.779 1.779 0 0 0-.547-.45c-.206-.106-.684-.182-1.143-.182-.66 0-.935.072-1.694.444-.66.322-1.159.695-1.828 1.365-.638.638-1.084 1.227-1.448 1.913-.29.545-.605 1.36-.701 1.81-.096.451-.146.848-.112.882.035.034.49-.026 1.013-.133a12.917 12.917 0 0 0 1.921-.593c.534-.219 1.455-.718 2.046-1.108.591-.39 1.328-.994 1.637-1.342.31-.348.671-.854.805-1.125.133-.271.242-.654.242-.852 0-.197-.086-.48-.191-.629Zm17.967 7.111c-.152-.227-.523-.534-.824-.684-.514-.256-.699-.273-3.039-.273H59.01v4.383l2.548-.04c2.298-.037 2.597-.066 3.04-.294.29-.15.603-.448.765-.727.2-.347.275-.674.277-1.214.001-.568-.063-.835-.276-1.151ZM73.194 31.331l-.062-19.448h4.712c3.674 0 4.954.04 5.804.185a8.54 8.54 0 0 1 1.983.601c.506.236 1.175.68 1.546 1.025.359.335.795.87.97 1.186.174.318.408.927.52 1.355.126.481.201 1.242.199 2-.003.694-.086 1.523-.193 1.922a7.49 7.49 0 0 1-.449 1.211 9.526 9.526 0 0 1-.678 1.075c-.229.31-.788.812-1.243 1.115-.455.303-1.159.658-1.564.79a11.95 11.95 0 0 1-1.698.37c-.528.072-1.895.13-3.037.13h-2.077l-.066 6.483h-4.667Zm10.47-14.395c-.17-.3-.467-.587-.767-.741-.436-.224-.746-.297-2.733-.33l-2.241.002v4.983l1.995-.001c1.098 0 2.205-.058 2.46-.128.255-.07.656-.293.89-.497.299-.258.487-.573.626-1.041.127-.432.17-.867.122-1.216a3.485 3.485 0 0 0-.352-1.031Z" fill="#1A1A1A"/><path d="m91.907 21.758.032 9.573h4.667l.065-7.449 8.163-.064.067-3.938h-8.234v-3.877H106v-4.12H91.904c-.004 1.685-.01 6.193.003 9.875Z" fill="#1A1A1A"/></svg>