<svg width="128" height="44" fill="none" xmlns="http://www.w3.org/2000/svg"><path d="M99.482 14.799H89.287v23.724h5.67V30.56h4.503c5.529 0 8.777-3.02 8.777-8.094-.006-4.96-3.112-7.668-8.755-7.668Zm-.285 10.914h-4.248V19.65h4.245c2.052 0 3.164 1.025 3.164 2.992 0 1.966-1.167 3.07-3.161 3.07ZM123.236 19.822h4.765v-5.028h-16.958v23.72h5.638v-9.142H126.583v-4.88H116.681V19.82l6.555.003ZM84.326 27.48c-.827-.712-1.568-1.055-2.965-1.368 1.17-.427 1.683-.713 2.31-1.254 1.082-.968 1.651-2.336 1.651-4.075 0-3.76-2.707-5.984-7.323-5.984H66.583s-.011 2.514-.011 4.022v8.843a21 21 0 0 1-2.932 3.484c-1.726 1.582-3.907 3.14-6.664 3.743a7.374 7.374 0 0 1-3.459-.034c-2.143-.558-3.416-1.982-4.037-4.055-.075-.254-.045-.287.218-.337.408-.08.82-.148 1.224-.242a17.123 17.123 0 0 0 5.842-2.612c1.186-.8 2.23-1.792 3.089-2.936a5.543 5.543 0 0 0 1.042-2.276c.275-1.51-.186-2.767-1.33-3.763-.976-.847-2.149-1.208-3.423-1.245-1.275-.037-2.471.305-3.605.865-1.75.863-3.153 2.138-4.303 3.697a11.372 11.372 0 0 0-1.99 4.23 12.181 12.181 0 0 0-.053 4.732c.13.61.316 1.207.558 1.783 1.294 2.996 3.55 4.785 6.765 5.332a10.69 10.69 0 0 0 4.468-.237c2.81-.715 5.205-2.159 7.238-4.214.34-.343.929-1.166 1.35-1.84v2.671c0 1.996.012 4.115.012 4.115s1.813-.01 3.978-.01h7.75c4.96 0 7.865-2.422 7.865-6.527.002-1.884-.625-3.424-1.85-4.508Zm-35.091.346c.09-.79.3-1.563.621-2.29.837-1.879 2.083-3.413 3.831-4.517a5.235 5.235 0 0 1 2.079-.792c.178-.024.356-.036.535-.053.476-.002.946.113 1.368.332.77.42 1.035 1.121.726 1.946-.145.38-.344.737-.591 1.059a10.612 10.612 0 0 1-2.898 2.597 14.088 14.088 0 0 1-4.849 1.922c-.176.034-.355.06-.532.087-.266.038-.322-.013-.29-.291Zm22.919-8.353h4.957c1.627 0 2.514.798 2.514 2.194s-.94 2.28-2.451 2.28h-5.015l-.005-4.474Zm5.243 14.334h-5.243v-5.301h5.213c1.825 0 2.907.968 2.907 2.622.005 1.68-1.078 2.673-2.873 2.673l-.004.006Z" fill="#fff"/><path d="M31.924 43.35c-2.507 0-5.43-1.587-7.592-4.088a10.382 10.382 0 0 1-4.55 2.106c-.59.11-1.189.165-1.789.166-1.6 0-3.198-.391-4.77-1.163l-4.199 2.133a.639.639 0 0 1-.905-.414.657.657 0 0 1-.011-.282l.837-4.686c-1.6-1.787-2.565-3.891-2.794-6.097a10.736 10.736 0 0 1 .71-5.012C3.808 24.57 1.471 22.107.83 19.606c-.78-3.045.927-5.685 4.458-6.888 1.896-.649 4.014-.973 6.29-.973 2.27.004 4.53.32 6.717.937.12-.206.252-.405.393-.598 1.379-1.865 3.62-2.947 6.162-2.978a14.072 14.072 0 0 1 1.786-7.545c.232-.41.615-.71 1.064-.835.45-.126.93-.066 1.337.166.406.232.706.618.833 1.072.128.455.073.943-.152 1.357-1.386 2.492-1.478 4.812-1.269 6.425a11.15 11.15 0 0 1 2.879 1.587c.657.498 1.26 1.065 1.796 1.694a10.108 10.108 0 0 0 5.438-2.994c.327-.34.775-.536 1.244-.542.47-.006.922.177 1.258.509a1.807 1.807 0 0 1 .033 2.536 13.79 13.79 0 0 1-6.072 3.71c.126.343.233.692.32 1.047.588 2.408.173 4.733-1.167 6.547-.14.187-.289.368-.447.54 1.2 1.938 3.868 6.931 3.647 12.689-.145 3.774-2.162 6.18-5.264 6.277a3.684 3.684 0 0 1-.19.005Zm-.254-3.592c.073 0 .144.007.213.007h.119c.61-.02 1.422-.24 1.725-1.795a8.222 8.222 0 0 1-1.887-.623 18.736 18.736 0 0 1-.17 2.411Zm-5.656-4.317c.937 1.585 2.164 2.869 3.445 3.61.206-1.819.098-3.79-.32-5.887a7.755 7.755 0 0 1-3.125 2.277Zm-15.787-8.34c-1.668 3.76.437 7.162 2.829 8.971 1.61 1.223 3.322 1.868 4.951 1.868a6.25 6.25 0 0 0 1.138-.108 6.891 6.891 0 0 0 3.206-1.567 2.613 2.613 0 0 1-.05-.108c-.397.047-.795.07-1.195.07a10.711 10.711 0 0 1-6.52-2.236 10.855 10.855 0 0 1-4.204-6.875l-.155-.015Zm21.43 7.319c.595.648 1.417.998 2.17 1.189-.19-3.27-1.467-6.243-2.252-7.79-1.34-2.642-2.656-4.049-3.062-4.215a1.282 1.282 0 0 0-.485-.102H28a35.758 35.758 0 0 1 2.162 4.836 28.76 28.76 0 0 1 1.495 6.082Zm-5.508-9.5c-1.021 1.502-1.797 4.03-1.533 6.672.07.6.207 1.188.41 1.755 2.496-.985 3.142-2.927 3.262-3.382a33.862 33.862 0 0 0-2.139-5.046Zm-9.438 1.658c.192.659.64 1.548 1.649 2.318.769.605 1.71.944 2.684.964.076-1.671.435-3.316 1.06-4.864a10.384 10.384 0 0 1-1.08-.816 14.391 14.391 0 0 1-4.313 2.396v.002Zm-4.423-2.848h.236c.518 0 1.036-.047 1.546-.142 2.576-.488 4.75-1.956 5.884-3.373a32.596 32.596 0 0 0-5.378-.659c-.399.239-2.08 1.407-2.288 4.174Zm-6.57-2.78c1.128 1.1 2.68 1.98 4.305 2.434a7.947 7.947 0 0 1 1.279-3.75c-2.067.177-3.939.617-5.584 1.311v.004Zm-.252-4.426c-1.386.733-1.366 1.583-1.213 2.184.03.11.066.218.107.324a17.96 17.96 0 0 1 2.228-.844 8.39 8.39 0 0 1-1.122-1.668v.004Zm8.136.693c.652 0 1.317.022 1.978.065 1.744.115 3.477.362 5.184.74a1.272 1.272 0 0 0-.239-.47c-.184-.236-1.154-.81-2.973-1.34a22.275 22.275 0 0 0-6.057-.865 16.735 16.735 0 0 0-3.829.42c.397.676.96 1.375 1.74 1.771a26.65 26.65 0 0 1 4.196-.325v.004Z" fill="#1A1A1A"/><path d="M28.177 1.296a1.118 1.118 0 0 1 .974.567 1.157 1.157 0 0 1 .009 1.14c-1.619 2.918-1.558 5.612-1.285 7.228 1.104.366 2.142.914 3.07 1.621a10.814 10.814 0 0 1 1.924 1.876 10.714 10.714 0 0 0 6.151-3.243 1.13 1.13 0 0 1 .795-.35 1.116 1.116 0 0 1 .806.324 1.145 1.145 0 0 1 .341.809 1.16 1.16 0 0 1-.325.815 12.993 12.993 0 0 1-6.486 3.722c.242.528.433 1.078.572 1.643.54 2.215.166 4.347-1.057 6.003a6.492 6.492 0 0 1-.747.845c2.08 3.164 4.006 8.019 3.825 12.754-.133 3.452-1.87 5.567-4.646 5.654h-.17c-2.49 0-5.422-1.696-7.51-4.354a9.807 9.807 0 0 1-4.746 2.378 9.189 9.189 0 0 1-1.674.155c-1.6 0-3.208-.42-4.77-1.24l-4.485 2.279.893-5.007c-1.642-1.739-2.616-3.767-2.843-5.96-.175-1.812.14-3.637.913-5.28-3.16-1.315-5.618-3.763-6.253-6.235-.7-2.725.813-5.01 4.043-6.111 1.957-.667 4.052-.94 6.09-.94 2.38.001 4.748.358 7.026 1.059.17-.344.368-.671.594-.98 1.33-1.802 3.458-2.718 5.758-2.718a9.5 9.5 0 0 1 .58.019c-.276-2.74.302-5.5 1.651-7.89.099-.177.242-.325.415-.427.173-.102.37-.156.57-.156M9.314 18.208a25.809 25.809 0 0 1 4.287-.345 30.1 30.1 0 0 1 1.938.064c1.97.128 3.927.43 5.845.906.139-.64.024-1.196-.357-1.684-.697-.898-4.923-2.453-9.533-2.453a16.843 16.843 0 0 0-4.766.649c.426.945 1.24 2.27 2.586 2.865m-5.252 1.679a17.495 17.495 0 0 1 3.794-1.382c-1.06-.828-1.716-1.984-2.088-2.835-1.775.72-2.495 1.793-2.132 3.198.096.358.24.7.426 1.019Zm6.56 4.305c.026-2.717 1.191-4.386 2.133-5.297-2.647.075-5.524.548-8.103 1.828 1.251 1.536 3.452 2.964 5.978 3.459m1.9.188c.559 0 1.116-.051 1.664-.155 3.206-.606 5.842-2.63 6.824-4.431a33.058 33.058 0 0 0-6.664-.89l.016.033c-.122.064-2.755 1.487-2.738 5.404.296.027.595.042.897.042m21.963 12.03c-.009-6.388-4.334-12.828-5.74-13.402a1.914 1.914 0 0 0-.722-.149c-.342.006-.677.1-.974.274a34.361 34.361 0 0 1 2.506 5.433 28.203 28.203 0 0 1 1.487 6.133c.94 1.145 2.427 1.558 3.443 1.709M21.08 30.5c.196 0 .393-.013.588-.039a13.994 13.994 0 0 1 1.246-5.728c-.676-.4-1.306-.878-1.878-1.421a13.579 13.579 0 0 1-5.074 2.824c.106.735.506 2.127 2.016 3.273 1.173.892 2.315 1.093 3.102 1.093m3.572 3.654c3.69-1.118 4.28-4.133 4.286-4.167l.035.007a34.24 34.24 0 0 0-2.718-6.232c-1.43 1.465-2.604 4.598-2.274 7.89.103.863.329 1.706.671 2.503m-6.644 4.431c.42 0 .84-.038 1.253-.114a7.628 7.628 0 0 0 3.888-2.054 12.997 12.997 0 0 1-.468-.96c-.52.09-1.046.134-1.574.133a10.09 10.09 0 0 1-6.137-2.106c-2.8-2.125-3.803-4.958-4.02-6.925a12.33 12.33 0 0 1-1.078-.195c-2.076 4-.223 7.935 2.802 10.23 1.739 1.319 3.56 1.996 5.33 1.996m11.96 1.426c.501-2.894.137-5.851-.543-8.467-.586 1.156-1.823 2.739-4.337 3.538 1.083 2.104 2.85 4.107 4.88 4.93Zm1.92.394h.139c1.43-.046 2.244-1.049 2.425-2.978-.91-.123-2.19-.432-3.272-1.233a18.15 18.15 0 0 1-.244 4.115c.313.064.632.097.951.098M28.177 0c-.427 0-.847.115-1.215.334a2.429 2.429 0 0 0-.884.909 14.725 14.725 0 0 0-1.883 7.242c-2.476.195-4.64 1.34-6.019 3.209a6.613 6.613 0 0 0-.166.235c-2.1-.55-4.26-.83-6.43-.835-2.346 0-4.535.34-6.498 1.008-1.855.633-3.289 1.654-4.15 2.953-.91 1.377-1.16 3.007-.722 4.714.369 1.44 1.24 2.874 2.52 4.149.985.97 2.108 1.786 3.331 2.419a11.283 11.283 0 0 0-.546 4.756c.233 2.248 1.173 4.388 2.744 6.224l-.78 4.377a1.314 1.314 0 0 0 .491 1.269 1.27 1.27 0 0 0 1.34.121l3.921-1.992c1.491.709 3.116 1.08 4.762 1.091.639 0 1.276-.06 1.904-.176a10.903 10.903 0 0 0 4.35-1.873C26.497 42.543 29.351 44 31.924 44h.213c1.739-.055 3.211-.757 4.258-2.032.987-1.203 1.55-2.886 1.626-4.864.09-2.356-.289-4.854-1.128-7.422a26.207 26.207 0 0 0-2.367-5.229c.059-.072.114-.145.168-.216 1.457-1.973 1.91-4.492 1.28-7.092a9.636 9.636 0 0 0-.127-.47A14.476 14.476 0 0 0 41.563 13a2.46 2.46 0 0 0 .683-1.736 2.458 2.458 0 0 0-.728-1.717 2.405 2.405 0 0 0-1.712-.692 2.393 2.393 0 0 0-1.694.737 9.507 9.507 0 0 1-4.747 2.736 12.23 12.23 0 0 0-1.645-1.502 11.845 11.845 0 0 0-2.666-1.53 9.72 9.72 0 0 1 1.234-5.644 2.467 2.467 0 0 0-.018-2.43 2.424 2.424 0 0 0-.88-.887 2.383 2.383 0 0 0-1.2-.323L28.177 0ZM8.773 16.206a16.97 16.97 0 0 1 2.725-.216 21.22 21.22 0 0 1 5.643.773c-.483-.053-.99-.099-1.516-.133a30.97 30.97 0 0 0-2.02-.067 27.42 27.42 0 0 0-4.074.295c-.284-.18-.54-.4-.758-.656v.004Zm-3.945 1.915c.02-.203.121-.438.419-.688a8.2 8.2 0 0 0 .275.422c-.235.085-.466.173-.694.266Zm8.198 4.946c.335-1.697 1.308-2.552 1.732-2.853 1.315.059 2.625.2 3.924.421a9.985 9.985 0 0 1-4.726 2.317 7.533 7.533 0 0 1-.93.115Zm-6.055-1.9a17.822 17.822 0 0 1 3.168-.747 8.64 8.64 0 0 0-.646 2.114 9.661 9.661 0 0 1-2.522-1.368Zm10.576 5.79a15.097 15.097 0 0 0 3.473-1.953l.138.108.168.125a15.576 15.576 0 0 0-.871 3.918 4.006 4.006 0 0 1-1.706-.777 4.008 4.008 0 0 1-1.2-1.42h-.002Zm7.88 5.493a6.239 6.239 0 0 1-.17-.922c-.178-1.796.119-3.607.86-5.248a33.151 33.151 0 0 1 1.502 3.694c-.171.5-.714 1.674-2.193 2.476Zm6.84 1.668a29.529 29.529 0 0 0-1.501-5.995c-.18-.5-.366-.979-.552-1.433.29.475.589 1.012.884 1.607 1.054 2.122 1.742 4.324 2.002 6.37a3.313 3.313 0 0 1-.833-.55Zm-18.81 1.454-.015-.011c-1.376-1.045-2.394-2.412-2.867-3.847a5.875 5.875 0 0 1-.278-2.437 11.858 11.858 0 0 0 3.883 5.23 11.618 11.618 0 0 0 6.026 2.349 5.666 5.666 0 0 1-2.195.443c-1.507 0-3.039-.58-4.554-1.73v.003Zm13.498.154a8.505 8.505 0 0 0 1.772-1.2c.164 1.114.225 2.24.183 3.366a9.947 9.947 0 0 1-1.955-2.162v-.004Zm5.445 3.32c.023-.248.042-.5.057-.756.16.055.32.108.477.15-.152.359-.346.524-.533.602v.005Z" fill="#E5E5E5"/><path d="M24.394 36.743c-3.422-6.669-.172-12.18-.172-12.18l-1.3-1.848-.006-.009-2.115-.745S16.5 26.676 9.224 25.227c-1.898 5.007-1.959 7.9 2.378 12.801l.007.01c5.864 2.836 8.58 1.962 12.785-1.295Z" fill="#FEE100"/><path d="M21.92 16.442c-1.399-1.798-9.66-4.204-16.064-2.021-8.38 2.858.161 12.517 8.542 10.933 5.338-1.01 9.933-5.81 7.521-8.912Z" fill="#D9F1FD"/><path d="m12.547 18.554-.352-.632a4.132 4.132 0 0 0-.846.703c-.836.07-1.667.187-2.49.35l.055-.143c-2.155-.865-2.927-3.764-2.934-3.793l-.73.193-.729.19c.032.123.663 2.521 2.48 4.014a17.193 17.193 0 0 0-3.872 1.696l.765 1.314c2.006-1.2 4.196-1.837 6.319-2.139-.554 1.18-.94 2.858-.672 5.172l1.492-.177c-.31-2.692.384-4.3 1.02-5.175 4.82-.275 8.87.972 8.933.993l.45-1.457c-.256-.082-4.123-1.279-8.889-1.109Z" fill="#2BABE2"/><path d="M29.176 21.948c2.096.854 6.7 8.214 6.438 15.056-.343 8.956-11.893 3.369-12.754-5.23-.549-5.476 2.7-11.298 6.316-9.826Z" fill="#D9F1FD"/><path d="m35.033 38.575-.05-1.525c-.029 0-2.979.08-4.415-1.786l-.12.095a23.272 23.272 0 0 0-.37-2.52c.185-.32.329-.664.426-1.022l-.698-.169c-1.183-4.68-3.402-8.106-3.554-8.333L25 24.163a28.938 28.938 0 0 1 3.46 8.405c-.65.865-1.976 1.998-4.614 2.455l.252 1.504c2.27-.392 3.75-1.24 4.71-2.112.313 2.149.32 4.459-.248 6.75l1.46.374c.341-1.388.514-2.812.514-4.242 1.718 1.202 3.855 1.28 4.382 1.28.064 0 .103 0 .117-.002Z" fill="#2BABE2"/><path d="M40.687 10.388a1.13 1.13 0 0 0-.806-.327 1.118 1.118 0 0 0-.797.348 10.733 10.733 0 0 1-6.161 3.249 10.838 10.838 0 0 0-1.928-1.879 10.526 10.526 0 0 0-3.075-1.624c-.274-1.619-.334-4.324 1.287-7.242.147-.265.185-.578.104-.871a1.145 1.145 0 0 0-.535-.691 1.118 1.118 0 0 0-.86-.106 1.134 1.134 0 0 0-.68.542 13.372 13.372 0 0 0-1.655 7.904c-2.525-.165-4.907.749-6.351 2.707a6.483 6.483 0 0 0-.595.981c-3.584-1.127-8.715-1.624-13.137-.119-3.237 1.104-4.751 3.393-4.05 6.122.635 2.476 3.097 4.929 6.264 6.247a10.134 10.134 0 0 0-.916 5.288c.228 2.198 1.204 4.23 2.849 5.971l-.895 5.016 4.493-2.283c1.565.821 3.177 1.242 4.779 1.242.562 0 1.124-.052 1.677-.154a9.83 9.83 0 0 0 4.754-2.383c2.092 2.663 5.03 4.362 7.524 4.362h.17c2.777-.088 4.522-2.206 4.654-5.664.181-4.74-1.747-9.604-3.831-12.777.273-.26.523-.543.747-.847 1.226-1.658 1.602-3.795 1.06-6.013a9.238 9.238 0 0 0-.574-1.646 13.024 13.024 0 0 0 6.5-3.73 1.149 1.149 0 0 0 .324-.815 1.162 1.162 0 0 0-.34-.808Zm-14.39 13.329a34.299 34.299 0 0 1 2.724 6.243l-.035-.007c-.006.034-.597 3.055-4.294 4.174a9.096 9.096 0 0 1-.673-2.507c-.326-3.296.85-6.435 2.278-7.904Zm-3.346.974a14.02 14.02 0 0 0-1.248 5.739c-.72.097-2.176.097-3.697-1.057s-1.914-2.542-2.02-3.279a13.602 13.602 0 0 0 5.083-2.829 10.496 10.496 0 0 0 1.882 1.424v.002Zm-8.58-5.847c2.25.07 4.486.368 6.676.891-.986 1.807-3.626 3.835-6.836 4.44a9.154 9.154 0 0 1-2.563.108c-.017-3.924 2.62-5.35 2.742-5.414l-.019-.025Zm-2.854-4.216c4.618 0 8.852 1.558 9.55 2.456.381.49.497 1.047.358 1.688a33.348 33.348 0 0 0-5.856-.908 27.233 27.233 0 0 0-6.236.282c-1.349-.593-2.162-1.923-2.591-2.87a16.87 16.87 0 0 1 4.775-.648Zm-7.875 4.18c-.36-1.408.36-2.483 2.137-3.205.372.853 1.03 2.011 2.09 2.84-1.314.313-2.589.777-3.8 1.384a4.182 4.182 0 0 1-.432-1.02h.005Zm1.013 1.862c2.588-1.282 5.47-1.757 8.117-1.831-.94.907-2.107 2.58-2.136 5.305-2.528-.505-4.732-1.936-5.986-3.474h.005Zm14.641 17.784c-2.163.4-4.444-.25-6.6-1.885-3.03-2.299-4.886-6.237-2.806-10.247.355.08.715.146 1.08.195.214 1.97 1.222 4.808 4.027 6.937a10.113 10.113 0 0 0 6.15 2.11 9.175 9.175 0 0 0 1.576-.133c.143.325.3.65.469.962a7.641 7.641 0 0 1-3.901 2.061h.005Zm10.726 1.544c-2.03-.824-3.804-2.83-4.889-4.938 2.519-.8 3.758-2.383 4.345-3.544.676 2.62 1.04 5.583.538 8.482h.006Zm2.06.392a4.792 4.792 0 0 1-1.091-.096c.237-1.36.32-2.743.244-4.122 1.084.798 2.366 1.112 3.278 1.235-.187 1.934-1.002 2.938-2.436 2.983h.005Zm2.472-4.006c-1.018-.15-2.507-.565-3.45-1.712a28.256 28.256 0 0 0-1.49-6.144 34.431 34.431 0 0 0-2.51-5.443 1.99 1.99 0 0 1 .976-.274c.249.002.495.053.724.149 1.405.57 5.736 7.02 5.744 13.42l.006.004Z" fill="#1A1A1A"/></svg>